<svg fill="#e92c4d" id="Capa_1" enable-background="new 0 0 511.988 511.988" height="512" viewBox="0 0 511.988 511.988" width="512" xmlns="http://www.w3.org/2000/svg"><g><path d="m291.016 240.607c-2.928-2.929-7.677-2.929-10.606 0s-2.929 7.678 0 10.606l92.964 92.966c3.904 3.92 3.904 10.299.022 14.197-3.927 3.913-10.301 3.918-14.208.011l-210.384-210.39-2.465-2.465c-3.915-3.915-3.915-10.283-.011-14.186 3.919-3.904 10.298-3.904 14.217-.001l94.931 94.565c2.934 2.922 7.682 2.915 10.606-.021 2.923-2.935 2.914-7.683-.021-10.606l-94.932-94.565c-9.757-9.717-25.632-9.716-35.398.011-9.398 9.398-9.745 24.467-1.048 34.29l-30.193 73.341c-.003.006-.006.011-.009.017-.138.282-.251.569-.351.859l-19.519 47.414-.001.002c-.135.275-.246.555-.344.837l-80.956 196.649c-.066.159-.126.32-.18.483-3.117 9.353-5.454 19.764.848 26.068 2.925 2.926 6.74 4.001 10.933 4.001 4.908 0 10.334-1.474 15.448-3.176.165-.055.327-.115.487-.181l271.911-111.961c.181-.068.361-.139.536-.221l46.409-19.109c4.711 4.169 10.633 6.26 16.565 6.259 6.414 0 12.835-2.438 17.735-7.318 9.715-9.756 9.715-25.631-.011-35.399zm-144.863-74.047 145.061 145.065-170.374-83.577zm-120.774 320.802c-5.936 1.959-8.973 2.334-10.4 2.347.022-1.402.404-4.359 2.302-10.104l24.477-59.457 67.034 32.868zm166.241-68.45-48.617-23.829c-3.719-1.825-8.212-.287-10.035 3.434-1.823 3.719-.286 8.212 3.434 10.035l36.697 17.986-45.788 18.853-79.831-39.143 14.159-34.394 42.076 20.651c1.063.522 2.189.769 3.299.769 2.771 0 5.435-1.542 6.738-4.197 1.825-3.719.29-8.212-3.428-10.038l-42.963-21.086 27.883-67.732 186.597 91.541zm108.738-44.774-199.391-97.817 14.151-34.373 208.89 102.472 14.153 14.153z"/><path d="m504.952 182.269c-32.581-2.027-63.207 5.391-91.032 22.033-24.321 14.545-43.129 34.061-56.797 49.438-2.752 3.096-2.473 7.836.623 10.588 1.429 1.271 3.208 1.895 4.98 1.895 2.068 0 4.127-.85 5.608-2.517 31.194-35.094 71.713-70.426 135.689-66.465 4.121.27 7.693-2.886 7.95-7.021s-2.887-7.694-7.021-7.951z"/><path d="m228.569 146.571c1.784 0 3.575-.633 5.007-1.918 27.921-25.062 59.825-60.712 58.699-114.392-.087-4.141-3.481-7.417-7.656-7.341-4.141.087-7.428 3.515-7.341 7.656.993 47.305-26.6 78.57-53.722 102.915-3.083 2.767-3.338 7.509-.572 10.591 1.483 1.649 3.53 2.489 5.585 2.489z"/><path d="m313.466 224.454c-2.801 3.052-2.598 7.796.454 10.597 1.44 1.322 3.257 1.975 5.069 1.975 2.027 0 4.049-.817 5.527-2.429 13.876-15.119 32.712-34.42 55.396-49.608 3.442-2.304 4.364-6.963 2.059-10.405s-6.962-4.364-10.405-2.059c-24.005 16.072-43.66 36.194-58.1 51.929z"/><path d="m274.579 155.604c-3.096 2.752-3.375 7.492-.623 10.588 1.482 1.667 3.54 2.517 5.608 2.517 1.772 0 3.551-.625 4.98-1.895 15.863-14.101 35.996-33.504 51.006-58.602 17.167-28.703 24.814-60.288 22.73-93.879-.257-4.134-3.824-7.278-7.95-7.021-4.134.257-7.278 3.816-7.021 7.95 4.106 66.182-32.439 108.083-68.73 140.342z"/><path d="m396.387 109.306 18.503 9.378 9.388 18.522c2.095 4.104 4.996 6.185 8.625 6.185h.021c3.638-.007 6.536-2.098 8.609-6.203l9.378-18.504 18.493-9.374c4.13-2.086 6.225-4.992 6.224-8.637s-2.095-6.551-6.214-8.631l-18.503-9.378-9.373-18.494c-2.083-4.125-4.984-6.22-8.624-6.228-.007 0-.013 0-.02 0-3.627 0-6.526 2.077-8.626 6.193l-9.378 18.53-18.491 9.373c-4.115 2.078-6.206 4.976-6.213 8.614-.01 3.638 2.071 6.547 6.201 8.654zm27.473-14.371c1.424-.722 2.58-1.879 3.301-3.303l5.734-11.33 5.744 11.333c.721 1.422 1.876 2.578 3.299 3.299l11.325 5.74-11.325 5.74c-1.423.721-2.578 1.877-3.299 3.299l-5.74 11.325-5.74-11.325c-.721-1.422-1.877-2.578-3.299-3.299l-11.325-5.74z"/><path d="m456.47 294.735c-13.029 0-23.629 10.613-23.629 23.658s10.6 23.658 23.629 23.658c13.044 0 23.657-10.613 23.657-23.658s-10.613-23.658-23.657-23.658zm0 32.316c-4.758 0-8.629-3.884-8.629-8.658s3.871-8.658 8.629-8.658c4.773 0 8.657 3.884 8.657 8.658s-3.884 8.658-8.657 8.658z"/><path d="m187.477 69.368c-13.117 0-23.789-10.672-23.789-23.79s10.672-23.79 23.789-23.79c13.118 0 23.79 10.672 23.79 23.79s-10.673 23.79-23.79 23.79zm0-32.58c-4.846 0-8.789 3.943-8.789 8.79s3.943 8.79 8.789 8.79c4.847 0 8.79-3.943 8.79-8.79s-3.944-8.79-8.79-8.79z"/></g></svg>