<svg width="48" height="48" viewBox="0 0 48 48" fill="none" xmlns="http://www.w3.org/2000/svg">
<rect x="0.5" y="0.5" width="47" height="47" stroke="#DBD3D2"/>
<path d="M13.9784 27.7554L12.7253 32.4335L8.14516 32.5304C6.77639 29.9916 6 27.0869 6 24.0002C6 21.0154 6.72591 18.2006 8.01263 15.7222H8.01361L12.0912 16.4697L13.8774 20.5228C13.5035 21.6127 13.2998 22.7827 13.2998 24.0002C13.2999 25.3215 13.5393 26.5875 13.9784 27.7554Z" fill="#FBBB00"/>
<path d="M41.6855 20.6372C41.8922 21.7261 42 22.8506 42 23.9998C42 25.2885 41.8645 26.5456 41.6064 27.7581C40.7302 31.8843 38.4406 35.4872 35.2688 38.0369L35.2679 38.0359L30.132 37.7738L29.4051 33.2362C31.5097 32.002 33.1544 30.0704 34.0208 27.7581H24.3957V20.6372H34.1612H41.6855Z" fill="#518EF8"/>
<path d="M35.2678 38.0361L35.2688 38.0371C32.1841 40.5165 28.2656 42.0001 24 42.0001C17.1452 42.0001 11.1854 38.1687 8.14517 32.5303L13.9784 27.7554C15.4985 31.8123 19.412 34.7002 24 34.7002C25.9721 34.7002 27.8196 34.1671 29.4049 33.2364L35.2678 38.0361Z" fill="#28B446"/>
<path d="M35.4894 10.1439L29.6581 14.9179C28.0174 13.8923 26.0779 13.2998 24 13.2998C19.3081 13.2998 15.3214 16.3203 13.8775 20.5226L8.01362 15.722H8.01263C11.0084 9.94615 17.0433 6 24 6C28.3675 6 32.372 7.55573 35.4894 10.1439Z" fill="#F14336"/>
</svg>
