<svg width="48" height="48" viewBox="0 0 48 48" fill="none" xmlns="http://www.w3.org/2000/svg">
<rect x="0.5" y="0.5" width="47" height="47" stroke="#DBD3D2"/>
<path d="M36.983 27.9539C38.1772 29.1198 39.4376 30.2167 40.5086 31.5002C40.9818 32.0706 41.4297 32.6591 41.7724 33.321C42.2579 34.2619 41.8181 35.2973 40.9745 35.3535L35.7299 35.3511C34.3772 35.4633 33.2981 34.9188 32.3908 33.994C31.6647 33.2543 30.9922 32.4672 30.294 31.7026C30.0078 31.3902 29.7082 31.0961 29.3503 30.8637C28.6344 30.399 28.0129 30.5412 27.6037 31.2879C27.1871 32.0474 27.0925 32.8884 27.0516 33.7348C26.9954 34.9698 26.6221 35.2945 25.3816 35.351C22.7304 35.476 20.2144 35.0749 17.877 33.7375C15.8163 32.5585 14.2184 30.894 12.8275 29.0097C10.1195 25.3406 8.04565 21.3088 6.18181 17.164C5.76226 16.2302 6.0691 15.7289 7.09946 15.7111C8.81037 15.6779 10.5211 15.6803 12.234 15.7087C12.9294 15.7189 13.3897 16.1178 13.6583 16.7747C14.5839 19.0508 15.7166 21.2162 17.1383 23.2234C17.5169 23.7578 17.903 24.2923 18.4527 24.6684C19.0609 25.0848 19.524 24.9468 19.8101 24.2693C19.9916 23.8397 20.0712 23.3769 20.1121 22.9169C20.2477 21.3339 20.2655 19.7537 20.0278 18.1763C19.8818 17.1918 19.3273 16.5545 18.345 16.3683C17.8437 16.2733 17.9183 16.0867 18.1611 15.8006C18.5826 15.3072 18.9791 15 19.7695 15H25.6966C26.6298 15.1841 26.837 15.6034 26.9647 16.5422L26.9698 23.1261C26.9596 23.4895 27.1513 24.5682 27.806 24.8087C28.33 24.98 28.6754 24.5608 28.9898 24.2286C30.4089 22.7224 31.4218 20.9424 32.3266 19.0992C32.7282 18.2887 33.0735 17.4471 33.4081 16.6061C33.656 15.9821 34.045 15.675 34.7479 15.6886L40.4525 15.6936C40.6217 15.6936 40.7928 15.6961 40.9567 15.7241C41.9179 15.888 42.1814 16.3015 41.8844 17.2402C41.4167 18.7128 40.5065 19.9401 39.6165 21.1731C38.6652 22.4894 37.6477 23.7607 36.7043 25.0848C35.8375 26.2942 35.9063 26.9037 36.983 27.9539Z" fill="#436EAB"/>
</svg>
