<svg width="48" height="48" viewBox="0 0 48 48" fill="none" xmlns="http://www.w3.org/2000/svg">
<path d="M24 0V3.87879H44.1212V44.1212H24V48H48V0H24Z" fill="#AB2300"/>
<path d="M3.87879 44.1212V3.87879H24V0H0V48H24V44.1212H3.87879Z" fill="#CD2A00"/>
<path d="M20.6997 39.2725L25.8604 27.8703H28.141V39.2725H31.3811V8.72705H25.6431C21.9909 8.72705 17.6394 12.5681 17.6394 18.8086C17.6394 25.0501 23.1 27.5702 23.1 27.5702L16.6187 39.2725H20.6997ZM22.7009 23.6753C21.9034 22.6731 21.2091 21.0063 21.2091 18.2392C21.2091 12.1777 24.6942 11.3948 25.1751 11.3162C25.2096 11.3104 25.243 11.3085 25.2776 11.3085H28.0505V25.1699H25.893C24.66 25.1699 23.469 24.64 22.7009 23.6753Z" fill="#CD2A00"/>
</svg>
