<svg width="358" height="358" viewBox="0 0 358 358" fill="none" xmlns="http://www.w3.org/2000/svg">
<mask id="mask0" mask-type="alpha" maskUnits="userSpaceOnUse" x="0" y="0" width="358" height="358">
<rect width="358" height="358" fill="#DBD3D2"/>
</mask>
<g mask="url(#mask0)">
<rect x="-14" y="-10" width="382" height="386" fill="#DBD3D2"/>
<g opacity="0.5">
<path d="M126.442 148.558C127.54 149.655 129.056 150.334 130.73 150.334H133V167L158 192H199.666L224.666 167V150.334H226.936C230.285 150.334 233 147.619 233 144.27V131.397C233 128.049 230.285 125.334 226.936 125.334H224.666V117L191.333 83.667L126.442 148.558Z" fill="white"/>
<path d="M222.2 208.667H216.333L178.833 246.167L141.333 208.667H135.467C106.49 208.667 83 230.115 83 256.571V317H274.667V256.571C274.667 230.115 251.176 208.667 222.2 208.667Z" fill="white"/>
<path d="M191.333 75.3333L216.333 100.333L233 117V82.3833C233 62.3003 218.337 45.6487 199.135 42.531L191.333 50.3333L183 42H166.333C138.719 42 116.333 64.3857 116.333 91.9996V150.333L191.333 75.3333Z" fill="white"/>
</g>
</g>
</svg>
