<svg width="358" height="358" viewBox="0 0 358 358" fill="none" xmlns="http://www.w3.org/2000/svg">
<rect width="358" height="358" fill="#DBD3D2"/>
<path opacity="0.5" d="M130.356 309.665H133.099C155.572 309.665 174.089 292.776 176.678 271H206.004C210.329 271 214.556 270.601 218.667 269.877V321L235.22 337.667H260.22L260.305 246.281C270.716 234.201 277 218.609 277 201.576V179.333L252 154.333H273.114C293.607 154.333 310.22 136.563 310.22 114.643V104.333H284.847C282.191 87.4648 268.869 74.1425 252 71.4866V29.3333L235.333 47.1894V21L212.163 45.8242C196.443 62.6659 187.142 83.8044 185.573 105.956C185.4 107.457 185.301 108.981 185.301 110.528V154.333L175.57 164.077C152.854 167.902 132.795 179.314 118.212 195.545L52 129.333V168.746C52 193.003 71.6638 212.667 95.9203 212.667H105.906C98.1466 226.416 93.7128 242.209 93.6695 259.014C93.6694 259.052 93.6667 259.09 93.6667 259.128V259.262V271V283.148C83.566 288.652 76.7682 299.539 77.0061 311.975L76.8869 337.667H101.887L130.356 309.665Z" fill="white"/>
</svg>
