<svg width="151" height="44" viewBox="0 0 151 44" fill="none" xmlns="http://www.w3.org/2000/svg">
<g opacity="0.8">
<path d="M25.8923 7.48255C25.7717 6.71641 25.1087 6.13045 24.3087 6.13045H23.8839V4.10229L22.9441 5.10924C22.3064 5.79239 21.9291 6.64983 21.8655 7.54837C21.8585 7.60926 21.8545 7.67107 21.8545 7.73384V9.5107L21.4598 9.90594C20.5384 10.0611 19.7247 10.5239 19.1332 11.1824L16.4475 8.49663V10.0953C16.4475 11.0793 17.2451 11.8769 18.229 11.8769H18.634C18.3195 12.4343 18.1397 13.0745 18.1377 13.7558C18.1377 13.7577 18.1376 13.7596 18.1376 13.7615V13.7669V14.2431V14.7358C17.7279 14.9591 17.4522 15.4007 17.4618 15.9051L17.4817 16.9473H18.5033L19.6258 15.8115H19.7371C20.6486 15.8115 21.3997 15.1264 21.5047 14.2431H22.6943C22.8697 14.2431 23.0411 14.2269 23.2079 14.1975V16.2712L23.8809 16.9473H24.8918L24.8968 13.2404C25.3191 12.7504 25.574 12.1179 25.574 11.427V10.5248L24.5599 9.5107H25.4164C25.9087 9.5107 26.3457 9.25781 26.6203 8.86692C26.8094 8.5978 26.9215 8.26328 26.9215 7.90073V7.48255H25.8923V7.48255Z" fill="#1D2025"/>
<path d="M15.4189 22.3396L14.2359 21.1565H11.9941C11.8177 20.901 11.6044 20.673 11.3617 20.4804H11.7167C12.5479 20.4804 13.2218 19.7596 13.2218 18.8705V18.4523H12.1926C12.072 17.6861 11.409 17.1002 10.609 17.1002H10.1842V15.072L9.24438 16.079C8.60674 16.7621 8.22946 17.6196 8.16582 18.5181C8.1588 18.579 8.15481 18.6408 8.15481 18.7036V19.8044H8.15153V25.5508V26.5649V26.9029L5.7854 24.5367V26.1354C5.7854 27.1194 6.58301 27.917 7.56691 27.917H8.15153H9.16558H12.8838V27.6516C12.8838 26.771 12.3417 26.0174 11.5733 25.7051C12.1723 25.1357 12.5458 24.3312 12.5458 23.4395V22.9298C12.5458 22.902 12.5454 22.8742 12.5446 22.8466H14.9119L15.4189 22.3396Z" fill="#1D2025"/>
<path d="M16.4482 31.2333C16.5688 30.4671 17.2318 29.8812 18.0318 29.8812H18.4565V27.853L19.3964 28.86C20.0234 29.5318 20.3984 30.3721 20.4713 31.2543L20.4892 31.2333L21.5033 32.2474H22.4272C23.2169 32.2474 23.9382 32.5238 24.4891 32.9798L27.2496 30.2192V31.8179C27.2496 32.8018 26.452 33.5995 25.4681 33.5995H25.0567C25.3747 34.063 25.5595 34.6157 25.5595 35.2094V35.4483C25.9306 35.3245 26.3561 35.4101 26.6514 35.7055L27.2496 36.3037V37.3177H25.2215L25.1362 37.403C24.4366 38.1027 23.3022 38.1027 22.6026 37.403L21.5033 36.3037H19.7927L18.1231 37.9938H16.771L16.264 37.4868L18.4611 35.2896V33.9375L17.7851 33.2614H16.9241C16.0928 33.2614 15.4189 32.5406 15.4189 31.6515V31.2333H16.4482Z" fill="#1D2025"/>
<path d="M29.2289 18.7948C29.3495 18.0287 30.0125 17.4427 30.8125 17.4427H31.2373V15.4146L32.1771 16.4215C32.8148 17.1046 33.192 17.9621 33.2557 18.8606C33.2627 18.9215 33.2667 18.9833 33.2667 19.0461V20.823V22.7581C34.6944 23.7246 35.6328 25.3593 35.6328 27.2132V27.2454L37.9989 24.8793V26.478C37.9989 27.4619 37.2013 28.2595 36.2174 28.2595H35.6328H34.6188H29.8865H29.5721V27.2218L29.8865 26.9074V26.1809C29.2602 25.6368 28.8641 24.8345 28.8641 23.9396V23.7908C28.8641 22.7091 29.4429 21.7627 30.3075 21.244L29.8865 20.823H29.7048C28.8736 20.823 28.1997 20.1021 28.1997 19.213V18.7948H29.2289Z" fill="#1D2025"/>
<path d="M30.8443 12.1682L11.2383 31.7771L11.7143 32.2531L31.3203 12.6441L30.8443 12.1682Z" fill="#1D2025"/>
<path d="M11.7138 12.1688L11.2378 12.6448L30.8452 32.2526L31.3212 31.7766L11.7138 12.1688Z" fill="#1D2025"/>
<path d="M21.3294 43.6414C9.56828 43.6414 0 34.0728 0 22.3114C0 10.5501 9.56828 0.981445 21.3294 0.981445C33.0905 0.981445 42.659 10.5501 42.659 22.3114C42.659 34.0728 33.0905 43.6414 21.3294 43.6414ZM21.3294 2.41187C10.357 2.41187 1.43027 11.3388 1.43027 22.3114C1.43027 33.2841 10.357 42.211 21.3294 42.211C32.3019 42.211 41.2287 33.2841 41.2287 22.3114C41.2287 11.3388 32.3019 2.41187 21.3294 2.41187Z" fill="#1D2025"/>
<path d="M59.8007 12.9104H63.3717V14.1858C67.4526 14.1858 70.5134 15.8692 70.5134 21.3022V22.1184C70.5134 27.5514 67.4526 29.2348 63.3717 29.2348V30.5102H59.8007V29.2348C55.7198 29.2348 52.6589 27.5514 52.6589 22.1184V21.3022C52.6589 15.8692 55.7198 14.1858 59.8007 14.1858V12.9104ZM59.8007 17.1956C57.4542 17.1956 56.2299 18.0628 56.2299 21.3022V22.1184C56.2299 25.3578 57.4542 26.225 59.8007 26.225V17.1956ZM63.3717 26.225C65.7437 26.225 66.9426 25.3578 66.9426 22.1184V21.3022C66.9426 18.0628 65.7437 17.1956 63.3717 17.1956V26.225Z" fill="#1D2025"/>
<path d="M77.2091 22.858H79.7343V22.1184C79.7343 20.6899 79.3006 20.2308 77.4642 20.2308C76.2144 20.2308 75.6022 20.4094 75.0666 21.2511L72.771 19.6442C73.7148 18.0882 75.1432 17.5271 77.7703 17.5271C81.0605 17.5271 82.9226 18.4963 82.9226 22.1438V30.5101H79.7343V29.3878C79.2241 30.255 78.4589 30.7397 76.9796 30.7397C74.3269 30.7397 72.4905 29.3368 72.4905 26.7351C72.4905 24.0313 74.5309 22.858 77.2091 22.858ZM79.7343 25.2557H77.5917C76.2654 25.2557 75.6787 25.6893 75.6787 26.6841C75.6787 27.6533 76.4184 28.1125 77.5406 28.1125C79.0201 28.1125 79.7343 27.4748 79.7343 25.7403V25.2557Z" fill="#1D2025"/>
<path d="M89.0773 22.6029H93.0818V17.7566H96.3466V30.5101H93.0818V25.3832H89.0773V30.5101H85.8125V17.7566H89.0773V22.6029Z" fill="#1D2025"/>
<path d="M99.4075 33.8261V27.5004H100.53C100.963 27.0158 101.371 26.225 101.678 25.3578C102.188 23.6998 102.468 21.9144 102.468 17.6292V12.9104H114.227V27.5004H116.42V33.8261H113.206V30.5102H102.621V33.8261H99.4075ZM104.483 27.5004H110.656V15.9457H106.039V17.6292C106.039 22.5521 105.657 24.5926 104.968 26.5311C104.84 26.8882 104.662 27.1943 104.483 27.5004Z" fill="#1D2025"/>
<path d="M128.714 24.8731C128.714 28.3675 127.056 30.7397 123.205 30.7397C119.507 30.7397 117.696 28.4441 117.696 24.8731V23.3427C117.696 19.5166 119.711 17.5271 123.205 17.5271C126.75 17.5271 128.714 19.5166 128.714 23.3427V24.8731ZM125.475 24.771V23.4447C125.475 21.4041 124.812 20.2818 123.205 20.2818C121.598 20.2818 120.935 21.4041 120.935 23.4447V24.771C120.935 26.6075 121.394 27.9849 123.205 27.9849C124.99 27.9849 125.475 26.6075 125.475 24.771Z" fill="#1D2025"/>
<path d="M139.198 20.5113H133.994V30.5101H130.729V17.7566H139.198V20.5113Z" fill="#1D2025"/>
<path d="M150.42 28.5716C149.527 30.0765 148.073 30.7397 145.778 30.7397C142.13 30.7397 140.09 28.4441 140.09 24.9751V23.2407C140.09 19.5166 142.156 17.5271 145.956 17.5271C147.92 17.5271 149.527 18.2413 150.42 19.6442L147.971 21.3531C147.538 20.741 146.9 20.2818 145.88 20.2818C144.043 20.2818 143.329 21.4041 143.329 23.4447V24.771C143.329 26.6075 143.814 27.9849 145.88 27.9849C146.849 27.9849 147.538 27.6533 147.997 26.8882L150.42 28.5716Z" fill="#1D2025"/>
</g>
</svg>
