<svg width="48" height="48" viewBox="0 0 48 48" fill="none" xmlns="http://www.w3.org/2000/svg">
<g clip-path="url(#clip0)">
<path d="M38.3856 25.6334H36.5366V3.3003C36.5366 1.42896 35.0142 -0.09375 33.1425 -0.09375H16.1027C14.7426 -0.09375 13.5839 0.48816 12.7888 1.37659C8.09729 6.76173 7.02429 7.44106 6.77746 8.70815C6.40356 9.90932 6.64672 8.3965 6.57568 44.5123C6.57568 46.3836 8.09839 47.9063 9.96973 47.9063H33.1425C35.0142 47.9063 36.5366 46.3836 36.5366 44.5123V42.6754H37.9395C39.9573 42.6754 41.5991 41.0337 41.5991 39.0155C41.5991 35.513 41.5991 31.5854 41.5991 28.8469C41.5991 27.0751 40.1576 25.6334 38.3856 25.6334ZM14.651 2.23243V5.85756C14.651 7.01112 13.7124 7.95009 12.5585 7.95009H9.43359C14.4639 2.36866 14.1918 2.547 14.651 2.23243ZM34.6615 44.5123C34.6615 45.3498 33.98 46.0313 33.1425 46.0313H9.96973C9.1322 46.0313 8.45068 45.3498 8.45068 44.5123C8.45398 8.46389 8.44299 10.0327 8.45947 9.82509H12.5585C14.7462 9.82509 16.526 8.04531 16.526 5.85756V1.78125H33.1425C33.9804 1.78125 34.6615 2.46277 34.6615 3.3003V30.6413H23.7188C22.5092 30.6413 21.5252 31.6253 21.5252 32.8349V40.4818C21.5252 41.6914 22.5092 42.6754 23.7188 42.6754H34.6615V44.5123ZM39.7241 39.0155C39.7241 39.9998 38.9235 40.8004 37.9395 40.8004C35.7525 40.8004 25.756 40.8004 23.7188 40.8004C23.543 40.8004 23.4002 40.6576 23.4002 40.4818V32.8349C23.4002 32.6595 23.543 32.5163 23.7188 32.5163C39.7094 32.5163 38.7708 32.6401 39.7241 32.1666V39.0155ZM39.7241 29.1468C39.7241 29.9711 39.0539 30.6413 38.2299 30.6413H36.5366V27.5084H38.3856C39.1235 27.5084 39.7241 28.1089 39.7241 28.8472V29.1468Z" fill="#313131"/>
<path d="M30.0306 15.8008H30.0281C29.5106 15.8008 29.092 16.2205 29.092 16.7383C29.092 17.2561 29.5128 17.6758 30.0306 17.6758C30.5485 17.6758 30.9681 17.2561 30.9681 16.7383C30.9681 16.2205 30.5481 15.8008 30.0306 15.8008Z" fill="#313131"/>
<path d="M12.8733 17.6758H26.2807C26.7981 17.6758 27.2182 17.2561 27.2182 16.7383C27.2182 16.2205 26.7981 15.8008 26.2807 15.8008H12.8733C12.3555 15.8008 11.9358 16.2205 11.9358 16.7383C11.9358 17.2561 12.3555 17.6758 12.8733 17.6758Z" fill="#313131"/>
<path d="M12.8733 22.9224H30.0307C30.5481 22.9224 30.9682 22.5027 30.9682 21.9849C30.9682 21.467 30.5481 21.0474 30.0307 21.0474H12.8733C12.3555 21.0474 11.9358 21.467 11.9358 21.9849C11.9358 22.5027 12.3555 22.9224 12.8733 22.9224Z" fill="#313131"/>
<path d="M30.9682 27.2315C30.9682 26.7136 30.5481 26.2939 30.0307 26.2939H12.8733C12.3555 26.2939 11.9358 26.7136 11.9358 27.2315C11.9358 27.7493 12.3555 28.169 12.8733 28.169H30.0307C30.5481 28.169 30.9682 27.7493 30.9682 27.2315Z" fill="#313131"/>
</g>
<defs>
<clipPath id="clip0">
<rect width="48" height="48" fill="white"/>
</clipPath>
</defs>
</svg>
