<svg width="32" height="32" viewBox="0 0 32 32" fill="none" xmlns="http://www.w3.org/2000/svg">
<path d="M12.3438 6.6875C12.3438 6.42862 12.1339 6.21875 11.875 6.21875H8.5C8.24112 6.21875 8.03125 6.42862 8.03125 6.6875V9.8125C8.03125 10.0714 8.24112 10.2812 8.5 10.2812H11.875C12.1339 10.2812 12.3438 10.0714 12.3438 9.8125V6.6875ZM11.4062 9.34375H8.96875V7.15625H11.4062V9.34375Z" fill="#9D9D9D"/>
<path d="M23.9688 6.6875C23.9688 6.42862 23.7589 6.21875 23.5 6.21875H20.125C19.8661 6.21875 19.6562 6.42862 19.6562 6.6875V9.8125C19.6562 10.0714 19.8661 10.2812 20.125 10.2812H23.5C23.7589 10.2812 23.9688 10.0714 23.9688 9.8125V6.6875ZM23.0312 9.34375H20.5938V7.15625H23.0312V9.34375Z" fill="#9D9D9D"/>
<path d="M18.1562 6.6875C18.1562 6.42862 17.9464 6.21875 17.6875 6.21875H14.3125C14.0536 6.21875 13.8438 6.42862 13.8438 6.6875V9.8125C13.8438 10.0714 14.0536 10.2812 14.3125 10.2812H17.6875C17.9464 10.2812 18.1562 10.0714 18.1562 9.8125V6.6875ZM17.2188 9.34375H14.7812V7.15625H17.2188V9.34375Z" fill="#9D9D9D"/>
<path d="M12.3438 12.0625C12.3438 11.8036 12.1339 11.5938 11.875 11.5938H8.5C8.24112 11.5938 8.03125 11.8036 8.03125 12.0625V15.1875C8.03125 15.4464 8.24112 15.6562 8.5 15.6562H11.875C12.1339 15.6562 12.3438 15.4464 12.3438 15.1875V12.0625ZM11.4062 14.7188H8.96875V12.5312H11.4062V14.7188Z" fill="#9D9D9D"/>
<path d="M23.9688 12.0625C23.9688 11.8036 23.7589 11.5938 23.5 11.5938H20.125C19.8661 11.5938 19.6562 11.8036 19.6562 12.0625V15.1875C19.6562 15.4464 19.8661 15.6562 20.125 15.6562H23.5C23.7589 15.6562 23.9688 15.4464 23.9688 15.1875V12.0625ZM23.0312 14.7188H20.5938V12.5312H23.0312V14.7188Z" fill="#9D9D9D"/>
<path d="M18.1562 12.0625C18.1562 11.8036 17.9464 11.5938 17.6875 11.5938H14.3125C14.0536 11.5938 13.8438 11.8036 13.8438 12.0625V15.1875C13.8438 15.4464 14.0536 15.6562 14.3125 15.6562H17.6875C17.9464 15.6562 18.1562 15.4464 18.1562 15.1875V12.0625ZM17.2188 14.7188H14.7812V12.5312H17.2188V14.7188Z" fill="#9D9D9D"/>
<path d="M11.875 17.0312H8.5C8.24112 17.0312 8.03125 17.2411 8.03125 17.5V20.625C8.03125 20.8839 8.24112 21.0938 8.5 21.0938H11.875C12.1339 21.0938 12.3438 20.8839 12.3438 20.625V17.5C12.3438 17.2411 12.1339 17.0312 11.875 17.0312ZM11.4062 20.1562H8.96875V17.9688H11.4062V20.1562Z" fill="#9D9D9D"/>
<path d="M23.5 17.0312H20.125C19.8661 17.0312 19.6562 17.2411 19.6562 17.5V20.625C19.6562 20.8839 19.8661 21.0938 20.125 21.0938H23.5C23.7589 21.0938 23.9688 20.8839 23.9688 20.625V17.5C23.9688 17.2411 23.7589 17.0312 23.5 17.0312ZM23.0312 20.1562H20.5938V17.9688H23.0312V20.1562Z" fill="#9D9D9D"/>
<path d="M17.6875 17.0312H14.3125C14.0536 17.0312 13.8438 17.2411 13.8438 17.5V20.625C13.8438 20.8839 14.0536 21.0938 14.3125 21.0938H17.6875C17.9464 21.0938 18.1562 20.8839 18.1562 20.625V17.5C18.1562 17.2411 17.9464 17.0312 17.6875 17.0312ZM17.2188 20.1562H14.7812V17.9688H17.2188V20.1562Z" fill="#9D9D9D"/>
<path d="M30.5312 27.2188H26.2812V4.1875C26.2812 3.92862 26.0714 3.71875 25.8125 3.71875H24.0241C23.7652 3.71875 23.5553 3.92862 23.5553 4.1875C23.5553 4.44638 23.7652 4.65625 24.0241 4.65625H25.3438V27.2188H22.1562V22.6875C22.1562 22.4286 21.9464 22.2188 21.6875 22.2188H18.5144C18.2556 22.2188 18.0457 22.4286 18.0457 22.6875C18.0457 22.9464 18.2556 23.1562 18.5144 23.1562H19.0938V27.2188H12.9062V23.1562H16.4952C16.7541 23.1562 16.9639 22.9464 16.9639 22.6875C16.9639 22.4286 16.7541 22.2188 16.4952 22.2188H10.3125C10.0536 22.2188 9.84375 22.4286 9.84375 22.6875V27.2188H6.65625V24.2484C6.65625 23.9895 6.44637 23.7796 6.1875 23.7796C5.92863 23.7796 5.71875 23.9895 5.71875 24.2484V27.2188H1.46875C0.658875 27.2188 0 27.8776 0 28.6875C0 29.4974 0.658875 30.1562 1.46875 30.1562H30.5312C31.3411 30.1562 32 29.4974 32 28.6875C32 27.8776 31.3411 27.2188 30.5312 27.2188ZM20.0312 23.1562H21.2188V27.2188H20.0312V23.1562ZM10.7812 23.1562H11.9688V27.2188H10.7812V23.1562ZM30.5312 29.2188H1.46875C1.17581 29.2188 0.9375 28.9804 0.9375 28.6875C0.9375 28.3946 1.17581 28.1562 1.46875 28.1562H30.5312C30.8242 28.1562 31.0625 28.3946 31.0625 28.6875C31.0625 28.9804 30.8242 29.2188 30.5312 29.2188Z" fill="#9D9D9D"/>
<path d="M6.1875 22.73C6.44638 22.73 6.65625 22.5201 6.65625 22.2612V4.65625H21.9471C22.206 4.65625 22.4159 4.44637 22.4159 4.1875C22.4159 3.92863 22.206 3.71875 21.9471 3.71875H12.4688V2.3125C12.4688 2.05362 12.2589 1.84375 12 1.84375H8.25C7.99113 1.84375 7.78125 2.05362 7.78125 2.3125V3.71875H6.1875C5.92862 3.71875 5.71875 3.92863 5.71875 4.1875V22.2612C5.71875 22.5201 5.92862 22.73 6.1875 22.73ZM8.71875 2.78125H11.5312V3.71875H8.71875V2.78125Z" fill="#9D9D9D"/>
</svg>
