<svg width="32" height="32" viewBox="0 0 32 32" fill="none" xmlns="http://www.w3.org/2000/svg">
<g clip-path="url(#clip0)">
<path d="M14.5303 24.3952C14.2864 24.6389 14.2864 25.0346 14.5303 25.2787C14.7747 25.5226 15.1702 25.5226 15.4139 25.2787C15.6583 25.0346 15.6583 24.6389 15.4139 24.3952C15.1702 24.1508 14.7747 24.1508 14.5303 24.3952Z" fill="#9D9D9D"/>
<path d="M30.5583 23.3098L25.8132 19.2749C25.7912 19.2564 25.768 19.2393 25.7438 19.2239C24.499 18.4314 22.9006 18.6069 21.8569 19.6504L19.2697 22.2373C19.0905 22.4168 18.8232 22.4697 18.5888 22.3731C15.6674 21.1646 13.2675 19.3452 11.4558 16.9661C10.0742 15.1519 9.57611 13.7102 9.51044 13.5071C9.50263 13.4636 9.49017 13.4204 9.4726 13.3782C9.37567 13.1438 9.42865 12.877 9.60834 12.6978L12.1953 10.1101C13.239 9.06641 13.4142 7.46803 12.6218 6.22315C12.6154 6.21314 12.6088 6.20338 12.602 6.19361L9.17523 1.43165C8.09711 -0.240959 5.74872 -0.493644 4.3393 0.915536L3.82123 1.4336C3.82099 1.43409 3.8205 1.43458 3.82001 1.43482L1.9704 3.28443C-0.235166 5.49024 -0.596006 8.8047 0.927187 12.8701C2.23187 16.3525 4.84369 20.1638 8.28143 23.6016C11.8005 27.1206 15.7148 29.7808 19.3032 31.092C22.8549 32.3897 26.633 32.5496 29.3071 29.8753L31.0515 28.1311C32.4545 26.7278 32.2097 24.3948 30.5583 23.3098ZM25.0388 20.2568L29.7797 24.2883C29.8015 24.3069 29.8246 24.324 29.8488 24.3394C30.8615 24.9841 31.0148 26.4002 30.1674 27.2473L30.038 27.377L21.9518 21.3228L22.7407 20.5342C23.3571 19.9175 24.2966 19.8059 25.0388 20.2568ZM8.13104 2.11842C8.13739 2.12843 8.14398 2.13844 8.15082 2.14796L11.5761 6.90821C12.0414 7.65308 11.9338 8.60401 11.3115 9.22633L10.5471 9.99098L5.07636 1.94605L5.22308 1.79932C6.07391 0.948494 7.48871 1.10938 8.13104 2.11842ZM19.7319 29.918C16.311 28.668 12.5583 26.1108 9.16522 22.7178C5.85077 19.4036 3.34076 15.7505 2.09735 12.4316C1.164 9.94044 0.537783 6.48463 2.85419 4.16847L4.1767 2.84571L9.6474 10.8906L8.72479 11.8137C8.19989 12.3377 8.03485 13.113 8.29681 13.8035C8.49408 14.613 9.4018 16.2935 10.3176 17.5317C11.6652 19.354 14.1113 21.8733 18.111 23.5281C18.8139 23.8189 19.6154 23.6592 20.1535 23.1213L21.059 22.2156L29.1452 28.2698L28.4233 28.9915C25.9401 31.4749 22.3264 30.866 19.7319 29.918Z" fill="#9D9D9D"/>
<path d="M13.3574 22.9024C12.6972 22.3236 11.5554 21.328 10.9541 20.7093C9.47947 19.1939 7.93235 17.357 7.01243 16.0299C6.8159 15.7462 6.4265 15.6754 6.1428 15.8722C5.85911 16.0687 5.78856 16.4581 5.98509 16.7418C7.14525 18.4156 8.84983 20.339 10.0581 21.5806C10.6929 22.234 11.8445 23.2384 12.5332 23.8421C12.7922 24.0692 13.187 24.0443 13.4153 23.7843C13.6428 23.525 13.6169 23.13 13.3574 22.9024Z" fill="#9D9D9D"/>
</g>
<defs>
<clipPath id="clip0">
<rect width="32" height="32" fill="white"/>
</clipPath>
</defs>
</svg>
