<svg width="32" height="32" viewBox="0 0 32 32" fill="none" xmlns="http://www.w3.org/2000/svg">
<g clip-path="url(#clip0)">
<path d="M25.6 5.33333H19.7333V4.26667H24C24.5891 4.26667 25.0667 3.7891 25.0667 3.2V1.06667C25.0667 0.477563 24.5891 0 24 0H19.7333C19.1442 0 18.6667 0.477563 18.6667 1.06667V5.33333H10.6667C7.53874 5.31806 4.86414 7.57969 4.35947 10.6667H1.6C0.716344 10.6667 0 11.383 0 12.2667V19.7333C0 20.617 0.716344 21.3333 1.6 21.3333H16V30.9333C16.035 31.554 16.5641 32.0303 17.1851 32H21.7483C22.3692 32.0303 22.8983 31.554 22.9333 30.9333V21.3333H30.9333C31.5224 21.3333 32 20.8558 32 20.2667V11.7333C31.9962 8.2003 29.133 5.33715 25.6 5.33333ZM19.7333 1.06667H24V3.2H19.7333V1.06667ZM10.6667 6.4C13.6108 6.40323 15.9968 8.78916 16 11.7333V20.2667H14.8352C14.8984 20.0959 14.9316 19.9154 14.9333 19.7333V12.2667C14.9333 11.383 14.217 10.6667 13.3333 10.6667H5.44C5.93479 8.17578 8.12715 6.38609 10.6667 6.4ZM5.18453 16.1659L1.06667 19.6512V12.6811L5.18453 16.1659ZM6.01013 16.8645L6.43307 17.2219C7.03051 17.7233 7.90176 17.7233 8.4992 17.2219L8.92587 16.8635L12.9435 20.2667H1.98987L6.01013 16.8645ZM13.8667 12.6811V19.6512L9.7488 16.1659L13.8667 12.6811ZM13.3333 11.7333L7.80907 16.4101C7.61076 16.5766 7.32151 16.5766 7.1232 16.4101L1.6 11.7333H13.3333ZM21.8779 30.8917C21.8416 30.9217 21.7952 30.9365 21.7483 30.9333H17.1851C17.1492 30.9309 17.1136 30.9259 17.0784 30.9184C17.072 30.9184 17.0683 30.9184 17.0672 30.9253V21.3333H18.6672V29.3333C18.6672 29.6279 18.906 29.8667 19.2005 29.8667C19.4951 29.8667 19.7339 29.6279 19.7339 29.3333V21.3333H21.8672L21.8779 30.8917ZM30.9333 20.2667H17.0667V11.7333C17.065 9.58677 15.9873 7.58401 14.1968 6.4H25.6C28.5442 6.40323 30.9301 8.78916 30.9333 11.7333V20.2667Z" fill="#9D9D9D"/>
<path d="M24.5332 14.9336C23.9441 14.9336 23.4666 15.4112 23.4666 16.0003V18.1336C23.4666 18.7227 23.9441 19.2003 24.5332 19.2003H28.7999C29.389 19.2003 29.8665 18.7227 29.8665 18.1336V16.0003C29.8665 15.4112 29.389 14.9336 28.7999 14.9336H24.5332ZM24.5332 18.1336V16.0003H28.7999V18.1336H24.5332Z" fill="#9D9D9D"/>
<path d="M5.86659 13.8665H9.06659C9.36114 13.8665 9.59992 13.6277 9.59992 13.3331C9.59992 13.0386 9.36114 12.7998 9.06659 12.7998H5.86659C5.57203 12.7998 5.33325 13.0386 5.33325 13.3331C5.33325 13.6277 5.57203 13.8665 5.86659 13.8665Z" fill="#9D9D9D"/>
</g>
<defs>
<clipPath id="clip0">
<rect width="32" height="32" fill="white"/>
</clipPath>
</defs>
</svg>
