<svg width="32" height="32" viewBox="0 0 32 32" fill="none" xmlns="http://www.w3.org/2000/svg">
<path d="M16 0C7.1776 0 0 7.1776 0 16C0 24.8224 7.1776 32 16 32C24.8224 32 32 24.8224 32 16C32 7.1776 24.8224 0 16 0ZM16 30.75C7.86684 30.75 1.25 24.1332 1.25 16C1.25 7.86684 7.86684 1.25 16 1.25C24.1332 1.25 30.75 7.86684 30.75 16C30.75 24.1332 24.1332 30.75 16 30.75Z" fill="#9D9D9D"/>
<path d="M16 3.75C9.24535 3.75 3.75 9.24535 3.75 16C3.75 22.7547 9.24535 28.25 16 28.25C22.7547 28.25 28.25 22.7547 28.25 16C28.25 9.24535 22.7547 3.75 16 3.75ZM16.625 26.9819V25.7501C16.625 25.4049 16.3452 25.1251 16 25.1251C15.6548 25.1251 15.375 25.4049 15.375 25.7501V26.9819C9.80623 26.6684 5.33162 22.1938 5.01812 16.625H6.24999C6.59518 16.625 6.87499 16.3452 6.87499 16C6.87499 15.6548 6.59518 15.375 6.24999 15.375H5.01812C5.33162 9.80623 9.80623 5.33168 15.375 5.01818V6.24999C15.375 6.59518 15.6548 6.87499 16 6.87499C16.3452 6.87499 16.625 6.59518 16.625 6.24999V5.01818C22.1938 5.33168 26.6684 9.80623 26.9819 15.375H25.75C25.4049 15.375 25.125 15.6548 25.125 16C25.125 16.3452 25.4049 16.625 25.75 16.625H26.9819C26.6684 22.1938 22.1938 26.6684 16.625 26.9819Z" fill="#9D9D9D"/>
<path d="M10.5748 7.85248C10.6877 8.06211 10.9029 8.18111 11.1254 8.18111C11.2255 8.18111 11.327 8.15699 11.4213 8.10624C11.7252 7.94255 11.8389 7.5633 11.6752 7.25942C11.5115 6.95554 11.1325 6.84186 10.8285 7.00548C10.5247 7.16911 10.4109 7.54817 10.5746 7.85211L10.5748 7.85248Z" fill="#9D9D9D"/>
<path d="M7.25947 11.6754L7.25984 11.6755C7.35409 11.7263 7.45547 11.7504 7.55547 11.7504C7.77797 11.7504 7.99334 11.6312 8.10628 11.4215C8.2699 11.1175 8.15603 10.7384 7.85209 10.5748C7.54822 10.4112 7.16915 10.5249 7.00547 10.8287C6.84184 11.1327 6.95559 11.5117 7.25947 11.6754Z" fill="#9D9D9D"/>
<path d="M7.25945 20.3248C6.95557 20.4885 6.84182 20.8675 7.00551 21.1715C7.11838 21.3811 7.33382 21.5003 7.55632 21.5003C7.65639 21.5003 7.75782 21.4762 7.85207 21.4255L7.85245 21.4253C8.15633 21.2617 8.26989 20.8827 8.10626 20.5788C7.9427 20.2748 7.56345 20.1612 7.25945 20.3248Z" fill="#9D9D9D"/>
<path d="M11.421 23.8931C11.1172 23.7295 10.738 23.8434 10.5744 24.1473C10.4107 24.4512 10.5244 24.8303 10.8283 24.9939C10.9225 25.0447 11.024 25.0687 11.124 25.0687C11.3465 25.0687 11.562 24.9496 11.6749 24.7399L11.675 24.7396C11.8388 24.4356 11.725 24.0567 11.421 23.8931Z" fill="#9D9D9D"/>
<path d="M21.4074 24.1157C21.2265 23.8217 20.8417 23.7303 20.5477 23.9112C20.2537 24.0922 20.1622 24.4774 20.3431 24.7713C20.4612 24.9631 20.6661 25.0688 20.876 25.0688C20.9877 25.0688 21.1009 25.0389 21.203 24.976C21.497 24.7951 21.5886 24.4101 21.4077 24.1161L21.4074 24.1157Z" fill="#9D9D9D"/>
<path d="M24.7404 20.325L24.7401 20.3248C24.4362 20.1612 24.0573 20.275 23.8936 20.5789C23.73 20.8828 23.8439 21.2619 24.1478 21.4255C24.2421 21.4763 24.3435 21.5003 24.4436 21.5003C24.6661 21.5003 24.8815 21.3812 24.9944 21.1715C25.1581 20.8677 25.0443 20.4886 24.7404 20.325Z" fill="#9D9D9D"/>
<path d="M24.1479 10.5748L24.1475 10.575C23.8436 10.7386 23.7301 11.1175 23.8937 11.4215C24.0066 11.6311 24.222 11.7502 24.4446 11.7502C24.5447 11.7502 24.6463 11.7261 24.7405 11.6753C25.0444 11.5117 25.1581 11.1327 24.9944 10.8287C24.8309 10.5249 24.4519 10.4112 24.1479 10.5748Z" fill="#9D9D9D"/>
<path d="M21.2029 7.02348C20.9088 6.84254 20.524 6.93423 20.343 7.22817L20.3428 7.22854C20.1618 7.52254 20.2537 7.90729 20.5476 8.08823C20.6497 8.15104 20.7627 8.18098 20.8744 8.18098C21.0843 8.18098 21.2895 8.07516 21.4075 7.88329C21.5885 7.58935 21.4968 7.20436 21.2029 7.02348Z" fill="#9D9D9D"/>
<path d="M17.0817 16.6233C17.1882 16.4394 17.2502 16.2269 17.2502 15.9999C17.2502 15.5391 16.9981 15.1362 16.6252 14.9194V8.75C16.6252 8.40481 16.3454 8.125 16.0002 8.125C15.6551 8.125 15.3752 8.40481 15.3752 8.75V14.9194C15.0024 15.1362 14.7502 15.5391 14.7502 15.9999C14.7502 16.6884 15.3117 17.2499 16.0002 17.2499L18.1464 20.9673C18.2622 21.1678 18.4722 21.2798 18.6882 21.2798C18.7942 21.2798 18.9017 21.2528 19.0002 21.196C19.2991 21.0234 19.4016 20.6412 19.2289 20.3423L17.0817 16.6233Z" fill="#9D9D9D"/>
</svg>
