<svg width="193" height="169" viewBox="0 0 193 169" fill="none" xmlns="http://www.w3.org/2000/svg">
<path d="M147.996 82.2834C130.305 82.2834 115.913 67.8909 115.913 50.2C115.913 32.5092 130.305 18.1167 147.996 18.1167C165.687 18.1167 180.079 32.5092 180.079 50.2C180.079 67.8909 165.687 82.2834 147.996 82.2834ZM147.996 23.95C133.522 23.95 121.746 35.7257 121.746 50.2C121.746 64.6743 133.522 76.45 147.996 76.45C162.47 76.45 174.246 64.6743 174.246 50.2C174.246 35.7257 162.47 23.95 147.996 23.95Z" fill="#FFF099"/>
<path d="M54.4063 73.929C62.4605 73.929 68.9897 67.3998 68.9897 59.3457C68.9897 51.2915 62.4605 44.7623 54.4063 44.7623C46.3522 44.7623 39.823 51.2915 39.823 59.3457C39.823 67.3998 46.3522 73.929 54.4063 73.929Z" fill="#FFBA5F"/>
<path d="M31.9908 91.4032L17.4074 105.987L22.4164 110.996L36.9998 96.4121L31.9908 91.4032Z" fill="#FF9C9C"/>
<path d="M188.729 92.1823L158.303 122.609L161.838 126.144L192.265 95.7174L188.729 92.1823Z" fill="#C2ECFF"/>
<path d="M169.636 85.4449L157.136 97.9449L159.788 100.596L172.288 88.0963L169.636 85.4449Z" fill="#7D74ED"/>
<path d="M8.67238 60.3955L2.83905 54.5622C-0.94635 50.7772 -0.94635 44.6183 2.83905 40.8333C4.67255 38.9994 7.11029 37.9899 9.70347 37.9899C12.2962 37.9899 14.7344 38.9994 16.5679 40.8333C17.8509 42.1159 19.5562 42.8223 21.3701 42.8223C23.1841 42.8223 24.8894 42.1159 26.1724 40.8333C28.8197 38.1852 28.8197 33.877 26.1724 31.2288C24.3385 29.3953 23.329 26.9576 23.329 24.3644C23.329 21.7712 24.3385 19.3335 26.1724 17.5C28.0059 15.6661 30.4436 14.6566 33.0368 14.6566C35.6296 14.6566 38.0677 15.6661 39.9012 17.5C41.1842 18.7826 42.8895 19.4889 44.7035 19.4889C46.5174 19.4889 48.2228 18.7826 49.5057 17.5C52.153 14.8519 52.153 10.5436 49.5057 7.89551L43.6724 2.06218L45.7346 0L51.5679 5.83333C55.3525 9.61833 55.3525 15.7772 51.5679 19.5622C49.7344 21.3961 47.2962 22.4056 44.7035 22.4056C42.1103 22.4056 39.6725 21.3961 37.8391 19.5622C36.5561 18.2796 34.8508 17.5732 33.0368 17.5732C31.2228 17.5732 29.5175 18.2796 28.2346 19.5622C25.5869 22.2103 25.5869 26.5186 28.2346 29.1667C32.0191 32.9517 32.0191 39.1105 28.2346 42.8955C26.4011 44.7294 23.9629 45.7389 21.3701 45.7389C18.777 45.7389 16.3392 44.7294 14.5057 42.8955C13.2228 41.613 11.5174 40.9066 9.70347 40.9066C7.88951 40.9066 6.18418 41.613 4.90123 42.8955C2.25352 45.5436 2.25352 49.8519 4.90123 52.5L10.7346 58.3333L8.67238 60.3955Z" fill="#D08CED"/>
<path d="M127.203 152.283V143.328C134.924 136.621 139.806 126.731 139.806 115.701V113.866C139.806 100.532 132.672 88.8666 122.013 82.4734L127.203 77.2834H129.443C139.69 77.2834 147.996 68.3983 147.996 57.438V52.2834H135.309C133.981 43.8491 127.32 37.188 118.886 35.86V14.7834L110.553 23.7114V10.6167L98.9674 23.0288C91.1074 31.4496 86.4567 42.0189 85.6722 53.0947C85.5858 53.8453 85.5365 54.6072 85.5365 55.3809V77.2834V101.137C67.9375 113.05 56.3699 133.2 56.3699 156.053V156.45L27.2032 127.283V146.99C27.2032 159.118 37.0351 168.95 49.1633 168.95H56.3699H68.8699H127.203H131.37V156.45L127.203 152.283Z" fill="#E85869"/>
<path d="M134.169 48.1167C131.684 41.8353 126.076 37.134 119.257 35.9262L110.593 35.6167L113.034 38.0575C116.491 41.5141 118.554 46.1001 118.877 50.9477C122.677 49.1342 126.93 48.1167 131.421 48.1167H134.169Z" fill="#F78F85"/>
<path d="M134.169 48.1167H131.421C126.929 48.1167 122.676 49.1342 118.877 50.9477C109.05 55.6377 102.26 65.6636 102.26 77.2775H110.537H118.87H118.926V68.0265C118.926 59.3351 125.972 52.2893 134.664 52.2893H143.926V52.2834H135.35H135.309C135.081 50.8356 134.693 49.442 134.169 48.1167Z" fill="#CE2E63"/>
<path d="M143.926 53.628V52.2892H134.664C125.972 52.2892 118.926 59.335 118.926 68.0264V77.2774H129.483C129.803 77.2774 130.122 77.2687 130.438 77.2515C130.554 77.2452 130.67 77.2346 130.785 77.2259C130.92 77.2156 131.054 77.2065 131.188 77.1932C131.306 77.1816 131.423 77.1674 131.541 77.1535C131.699 77.1345 131.856 77.1126 132.013 77.0894C132.18 77.0651 132.345 77.0374 132.51 77.0084C132.688 76.9768 132.866 76.9439 133.042 76.9069C133.145 76.8855 133.247 76.8619 133.35 76.8387C133.562 76.7901 133.773 76.7389 133.982 76.6826C134.158 76.6357 134.33 76.5818 134.504 76.5296C134.898 76.4103 135.288 76.2799 135.671 76.1339C135.736 76.109 135.803 76.0854 135.868 76.0597C142.948 73.2638 147.996 65.982 147.996 57.4379V56.45H146.748C145.19 56.4499 143.926 55.1865 143.926 53.628Z" fill="#A31952"/>
<path d="M143.927 53.6279C143.927 55.1864 145.19 56.4499 146.748 56.4499H147.996V52.2832H143.927V52.2891V53.6279Z" fill="#F78F85"/>
<path d="M110.553 10.6602L99.0079 23.0289C98.53 23.5411 98.0647 24.0618 97.6106 24.5895C97.5646 24.643 97.52 24.6974 97.4745 24.7511C97.1038 25.1853 96.7431 25.6257 96.3886 26.0699C96.2847 26.2005 96.1803 26.3307 96.0776 26.4623C95.7398 26.8941 95.4105 27.3308 95.0882 27.7715C94.9533 27.9563 94.8211 28.1427 94.689 28.329C94.4376 28.6826 94.1908 29.0388 93.9493 29.3976C93.7702 29.6644 93.5947 29.933 93.4211 30.2026C93.2836 30.4155 93.1493 30.63 93.0152 30.8448C92.3377 31.9323 91.7028 33.0408 91.1136 34.1693C91.0798 34.2343 91.0458 34.2993 91.0123 34.3645L110.553 14.824V10.6602Z" fill="#FFBD99"/>
<path d="M110.593 27.2209L118.87 18.9441V19.0066L118.886 18.9905V14.8267L110.593 23.7113V27.2209Z" fill="#CE2E63"/>
<path d="M110.593 27.2209L110.537 27.2774V35.6108L119.23 35.9212C119.115 35.9011 119.001 35.8781 118.886 35.86V35.851C118.881 35.8501 118.875 35.849 118.87 35.8482V19.0066V18.9441L110.593 27.2209Z" fill="#A31952"/>
<path d="M125.718 85.0192L104.293 106.444C104.417 117.974 113.798 127.283 125.357 127.283H137.932C139.146 123.643 139.806 119.749 139.806 115.701V113.866C139.806 102.145 134.292 91.7139 125.718 85.0192Z" fill="#F78F85"/>
<path d="M136.843 130.144L114.703 152.283V168.95H123.037L131.37 160.617V156.45L127.203 152.283L123.037 148.117L127.203 143.95V143.328C131.333 139.74 134.65 135.24 136.843 130.144Z" fill="#CE2E63"/>
<path d="M127.203 168.95H131.37V160.617L123.037 168.95H127.203Z" fill="#F78F85"/>
<path d="M67.1846 131.45H64.7033V123.871C59.3981 133.401 56.3699 144.372 56.3699 156.053V156.45V160.617L64.7033 168.95H68.8699H98.0366V162.302C98.0366 145.263 84.2237 131.45 67.1846 131.45Z" fill="#CE2E63"/>
<path d="M43.3643 151.778L27.2032 135.617V146.99C27.2032 159.118 37.0352 168.95 49.1633 168.95H51.9084C51.0074 162.486 48.0321 156.446 43.3643 151.778Z" fill="#A31952"/>
<path d="M56.3699 168.95H64.7033L56.3699 160.617V168.95Z" fill="#A31952"/>
<path d="M127.203 152.284V143.95L123.037 148.117L127.203 152.284Z" fill="#A31952"/>
<path d="M70.7911 114.783H72.3292C84.2257 114.783 93.8699 105.139 93.8699 93.2426V81.45L85.5366 73.1167V77.2834V92.8656L89.7032 97.0323L85.5366 101.199V101.137C79.9549 104.915 74.9828 109.524 70.7911 114.783Z" fill="#F78F85"/>
<path d="M122.013 82.4734L104.287 100.2V106.213V106.45L104.293 106.444L125.718 85.0192C124.538 84.0982 123.302 83.2465 122.013 82.4734Z" fill="#FFBD99"/>
<path d="M89.7032 97.0324L85.5366 92.8657V101.137V101.199L89.7032 97.0324Z" fill="#A31952"/>
</svg>
