<svg width="199" height="166" viewBox="0 0 199 166" fill="none" xmlns="http://www.w3.org/2000/svg">
<path d="M32.0832 154.167C49.774 154.167 64.1665 139.774 64.1665 122.083C64.1665 104.392 49.774 90 32.0832 90C14.3923 90 -0.000160217 104.392 -0.000160217 122.083C-0.000160217 139.774 14.3923 154.167 32.0832 154.167ZM32.0832 95.8333C46.5575 95.8333 58.3332 107.609 58.3332 122.083C58.3332 136.558 46.5575 148.333 32.0832 148.333C17.6089 148.333 5.83317 136.558 5.83317 122.083C5.83317 107.609 17.6089 95.8333 32.0832 95.8333Z" fill="white"/>
<path d="M137.583 29.1667C129.529 29.1667 123 22.6375 123 14.5833C123 6.52918 129.529 0 137.583 0C145.637 0 152.167 6.52918 152.167 14.5833C152.167 22.6375 145.637 29.1667 137.583 29.1667Z" fill="#FFBA5F"/>
<path d="M173.583 35.9998L159 50.5835L164.008 55.5926L178.592 41.0089L173.583 35.9998Z" fill="#FF9C9C"/>
<path d="M60.4168 18.9999L23 56.416L26.5352 59.9512L63.952 22.5351L60.4168 18.9999Z" fill="#C2ECFF"/>
<path d="M35.5001 21L23 33.5L25.6514 36.1514L38.1515 23.6513L35.5001 21Z" fill="#7D74ED"/>
<path d="M152.672 150.396L146.839 144.562C143.054 140.777 143.054 134.618 146.839 130.833C148.673 128.999 151.11 127.99 153.703 127.99C156.296 127.99 158.734 128.999 160.568 130.833C161.851 132.116 163.556 132.822 165.37 132.822C167.184 132.822 168.889 132.116 170.172 130.833C172.82 128.185 172.82 123.877 170.172 121.229C168.338 119.395 167.329 116.958 167.329 114.364C167.329 111.771 168.338 109.333 170.172 107.5C172.006 105.666 174.444 104.657 177.037 104.657C179.63 104.657 182.068 105.666 183.901 107.5C185.184 108.783 186.89 109.489 188.703 109.489C190.517 109.489 192.223 108.783 193.506 107.5C196.153 104.852 196.153 100.544 193.506 97.8955L187.672 92.0622L189.735 90L195.568 95.8333C199.352 99.6183 199.352 105.777 195.568 109.562C193.734 111.396 191.296 112.406 188.703 112.406C186.11 112.406 183.673 111.396 181.839 109.562C180.556 108.28 178.851 107.573 177.037 107.573C175.223 107.573 173.518 108.28 172.235 109.562C169.587 112.21 169.587 116.519 172.235 119.167C176.019 122.952 176.019 129.111 172.235 132.896C170.401 134.729 167.963 135.739 165.37 135.739C162.777 135.739 160.339 134.729 158.506 132.896C157.223 131.613 155.517 130.907 153.703 130.907C151.89 130.907 150.184 131.613 148.901 132.896C146.254 135.544 146.254 139.852 148.901 142.5L154.735 148.333L152.672 150.396Z" fill="#D08CED"/>
<path d="M67.381 165.833H74.5876H87.0876H132.921V162.561C132.921 151.707 126.239 142.418 116.767 138.568C124.151 131.549 128.754 121.633 128.754 110.642V104.358C128.754 104.016 128.749 103.674 128.741 103.333H157.921L164.171 97.0833L149.588 82.5H121.954C119.78 79.351 117.15 76.5409 114.159 74.1667H118.534C128.781 74.1667 137.088 65.2816 137.088 54.3213V49.1667H124.401C123.073 40.7324 116.412 34.0712 107.977 32.7433V11.6667L99.6441 20.5947V7.5L88.0589 19.9121C80.1989 28.3329 75.5483 38.9022 74.7638 49.978C74.6773 50.7286 74.6281 51.4905 74.6281 52.2642V65.8333H74.5876V136.667V149.167V153.333L45.4209 124.167V143.873C45.4209 156.001 55.2528 165.833 67.381 165.833Z" fill="#E85869"/>
<path d="M82.9209 74.166V115.833L74.5876 124.166V82.4993C79.19 82.4993 82.9209 78.7684 82.9209 74.166Z" fill="#CE2E63"/>
<path d="M128.754 82.5L143.338 97.0833H157.921V103.333H137.088H128.754H128.74H124.588H109.128L91.3108 82.5H121.954H128.754Z" fill="#CE2E63"/>
<path d="M107.928 47.831C107.605 42.9834 105.542 38.3974 102.085 34.9408L99.6441 32.5L108.358 32.8113C108.428 32.8236 108.497 32.8353 108.567 32.8483C108.907 32.9126 109.245 32.9834 109.579 33.0648C109.672 33.0876 109.763 33.1137 109.856 33.1377C110.137 33.2108 110.416 33.2898 110.693 33.3748C110.789 33.4044 110.886 33.4323 110.982 33.4633C111.307 33.5688 111.628 33.6837 111.945 33.8052C112.049 33.8449 112.151 33.8862 112.254 33.9275C112.56 34.0505 112.862 34.1787 113.16 34.3163C113.229 34.3482 113.297 34.3817 113.366 34.4145C113.646 34.548 113.923 34.6889 114.196 34.8351C114.287 34.884 114.378 34.9324 114.469 34.9827C114.766 35.1481 115.06 35.3206 115.347 35.5007C115.428 35.5514 115.508 35.604 115.588 35.6557C115.844 35.8212 116.096 35.9917 116.344 36.1685C116.398 36.2075 116.454 36.2445 116.508 36.284C116.79 36.4892 117.064 36.7036 117.334 36.923C117.408 36.9837 117.483 37.0449 117.557 37.1066C117.824 37.3311 118.088 37.5608 118.344 37.799C118.39 37.8422 118.435 37.8872 118.481 37.9308C118.714 38.152 118.941 38.3787 119.163 38.6108C119.212 38.6622 119.262 38.7126 119.31 38.7644C119.554 39.0253 119.791 39.2931 120.02 39.5668C120.07 39.6253 120.118 39.6848 120.166 39.7439C120.641 40.3237 121.085 40.9307 121.492 41.5629C121.526 41.6143 121.559 41.6652 121.592 41.7169C121.793 42.0343 121.985 42.3573 122.168 42.6865C122.189 42.7245 122.209 42.7632 122.23 42.8013C122.414 43.1396 122.591 43.4829 122.757 43.8329C122.759 43.8378 122.761 43.8425 122.764 43.8474C122.932 44.2045 123.088 44.5684 123.235 44.9368C123.244 44.9579 123.252 44.9789 123.26 45H120.472C115.98 45 111.727 46.0175 107.928 47.831Z" fill="#F78F85"/>
<path d="M123.715 49.1726C115.023 49.1726 107.978 56.2184 107.978 64.9098V74.1608H107.921H99.5876H91.3109C91.3109 62.5469 98.1014 52.521 107.928 47.831C111.728 46.0175 115.98 45 120.472 45H123.26C123.27 45.0249 123.28 45.0497 123.29 45.0747C123.407 45.3735 123.518 45.6751 123.62 45.9807C123.622 45.9855 123.623 45.9902 123.625 45.9949C123.733 46.3165 123.832 46.6422 123.923 46.9708C123.943 47.0416 123.96 47.1134 123.979 47.1846C124.043 47.424 124.102 47.6653 124.157 47.9083C124.18 48.0128 124.204 48.1172 124.226 48.2224C124.282 48.4906 124.332 48.7611 124.377 49.0332C124.384 49.078 124.394 49.1219 124.401 49.1667H132.978V49.1726H123.715Z" fill="#CE2E63"/>
<path d="M137.029 55.8173C137.009 56.1022 136.985 56.3856 136.954 56.667C136.941 56.7839 136.927 56.9004 136.912 57.0166C136.875 57.3075 136.832 57.5961 136.783 57.8828C136.768 57.9724 136.755 58.0627 136.738 58.1518C136.669 58.5297 136.592 58.9045 136.503 59.2744C136.351 59.9085 136.17 60.5303 135.962 61.1382C135.858 61.4422 135.747 61.7427 135.629 62.0394C135.588 62.1448 135.543 62.2483 135.499 62.3527C135.444 62.4859 135.389 62.6189 135.331 62.7505C135.271 62.8872 135.209 63.0227 135.146 63.1577C135.094 63.2688 135.041 63.3788 134.988 63.4887C134.92 63.6265 134.854 63.7647 134.783 63.9006C134.745 63.9747 134.704 64.047 134.665 64.1205C134.52 64.3926 134.37 64.661 134.213 64.9248C134.163 65.0101 134.113 65.0951 134.061 65.1794C133.973 65.3232 133.883 65.466 133.792 65.6071C133.748 65.6754 133.702 65.7423 133.657 65.81C133.467 66.0955 133.271 66.3757 133.067 66.6497C133.037 66.6902 133.008 66.7315 132.978 66.7717C132.867 66.9174 132.755 67.0607 132.641 67.2029C132.597 67.2583 132.552 67.3131 132.508 67.3681C132.131 67.829 131.735 68.2713 131.32 68.6931C131.287 68.7268 131.254 68.7608 131.221 68.7943C131.083 68.9328 130.943 69.0692 130.801 69.2033C130.777 69.226 130.752 69.2482 130.728 69.2708C130.276 69.6928 129.805 70.0921 129.316 70.4663C129.288 70.4876 129.26 70.5085 129.232 70.5296C128.726 70.9127 128.201 71.2698 127.659 71.5981C127.653 71.6013 127.648 71.6044 127.643 71.6076C127.46 71.7181 127.275 71.8253 127.088 71.9293C127.08 71.9339 127.072 71.9383 127.064 71.9429C126.504 72.2534 125.927 72.5343 125.336 72.7837C125.32 72.7901 125.305 72.7965 125.29 72.803C124.491 73.1373 123.665 73.4143 122.816 73.6288C122.809 73.6306 122.802 73.6323 122.795 73.6342C122.162 73.7931 121.517 73.9174 120.861 74.005C120.849 74.0068 120.836 74.0085 120.824 74.0101C120.383 74.0681 119.938 74.1098 119.489 74.1342C119.173 74.1514 118.854 74.1601 118.534 74.1601H107.977V64.9091C107.977 56.2177 115.023 49.1719 123.715 49.1719H132.977V50.5107C132.977 52.0692 134.241 53.3326 135.799 53.3326H137.087V54.3147C137.087 54.71 137.074 55.1019 137.053 55.4915C137.047 55.6006 137.037 55.7086 137.029 55.8173Z" fill="#A31952"/>
<path d="M132.978 50.5117V49.1729V49.167H137.088V53.3337H135.8C134.241 53.3337 132.978 52.0702 132.978 50.5117Z" fill="#F78F85"/>
<path d="M80.1645 31.0525C80.7537 29.924 81.3886 28.8155 82.0661 27.728C82.2002 27.5132 82.3345 27.2987 82.472 27.0858C82.6455 26.8162 82.8211 26.5475 83.0002 26.2808C83.2417 25.9219 83.4884 25.5658 83.7399 25.2122C83.8719 25.0258 84.0042 24.8395 84.1391 24.6546C84.4613 24.214 84.7907 23.7773 85.1285 23.3454C85.2312 23.2139 85.3356 23.0837 85.4395 22.9531C85.7939 22.5089 86.1547 22.0685 86.5253 21.6343C86.5709 21.5806 86.6155 21.5262 86.6615 21.4727C87.1156 20.945 87.5808 20.4243 88.0588 19.9121L99.644 7.5V11.6667L80.0632 31.2477C80.0967 31.1825 80.1307 31.1175 80.1645 31.0525Z" fill="#FFBD99"/>
<path d="M107.921 15.8268L99.6442 24.1036V20.594L107.978 11.666V15.8327L107.921 15.8892V15.8268Z" fill="#CE2E63"/>
<path d="M107.921 15.8896V32.7312C107.94 32.7342 107.959 32.7382 107.977 32.7413V32.743C108.096 32.7618 108.213 32.7854 108.331 32.8061L99.5876 32.4938V24.1605L99.6441 24.1039L107.921 15.8271V15.8896Z" fill="#A31952"/>
<path d="M103.754 132.5H121.953C120.941 133.965 119.831 135.358 118.631 136.667H112.087L103.754 145H126.05C129.317 148.535 131.607 152.984 132.501 157.919L124.587 165.833H87.0874L78.7541 157.5C78.7541 143.693 89.9469 132.5 103.754 132.5Z" fill="#CE2E63"/>
<path d="M61.5819 148.661C66.2496 153.329 69.2249 159.37 70.126 165.833H67.3808C55.2527 165.833 45.4208 156.001 45.4208 143.873V132.5L61.5819 148.661Z" fill="#A31952"/>
<path d="M132.921 162.561V165.833H124.588L132.502 157.919C132.774 159.425 132.921 160.976 132.921 162.561Z" fill="#E85869"/>
<path d="M157.921 90.833L164.171 97.083L157.921 103.333V97.083V90.833Z" fill="#F78F85"/>
<path d="M118.535 74.167H114.159C117.151 76.5413 119.78 79.3514 121.954 82.5004H91.311L99.5878 74.1611L118.628 74.1645C118.597 74.1647 118.566 74.167 118.535 74.167Z" fill="#F78F85"/>
<path d="M124.588 120L126.94 122.353C126.746 122.964 126.536 123.569 126.311 124.166H112.088C100.582 124.166 91.2542 114.839 91.2542 103.333H109.128H124.588V120Z" fill="#F78F85"/>
<path d="M74.5876 82.4997V65.833L82.9209 74.1663C82.9209 78.7687 79.19 82.4997 74.5876 82.4997Z" fill="#A31952"/>
<path d="M124.588 103.333H128.741C128.75 103.674 128.754 104.015 128.754 104.358V110.641C128.754 114.725 128.118 118.659 126.941 122.353L124.588 120V103.333Z" fill="#FFBD99"/>
<path d="M78.7546 165.833V157.5L87.0879 165.833H78.7546Z" fill="#A31952"/>
<path d="M112.088 136.667H118.632C118.032 137.321 117.411 137.957 116.767 138.568C120.324 140.014 123.487 142.226 126.05 145H103.754L112.088 136.667Z" fill="#A31952"/>
</svg>
