<svg width="150" height="43" viewBox="0 0 150 43" fill="none" xmlns="http://www.w3.org/2000/svg">
<g opacity="0.6">
<path d="M25.8925 6.50128C25.7719 5.73516 25.1089 5.1492 24.3089 5.1492H23.8842V3.12109L22.9443 4.12802C22.3067 4.81115 21.9294 5.66858 21.8657 6.5671C21.8587 6.62798 21.8547 6.68979 21.8547 6.75256V8.52939L21.46 8.92461C20.5386 9.07975 19.7249 9.54253 19.1334 10.201L16.4478 7.51533V9.114C16.4478 10.0979 17.2454 10.8955 18.2293 10.8955H18.6343C18.3197 11.4529 18.1399 12.0932 18.138 12.7744C18.138 12.7763 18.1378 12.7782 18.1378 12.7801V12.7855V13.2616V13.7544C17.7281 13.9776 17.4524 14.4192 17.4621 14.9237L17.482 15.9658H18.5036L19.6261 14.83H19.7373C20.6489 14.83 21.3999 14.1449 21.505 13.2616H22.6945C22.8699 13.2616 23.0414 13.2455 23.2081 13.2161V15.2898L23.8811 15.9658H24.892L24.8971 12.259C25.3194 11.769 25.5742 11.1366 25.5742 10.4456V9.54344L24.5602 8.52939H25.4166C25.9089 8.52939 26.346 8.2765 26.6206 7.88562C26.8096 7.6165 26.9217 7.28199 26.9217 6.91944V6.50128H25.8925V6.50128Z" fill="white"/>
<path d="M15.4192 21.3582L14.2361 20.1751H11.9943C11.818 19.9197 11.6047 19.6917 11.362 19.4991H11.7169C12.5482 19.4991 13.222 18.7783 13.222 17.8892V17.471H12.1928C12.0722 16.7049 11.4092 16.1189 10.6092 16.1189H10.1845V14.0908L9.24463 15.0977C8.60698 15.7809 8.2297 16.6383 8.16607 17.5369C8.15905 17.5977 8.15506 17.6595 8.15506 17.7223V18.8231H8.15177V24.5694V25.5834V25.9215L5.78564 23.5553V25.154C5.78564 26.1379 6.58325 26.9355 7.56715 26.9355H8.15177H9.16583H12.884V26.6701C12.884 25.7895 12.342 25.0359 11.5735 24.7236C12.1725 24.1542 12.546 23.3498 12.546 22.4581V21.9484C12.546 21.9206 12.5456 21.8929 12.5449 21.8652H14.9121L15.4192 21.3582Z" fill="white"/>
<path d="M16.4482 30.2513C16.5688 29.4852 17.2318 28.8992 18.0318 28.8992H18.4565V26.8711L19.3964 27.878C20.0234 28.5498 20.3984 29.3901 20.4713 30.2723L20.4892 30.2513L21.5033 31.2653H22.4272C23.2169 31.2653 23.9382 31.5418 24.4891 31.9977L27.2496 29.2372V30.8359C27.2496 31.8198 26.452 32.6174 25.4681 32.6174H25.0567C25.3747 33.0809 25.5595 33.6337 25.5595 34.2273V34.4662C25.9305 34.3425 26.3561 34.428 26.6514 34.7234L27.2496 35.3215V36.3356H25.2215L25.1362 36.4209C24.4366 37.1205 23.3022 37.1205 22.6026 36.4209L21.5033 35.3215H19.7927L18.1231 37.0116H16.771L16.264 36.5046L18.4611 34.3075V32.9554L17.7851 32.2794H16.9241C16.0928 32.2794 15.4189 31.5586 15.4189 30.6694V30.2513H16.4482Z" fill="white"/>
<path d="M29.2289 17.8128C29.3495 17.0467 30.0125 16.4607 30.8125 16.4607H31.2373V14.4326L32.1771 15.4395C32.8148 16.1227 33.192 16.9801 33.2557 17.8786C33.2627 17.9395 33.2667 18.0013 33.2667 18.0641V19.8409V21.776C34.6944 22.7425 35.6328 24.3771 35.6328 26.231V26.2633L37.999 23.8971V25.4958C37.999 26.4797 37.2013 27.2773 36.2174 27.2773H35.6328H34.6188H29.8865H29.5721V26.2396L29.8865 25.9252V25.1987C29.2602 24.6546 28.8641 23.8523 28.8641 22.9575V22.8087C28.8641 21.727 29.4429 20.7806 30.3075 20.2619L29.8865 19.8409H29.7048C28.8736 19.8409 28.1997 19.1201 28.1997 18.231V17.8128H29.2289Z" fill="white"/>
<path d="M30.8441 11.1867L11.2383 30.7954L11.7143 31.2714L31.3201 11.6626L30.8441 11.1867Z" fill="white"/>
<path d="M11.7138 11.1871L11.2378 11.6631L30.8454 31.2703L31.3214 30.7943L11.7138 11.1871Z" fill="white"/>
<path d="M21.3294 42.6591C9.56828 42.6591 0 33.0907 0 21.3295C0 9.5684 9.56828 0 21.3294 0C33.0905 0 42.659 9.5684 42.659 21.3295C42.659 33.0907 33.0905 42.6591 21.3294 42.6591ZM21.3294 1.4304C10.357 1.4304 1.43027 10.3571 1.43027 21.3295C1.43027 32.302 10.357 41.2287 21.3294 41.2287C32.3019 41.2287 41.2287 32.302 41.2287 21.3295C41.2287 10.3571 32.3019 1.4304 21.3294 1.4304Z" fill="white"/>
<path d="M59.3805 10.9287H62.9515V12.204C67.0324 12.204 70.0933 13.8875 70.0933 19.3204V20.1366C70.0933 25.5694 67.0324 27.2528 62.9515 27.2528V28.5281H59.3805V27.2528C55.2996 27.2528 52.2388 25.5694 52.2388 20.1366V19.3204C52.2388 13.8875 55.2996 12.204 59.3805 12.204V10.9287ZM59.3805 15.2138C57.034 15.2138 55.8097 16.081 55.8097 19.3204V20.1366C55.8097 23.3758 57.034 24.243 59.3805 24.243V15.2138ZM62.9515 24.243C65.3236 24.243 66.5224 23.3758 66.5224 20.1366V19.3204C66.5224 16.081 65.3236 15.2138 62.9515 15.2138V24.243Z" fill="white"/>
<path d="M76.7889 20.8757H79.3141V20.1361C79.3141 18.7077 78.8804 18.2486 77.044 18.2486C75.7942 18.2486 75.1821 18.4271 74.6464 19.2688L72.3508 17.6619C73.2946 16.1061 74.723 15.5449 77.3501 15.5449C80.6404 15.5449 82.5024 16.5141 82.5024 20.1615V28.5277H79.3141V27.4054C78.804 28.2726 78.0387 28.7572 76.5594 28.7572C73.9067 28.7572 72.0703 27.3544 72.0703 24.7527C72.0703 22.049 74.1107 20.8757 76.7889 20.8757ZM79.3141 23.2734H77.1715C75.8453 23.2734 75.2585 23.707 75.2585 24.7017C75.2585 25.6709 75.9982 26.13 77.1205 26.13C78.5999 26.13 79.3141 25.4924 79.3141 23.758V23.2734Z" fill="white"/>
<path d="M88.6569 20.6216H92.6614V15.7754H95.9262V28.5286H92.6614V23.4018H88.6569V28.5286H85.3921V15.7754H88.6569V20.6216Z" fill="white"/>
<path d="M98.9873 31.844V25.5184H100.11C100.543 25.0338 100.951 24.243 101.257 23.3758C101.768 21.7179 102.048 19.9325 102.048 15.6474V10.9287H113.807V25.5184H116V31.844H112.786V28.5281H102.201V31.844H98.9873ZM104.063 25.5184H110.236V13.964H105.619V15.6474C105.619 20.5702 105.236 22.6106 104.548 24.5491C104.42 24.9062 104.242 25.2123 104.063 25.5184Z" fill="white"/>
<path d="M128.294 22.8908C128.294 26.3851 126.636 28.7572 122.785 28.7572C119.086 28.7572 117.275 26.4616 117.275 22.8908V21.3604C117.275 17.5344 119.29 15.5449 122.785 15.5449C126.33 15.5449 128.294 17.5344 128.294 21.3604V22.8908ZM125.055 22.7887V21.4624C125.055 19.4219 124.392 18.2996 122.785 18.2996C121.178 18.2996 120.515 19.4219 120.515 21.4624V22.7887C120.515 24.6252 120.974 26.0025 122.785 26.0025C124.57 26.0025 125.055 24.6252 125.055 22.7887Z" fill="white"/>
<path d="M138.777 18.5301H133.574V28.5286H130.309V15.7754H138.777V18.5301Z" fill="white"/>
<path d="M150 26.5892C149.107 28.0941 147.653 28.7572 145.358 28.7572C141.71 28.7572 139.67 26.4616 139.67 22.9928V21.2584C139.67 17.5344 141.736 15.5449 145.536 15.5449C147.5 15.5449 149.107 16.2591 150 17.6619L147.551 19.3709C147.118 18.7587 146.48 18.2996 145.46 18.2996C143.623 18.2996 142.909 19.4219 142.909 21.4624V22.7887C142.909 24.6252 143.394 26.0025 145.46 26.0025C146.429 26.0025 147.118 25.6709 147.577 24.9058L150 26.5892Z" fill="white"/>
</g>
</svg>
