<svg width="201" height="149" viewBox="0 0 201 149" fill="none" xmlns="http://www.w3.org/2000/svg">
<path d="M49.2405 91.4467C33.8473 91.4467 21.3242 78.9236 21.3242 63.5303C21.3242 48.1371 33.8473 35.614 49.2405 35.614C64.6338 35.614 77.1569 48.1371 77.1569 63.5303C77.1569 78.9236 64.6338 91.4467 49.2405 91.4467ZM49.2405 41.4473C37.0638 41.4473 27.1575 51.3536 27.1575 63.5303C27.1575 75.7071 37.0638 85.6134 49.2405 85.6134C61.4173 85.6134 71.3236 75.7071 71.3236 63.5303C71.3236 51.3536 61.4173 41.4473 49.2405 41.4473Z" fill="white"/>
<path d="M130.49 34.3641C133.941 34.3641 136.74 31.5659 136.74 28.1142C136.74 24.6624 133.941 21.8643 130.49 21.8643C127.038 21.8643 124.24 24.6624 124.24 28.1142C124.24 31.5659 127.038 34.3641 130.49 34.3641Z" fill="#FFBA5F"/>
<path d="M22.5802 90.1916L17.5713 95.2006L44.6544 122.284L49.6633 117.275L22.5802 90.1916Z" fill="#FF9C9C"/>
<path d="M2.65133 93.4536L0 96.105L18.7497 114.855L21.4011 112.204L2.65133 93.4536Z" fill="#7D74ED"/>
<path d="M114.924 65.9668L112.861 63.9047L119.252 57.5144C122.207 54.5591 122.207 49.7508 119.252 46.7955C116.297 43.841 111.49 43.8406 108.533 46.7955C104.441 50.8889 97.7818 50.8881 93.69 46.7955C89.5975 42.7033 89.5975 36.0445 93.69 31.9523C96.6449 28.997 96.6449 24.1888 93.69 21.2335C90.7348 18.279 85.9273 18.2786 82.9712 21.2335C78.8798 25.3256 72.2202 25.3264 68.128 21.2335C64.0355 17.1413 64.0355 10.4825 68.128 6.39031L74.5187 0L76.5809 2.06215L70.1902 8.45245C67.2353 11.4077 67.2353 16.216 70.1902 19.1713C73.1459 22.1262 77.9533 22.127 80.909 19.1713C85.0012 15.0788 91.6609 15.0792 95.7522 19.1713C99.8448 23.2635 99.8448 29.9223 95.7522 34.0145C92.7973 36.9698 92.7973 41.7781 95.7522 44.7333C98.7079 47.6882 103.515 47.6886 106.471 44.7333C110.562 40.6412 117.222 40.6404 121.314 44.7333C125.407 48.8255 125.407 55.4844 121.314 59.5765L114.924 65.9668Z" fill="#D08CED"/>
<path d="M161.739 115.613V98.9466L170.072 90.6134H180.686C190.932 90.6134 199.239 81.7284 199.239 70.7682V65.6137H186.552C185.224 57.1795 178.563 50.5184 170.129 49.1905V28.1141L161.796 37.042V23.9475L150.211 36.3595C142.482 44.64 137.638 54.7394 136.74 65.6137L124.24 78.1135H112.85C103.117 78.1135 94.2256 81.5209 87.4346 87.1413L53.4072 53.1138V72.82C53.4072 84.9482 63.2391 94.78 75.3671 94.78H80.4382C76.5183 100.493 74.2403 107.307 74.2403 114.624V117.569C69.6665 116.044 64.4213 117.099 60.7802 120.74L53.4072 128.113V140.613H78.4069L79.4583 141.664C88.0823 150.288 102.064 150.288 110.688 141.664L124.24 128.113H145.325L165.906 148.946H182.572L188.822 142.696L161.739 115.613Z" fill="#E85869"/>
<path d="M140.906 119.78H115.906C106.702 119.78 99.24 127.241 99.24 136.446H53.4072V140.613H78.4069L79.4583 141.664C88.0823 150.288 102.064 150.288 110.688 141.664L115.906 136.446V128.113H124.24H145.325L165.906 148.946H170.072L140.906 119.78Z" fill="#CE2E63"/>
<path d="M136.739 65.6138L128.406 73.947V78.1136H124.24H112.85C103.117 78.1136 94.2255 81.521 87.4346 87.1414L90.9066 90.6135H118.668C128.649 90.6135 136.739 82.5227 136.739 72.5422V65.6138Z" fill="#F78F85"/>
<path d="M128.406 73.9468L124.24 78.1134H128.406V73.9468Z" fill="#A31952"/>
<path d="M182.572 136.446V148.946L188.822 142.696L182.572 136.446Z" fill="#F78F85"/>
<path d="M61.7404 124.649V119.879C61.4111 120.15 61.088 120.432 60.7802 120.74L53.4072 128.113V132.279H54.1103C58.3244 132.279 61.7404 128.863 61.7404 124.649Z" fill="#F78F85"/>
<path d="M115.906 136.446L124.24 128.113H115.906V136.446Z" fill="#A31952"/>
<path d="M74.2403 117.569C72.0489 116.838 69.7044 116.707 67.4551 117.161L74.2403 123.946L78.4069 119.78V98.9465H77.9782C75.5847 103.697 74.2403 109.011 74.2403 114.624V117.569Z" fill="#A31952"/>
<path d="M161.739 98.9466L153.434 90.6416H140.481L132.321 98.8018L145.814 112.295C151.522 118.003 159.263 121.209 167.336 121.209L161.739 115.613V98.9466Z" fill="#F78F85"/>
<path d="M78.4069 94.78C78.4069 89.4443 76.2874 84.3271 72.5145 80.5543L53.4072 61.447V72.82C53.4072 84.9481 63.2391 94.78 75.367 94.78H78.4069Z" fill="#A31952"/>
<path d="M157.573 111.442L161.739 115.613V98.9466L157.573 94.78V111.442Z" fill="#FFBD99"/>
<path d="M185.414 61.453C182.937 55.1845 177.349 50.4887 170.552 49.2658H170.551L161.796 48.9531L164.237 51.3939C167.693 54.8505 169.757 59.4364 170.079 64.284C173.879 62.4704 178.132 61.453 182.623 61.453H185.414Z" fill="#F78F85"/>
<path d="M186.552 65.6136C186.5 65.2839 186.437 64.9579 186.369 64.634C186.354 64.5597 186.337 64.4859 186.32 64.412C186.256 64.1232 186.187 63.8363 186.11 63.5525C186.101 63.5216 186.094 63.4904 186.085 63.4596C185.896 62.7753 185.672 62.1056 185.414 61.4529H182.623C178.132 61.4529 173.879 62.4703 170.079 64.2839C160.253 68.9737 153.462 78.9996 153.462 90.6133H170.072H170.129V81.3624C170.129 72.6711 177.175 65.6254 185.866 65.6254H195.129V65.6195H199.239V65.6136H186.552Z" fill="#CE2E63"/>
<path d="M195.129 66.9643V65.6255H185.866C177.175 65.6255 170.129 72.6712 170.129 81.3625V90.6134H180.686C181.006 90.6134 181.324 90.6048 181.64 90.5876C188.914 90.1933 195.082 85.3189 197.781 78.4929C197.898 78.1961 198.009 77.8957 198.113 77.5917C198.321 76.9838 198.502 76.362 198.655 75.7279C199.036 74.1426 199.239 72.4808 199.239 70.7683V69.7862H197.95C196.392 69.7862 195.129 68.5228 195.129 66.9643Z" fill="#A31952"/>
<path d="M195.129 65.6255V66.9643C195.129 68.5228 196.392 69.7862 197.951 69.7862H199.239V65.6196H195.129V65.6255Z" fill="#F78F85"/>
<path d="M142.208 47.7072L161.796 28.12V23.9534H161.79L150.211 36.3594C149.791 36.8093 149.383 37.2668 148.981 37.7271C146.299 40.8156 144.035 44.1686 142.208 47.7072Z" fill="#FFBD99"/>
<path d="M161.796 40.5573L170.073 32.2806V32.3431L170.129 32.2865V28.114L161.796 37.0419V40.5573Z" fill="#CE2E63"/>
<path d="M161.796 40.5574L161.739 40.614V48.9472L170.495 49.2599C170.354 49.2346 170.214 49.2069 170.072 49.1847V32.3432V32.2808L161.796 40.5574Z" fill="#A31952"/>
<path d="M186.109 105.827L182.574 109.362L195.074 121.862L198.609 118.327L186.109 105.827Z" fill="white"/>
</svg>
