<svg width="79" height="79" viewBox="0 0 79 79" fill="none" xmlns="http://www.w3.org/2000/svg">
<path d="M59.659 59.7628C64.8619 54.56 68.08 47.3721 68.08 39.433C68.08 23.5556 55.21 10.6841 39.333 10.6821V39.437L59.659 59.7628Z" fill="#DD4E6A"/>
<path d="M58.1123 61.1899L39.333 42.4106V45.2755L56.5305 62.473C57.0747 62.0657 57.5987 61.6338 58.1123 61.1899Z" fill="#9B51E0"/>
<path d="M39.333 48.1665V51.0314L53.0216 64.72C53.6353 64.3869 54.231 64.0255 54.8166 63.6503L39.333 48.1665Z" fill="#9B51E0"/>
<path d="M39.333 53.9229V56.7877L49.0428 66.4975C49.7358 66.2489 50.4141 65.9703 51.0812 65.6712L39.333 53.9229Z" fill="#9B51E0"/>
<path d="M39.333 59.6787V62.5436L44.5005 67.7111C45.2923 67.567 46.0731 67.3932 46.8406 67.1861L39.333 59.6787Z" fill="#9B51E0"/>
<path d="M41.9578 68.0594L39.333 65.4346V68.1844C40.2184 68.184 41.0929 68.1379 41.9578 68.0594Z" fill="#9B51E0"/>
<path d="M39.3286 0.104004C34.6142 0.104004 30.0915 0.939588 25.8989 2.46765C10.8064 7.96822 0 22.4617 0 39.4333C0 56.4046 10.8061 70.8981 25.8981 76.3986C30.091 77.927 34.6139 78.7626 39.3286 78.7626C61.015 78.7626 78.658 61.1197 78.658 39.4333C78.658 17.747 61.015 0.104004 39.3286 0.104004ZM63.7846 63.8889C63.6502 64.0231 63.5084 64.1501 63.3719 64.2823C57.1421 70.3118 48.6664 74.034 39.3329 74.0353C39.3316 74.0353 39.3301 74.0353 39.3286 74.0353C20.2493 74.0353 4.7273 58.5127 4.7273 39.4333C4.7273 20.354 20.2493 4.8313 39.3286 4.8313C39.3301 4.8313 39.3316 4.8313 39.3329 4.8313C58.4103 4.83394 73.9307 20.3553 73.9307 39.4333C73.9306 48.973 70.0501 57.6233 63.7846 63.8889Z" fill="#BB6BD9"/>
</svg>
