<svg width="103" height="96" viewBox="0 0 103 96" fill="none" xmlns="http://www.w3.org/2000/svg">
<path d="M23.2988 15.623C10.4518 15.623 0 26.0748 0 38.9219C0 51.7689 10.4518 62.2207 23.2988 62.2207C36.1459 62.2207 46.5977 51.7689 46.5977 38.9219C46.5977 26.0748 36.1459 15.623 23.2988 15.623ZM23.2988 56.1427C13.8033 56.1427 6.07796 48.4174 6.07796 38.9219C6.07796 29.4264 13.8033 21.701 23.2988 21.701C32.7943 21.701 40.5197 29.4264 40.5197 38.9219C40.5197 48.4174 32.7943 56.1427 23.2988 56.1427Z" fill="#DD4E6A"/>
<path d="M82.4074 30.4973L75.6541 37.2506C74.2969 38.6078 72.4918 39.355 70.572 39.355C68.6522 39.355 66.8471 38.6078 65.4899 37.2506C62.6877 34.4483 62.6877 29.8886 65.4899 27.0863L72.2432 20.3331C76.8887 15.6882 76.8887 8.129 72.2432 3.48414C67.5977 -1.16138 60.0398 -1.16138 55.3943 3.48414L41.8877 16.9907L45.23 20.3331L58.7366 6.82649C60.0939 5.46924 61.8989 4.72203 63.8187 4.72203C65.7385 4.72203 67.5436 5.46924 68.9008 6.82649C70.2581 8.18374 71.0053 9.9888 71.0053 11.9086C71.0053 13.8284 70.2581 15.6335 68.9008 16.9907L62.1475 23.744C57.502 28.3889 57.502 35.948 62.1475 40.5929C66.7931 45.2384 74.3509 45.2384 78.9965 40.5929L85.7497 33.8396C88.5526 31.0381 93.1111 31.0381 95.914 33.8396C98.7162 36.6418 98.7162 41.2016 95.914 44.0038L62.8394 77.0778H57.0424C52.0282 77.0778 47.9485 81.1574 47.9485 86.2178C47.9485 91.232 52.0282 95.3117 57.0885 95.3117C62.1027 95.3117 66.1824 91.232 66.1824 86.2178V80.4208L99.2563 47.3462C103.902 42.7013 103.902 35.1421 99.2563 30.4973C94.6108 25.8518 87.0529 25.8518 82.4074 30.4973ZM61.4551 86.2178C61.4551 88.6256 59.4964 90.5844 57.0424 90.5844C54.6345 90.5844 52.6758 88.6256 52.6758 86.1716C52.6758 83.7638 54.6345 81.8051 57.0424 81.8051H61.4551V86.2178Z" fill="#BB6BD9"/>
</svg>
