<svg width="209" height="130" viewBox="0 0 209 130" fill="none" xmlns="http://www.w3.org/2000/svg">
<path d="M150.396 64.1659C132.705 64.1659 118.313 49.7736 118.313 32.083C118.313 14.3923 132.705 0 150.396 0C168.087 0 182.479 14.3923 182.479 32.083C182.479 49.7736 168.087 64.1659 150.396 64.1659ZM150.396 5.83326C135.922 5.83326 124.146 17.6088 124.146 32.083C124.146 46.5571 135.922 58.3326 150.396 58.3326C164.87 58.3326 176.646 46.5571 176.646 32.083C176.646 17.6088 164.87 5.83326 150.396 5.83326Z" fill="white"/>
<path d="M12.3332 104.321C16.9356 104.321 20.6665 100.59 20.6665 95.9875C20.6665 91.3852 16.9356 87.6543 12.3332 87.6543C7.73092 87.6543 4 91.3852 4 95.9875C4 100.59 7.73092 104.321 12.3332 104.321Z" fill="#FFBA5F"/>
<path d="M144.568 12.9116L139.559 17.9205L166.642 45.0037L171.651 39.9947L144.568 12.9116Z" fill="#FF9C9C"/>
<path d="M35.6875 17.8157L32.1523 21.3508L44.6523 33.8506L48.1875 30.3155L35.6875 17.8157Z" fill="white"/>
<path d="M143.389 30.7571L140.738 33.4084L153.238 45.9082L155.889 43.2569L143.389 30.7571Z" fill="#7D74ED"/>
<path d="M47.7304 105.352L45.6683 103.29L50.3032 98.6549C51.266 97.6921 51.7961 96.412 51.7961 95.0506C51.7961 93.6891 51.266 92.4094 50.3032 91.4467C49.3405 90.484 48.0608 89.9538 46.6994 89.9538C45.3379 89.9538 44.0578 90.484 43.0951 91.4467C39.9709 94.5708 34.8876 94.5708 31.7626 91.4467C28.6385 88.3221 28.6385 83.2384 31.7626 80.1142C32.7253 79.1515 33.2555 77.8714 33.2555 76.5099C33.2555 75.1485 32.7253 73.8688 31.7626 72.9061C30.7999 71.9433 29.5202 71.4132 28.1587 71.4132C26.7973 71.4132 25.5176 71.9433 24.5549 72.9061C21.4307 76.0302 16.3465 76.0302 13.2224 72.9061C11.7087 71.3924 10.875 69.3803 10.875 67.2396C10.875 65.0993 11.7087 63.0868 13.2224 61.5736L17.8573 56.9382L19.9195 59.0004L15.2845 63.6357C14.3218 64.5985 13.7916 65.8781 13.7916 67.2396C13.7916 68.6011 14.3218 69.8812 15.2845 70.8439C17.2718 72.8312 20.505 72.8312 22.4923 70.8439C24.0059 69.3303 26.018 68.4965 28.1587 68.4965C30.299 68.4965 32.3115 69.3303 33.8248 70.8439C35.3384 72.3572 36.1721 74.3697 36.1721 76.5099C36.1721 78.6506 35.3384 80.6627 33.8248 82.1764C31.8379 84.1637 31.8379 87.3973 33.8248 89.3845C35.812 91.371 39.0456 91.3718 41.0329 89.3845C42.5466 87.8709 44.5587 87.0372 46.6994 87.0372C48.8396 87.0372 50.8521 87.8709 52.3654 89.3845C53.879 90.8978 54.7128 92.9103 54.7128 95.0506C54.7128 97.1912 53.879 99.2033 52.3654 100.717L47.7304 105.352Z" fill="#D08CED"/>
<path d="M62.2763 108.487H69.4023C67.5032 104.236 66.4429 99.5447 66.4429 94.6088V83.4877L78.9428 70.9879H68.3859C58.1395 70.9879 49.833 62.1029 49.833 51.1427V45.9882H62.5196C63.8475 37.554 70.5086 30.893 78.9428 29.565V8.48864L87.276 17.4166V4.32202L98.8611 16.734C106.721 25.1547 111.372 35.7238 112.156 46.7995C112.243 47.5501 112.292 48.312 112.292 49.0857V70.9879L116.453 75.1545H120.456C143.502 75.1545 162.192 93.796 162.273 116.822L163.71 115.386C172.286 106.81 186.19 106.81 194.766 115.386L208.7 129.321H162.275H158.108H149.775H101.94H78.9428V129.278L53.9431 129.244V116.783L62.2763 108.487Z" fill="#E85869"/>
<path d="M78.9929 44.6585C79.3154 39.8109 81.3789 35.225 84.8355 31.7684L87.2763 29.3276L78.5207 29.6403C78.5207 29.6403 78.5205 29.6403 78.5203 29.6404C75.1217 30.2518 72.0254 31.7314 69.4693 33.8417C66.913 35.9521 64.897 38.6931 63.6584 41.8273C63.6582 41.8273 63.6582 41.8274 63.6582 41.8275H66.4491C70.9402 41.8275 75.1931 42.8449 78.9929 44.6585Z" fill="#F78F85"/>
<path d="M53.9431 45.9999H63.2057C71.897 45.9999 78.9428 53.0456 78.9428 61.7369V70.9878H95.6092C95.6092 59.3741 88.8187 49.3483 78.9926 44.6584C75.1928 42.8448 70.9399 41.8274 66.4488 41.8274H63.6579C63.6579 41.8275 63.6579 41.8276 63.6577 41.8276C63.3997 42.4806 63.1755 43.1503 62.9863 43.8347C62.978 43.8649 62.9707 43.8954 62.9623 43.9257C62.8854 44.21 62.8158 44.4973 62.7514 44.7866C62.7349 44.8606 62.718 44.9342 62.7023 45.0085C62.6342 45.3324 62.5715 45.6584 62.5196 45.9881H49.833V45.994H53.9431V45.9999Z" fill="#CE2E63"/>
<path d="M68.3858 70.9879H78.9428V61.737C78.9428 53.0457 71.8969 46 63.2057 46H53.9431V47.3388C53.9431 48.8973 52.6796 50.1607 51.1212 50.1607H49.833V51.1428C49.833 62.1029 58.1394 70.9879 68.3858 70.9879Z" fill="#A31952"/>
<path d="M53.9431 47.3388V46V45.9941H49.833V50.1608H51.1212C52.6797 50.1608 53.9431 48.8974 53.9431 47.3388Z" fill="#F78F85"/>
<path d="M87.2761 20.9944L78.9429 12.6611V29.565C78.8013 29.5873 78.6613 29.615 78.5205 29.6403L87.2761 29.3276V20.9944Z" fill="#A31952"/>
<path d="M103.509 22.5094C103.405 22.3595 103.303 22.2084 103.198 22.0594C102.979 21.7514 102.755 21.4472 102.529 21.1433C102.351 20.9038 102.171 20.6652 101.989 20.4282C101.794 20.1761 101.598 19.9249 101.399 19.6758C101.153 19.3699 100.903 19.0674 100.65 18.7663C100.491 18.5766 100.334 18.3855 100.172 18.1977C99.7444 17.7037 99.3094 17.2144 98.861 16.7339L87.2814 4.32788H87.2759V8.4945L106.863 28.0817C105.874 26.165 104.752 24.305 103.509 22.5094Z" fill="#FFBD99"/>
<path d="M87.2761 17.4167L78.9429 8.48877V12.6613L87.2761 20.9945V17.4167Z" fill="#CE2E63"/>
<path d="M66.4429 94.6089C66.4429 99.5447 67.5032 104.236 69.4022 108.488H78.9993H79.1063C89.3869 108.488 97.7208 100.154 97.7208 89.8731V89.766L83.1376 75.1829L66.4429 91.8776V94.6089Z" fill="#F78F85"/>
<path d="M162.273 116.821H124.832L116.499 108.487L95.6658 129.32H101.94H108.166L116.499 120.987V129.32H149.775L162.273 116.821Z" fill="#CE2E63"/>
<path d="M174.832 116.821H162.275L162.273 116.823C162.273 116.822 162.273 116.821 162.273 116.821L149.775 129.321H158.109H162.275H187.331C187.331 122.417 181.735 116.821 174.832 116.821Z" fill="#A31952"/>
<path d="M129.963 95.9876H149.832L161.149 107.305C156.786 88.8707 140.224 75.1545 120.456 75.1545H116.453H112.292V78.3161C112.292 88.0758 120.204 95.9876 129.963 95.9876Z" fill="#F78F85"/>
<path d="M112.292 70.988V75.1547H116.453L112.292 70.988Z" fill="#A31952"/>
<path d="M108.166 129.321H116.499V120.987L108.166 129.321Z" fill="#A31952"/>
<path d="M78.9994 116.821V108.487H69.4023L78.9994 116.821Z" fill="#A31952"/>
<path d="M66.4429 91.8777L83.1376 75.1829L78.9427 70.988L66.4429 83.4879V91.8777Z" fill="#FFBD99"/>
<path d="M53.9434 129.244L66.4212 129.261L53.9434 116.783V129.244Z" fill="#F78F85"/>
</svg>
