<svg width="84" height="89" viewBox="0 0 84 89" fill="none" xmlns="http://www.w3.org/2000/svg">
<path d="M36.099 16.3252L32.1023 20.3217C29.9793 22.4447 27.1573 23.614 24.1553 23.614C21.1532 23.614 18.3306 22.4447 16.2083 20.3217C14.0854 18.1995 12.9161 15.3768 12.9161 12.3748C12.9161 9.37271 14.0854 6.55071 16.2083 4.42777L20.205 0.4312C19.7721 0.398555 19.3362 0.376465 18.8948 0.376465C9.36303 0.376465 1.63599 8.1035 1.63599 17.6353C1.63599 27.167 9.36303 34.8941 18.8948 34.8941C28.4265 34.8941 36.1536 27.167 36.1536 17.6353C36.1536 17.1937 36.1315 16.7581 36.099 16.3252Z" fill="#F2994A"/>
<path d="M24.1553 20.2375C26.2551 20.2375 28.2297 19.4197 29.7149 17.9345L35.3191 12.3301C33.6201 7.06664 29.4634 2.91014 24.2 1.21094L18.5957 6.81537C17.1105 8.30057 16.2927 10.2751 16.2927 12.375C16.2927 14.4755 17.1105 16.4494 18.5957 17.9345C20.0809 19.4197 22.0548 20.2375 24.1553 20.2375Z" fill="#F2994A"/>
<path d="M72.8532 10.0625L32.3335 50.5826L39.9745 58.2236L80.4942 17.7036L72.8532 10.0625Z" fill="#BB6BD9"/>
<path d="M16.8836 48.6392L0 65.5222L4.77489 70.2969L21.6585 53.4139L16.8836 48.6392Z" fill="#56CCF2"/>
<path d="M39.5305 88.1693C41.3953 88.1693 42.9071 86.6575 42.9071 84.7927C42.9071 82.9278 41.3953 81.416 39.5305 81.416C37.6656 81.416 36.1538 82.9278 36.1538 84.7927C36.1538 86.6575 37.6656 88.1693 39.5305 88.1693Z" fill="#DD4E6A"/>
<path d="M53.0368 74.663C54.9017 74.663 56.4134 73.1512 56.4134 71.2863C56.4134 69.4214 54.9017 67.9097 53.0368 67.9097C51.1719 67.9097 49.6602 69.4214 49.6602 71.2863C49.6602 73.1512 51.1719 74.663 53.0368 74.663Z" fill="#DD4E6A"/>
<path d="M53.0368 88.1693C54.9017 88.1693 56.4134 86.6575 56.4134 84.7927C56.4134 82.9278 54.9017 81.416 53.0368 81.416C51.1719 81.416 49.6602 82.9278 49.6602 84.7927C49.6602 86.6575 51.1719 88.1693 53.0368 88.1693Z" fill="#DD4E6A"/>
<path d="M66.5434 61.1561C68.4083 61.1561 69.92 59.6443 69.92 57.7795C69.92 55.9146 68.4083 54.4028 66.5434 54.4028C64.6785 54.4028 63.1667 55.9146 63.1667 57.7795C63.1667 59.6443 64.6785 61.1561 66.5434 61.1561Z" fill="#DD4E6A"/>
<path d="M66.5434 74.663C68.4083 74.663 69.92 73.1512 69.92 71.2863C69.92 69.4214 68.4083 67.9097 66.5434 67.9097C64.6785 67.9097 63.1667 69.4214 63.1667 71.2863C63.1667 73.1512 64.6785 74.663 66.5434 74.663Z" fill="#DD4E6A"/>
<path d="M66.5434 88.1693C68.4083 88.1693 69.92 86.6575 69.92 84.7927C69.92 82.9278 68.4083 81.416 66.5434 81.416C64.6785 81.416 63.1667 82.9278 63.1667 84.7927C63.1667 86.6575 64.6785 88.1693 66.5434 88.1693Z" fill="#DD4E6A"/>
<path d="M80.05 47.6498C81.9148 47.6498 83.4266 46.138 83.4266 44.2731C83.4266 42.4083 81.9148 40.8965 80.05 40.8965C78.1851 40.8965 76.6733 42.4083 76.6733 44.2731C76.6733 46.138 78.1851 47.6498 80.05 47.6498Z" fill="#DD4E6A"/>
<path d="M80.05 61.1561C81.9148 61.1561 83.4266 59.6443 83.4266 57.7795C83.4266 55.9146 81.9148 54.4028 80.05 54.4028C78.1851 54.4028 76.6733 55.9146 76.6733 57.7795C76.6733 59.6443 78.1851 61.1561 80.05 61.1561Z" fill="#DD4E6A"/>
<path d="M80.05 74.663C81.9148 74.663 83.4266 73.1512 83.4266 71.2863C83.4266 69.4214 81.9148 67.9097 80.05 67.9097C78.1851 67.9097 76.6733 69.4214 76.6733 71.2863C76.6733 73.1512 78.1851 74.663 80.05 74.663Z" fill="#DD4E6A"/>
<path d="M80.05 88.1693C81.9148 88.1693 83.4266 86.6575 83.4266 84.7927C83.4266 82.9278 81.9148 81.416 80.05 81.416C78.1851 81.416 76.6733 82.9278 76.6733 84.7927C76.6733 86.6575 78.1851 88.1693 80.05 88.1693Z" fill="#DD4E6A"/>
</svg>
