<svg width="14" height="16" viewBox="0 0 14 16" fill="none" xmlns="http://www.w3.org/2000/svg">
<path opacity="0.4" d="M13.6641 7.8125C13.6068 9.14583 13.276 10.2057 12.6719 10.9922C12.0729 11.7734 11.2656 12.1641 10.25 12.1641C9.80208 12.1641 9.41406 12.0677 9.08594 11.875C8.76302 11.6823 8.51823 11.4062 8.35156 11.0469C7.83073 11.776 7.15104 12.1406 6.3125 12.1406C5.55208 12.1406 4.96354 11.8203 4.54688 11.1797C4.13021 10.5391 3.97396 9.69271 4.07812 8.64062C4.17188 7.78125 4.38802 7.01823 4.72656 6.35156C5.07031 5.67969 5.5026 5.16406 6.02344 4.80469C6.54427 4.44531 7.10677 4.26562 7.71094 4.26562C8.45573 4.26562 9.09115 4.4375 9.61719 4.78125L10.1094 5.11719L9.71094 9.63281C9.65885 10.0443 9.70312 10.3594 9.84375 10.5781C9.98958 10.7969 10.2188 10.9062 10.5312 10.9062C11.0104 10.9062 11.4115 10.6276 11.7344 10.0703C12.0573 9.50781 12.2344 8.77344 12.2656 7.86719C12.3542 6.04948 11.987 4.65365 11.1641 3.67969C10.3464 2.70052 9.13281 2.21094 7.52344 2.21094C6.51823 2.21094 5.6224 2.46615 4.83594 2.97656C4.04948 3.48698 3.42969 4.21354 2.97656 5.15625C2.52344 6.09375 2.26823 7.16927 2.21094 8.38281C2.1276 10.2266 2.4974 11.651 3.32031 12.6562C4.14323 13.6667 5.375 14.1719 7.01562 14.1719C7.44792 14.1719 7.90104 14.1224 8.375 14.0234C8.84896 13.9297 9.25781 13.8021 9.60156 13.6406L9.89844 14.8438C9.58073 15.0521 9.15104 15.2188 8.60938 15.3438C8.07292 15.474 7.53125 15.5391 6.98438 15.5391C5.60938 15.5391 4.4375 15.2604 3.46875 14.7031C2.5 14.151 1.77604 13.3333 1.29688 12.25C0.822917 11.1719 0.617188 9.88281 0.679688 8.38281C0.742188 6.94531 1.07031 5.65625 1.66406 4.51562C2.25781 3.375 3.0651 2.49479 4.08594 1.875C5.11198 1.25 6.26823 0.9375 7.55469 0.9375C8.86198 0.9375 9.98698 1.21875 10.9297 1.78125C11.8724 2.33854 12.5781 3.13802 13.0469 4.17969C13.5156 5.22135 13.7214 6.43229 13.6641 7.8125ZM5.8125 8.64062C5.75521 9.32812 5.8151 9.85156 5.99219 10.2109C6.16927 10.5651 6.45573 10.7422 6.85156 10.7422C7.10677 10.7422 7.34896 10.6302 7.57812 10.4062C7.80729 10.1823 7.9974 9.85938 8.14844 9.4375L8.47656 5.74219C8.27344 5.67448 8.0651 5.64062 7.85156 5.64062C7.2526 5.64062 6.78646 5.89583 6.45312 6.40625C6.125 6.91667 5.91146 7.66146 5.8125 8.64062Z" fill="#1D2025"/>
</svg>
