<svg width="18" height="10" viewBox="0 0 18 10" fill="none" xmlns="http://www.w3.org/2000/svg">
<path fill-rule="evenodd" clip-rule="evenodd" d="M15.0128 6.55955C15.5545 7.09032 16.1262 7.58969 16.612 8.17399C16.8267 8.43364 17.0298 8.70158 17.1853 9.0029C17.4055 9.43126 17.206 9.90263 16.8233 9.92821L14.4443 9.92713C13.8307 9.97823 13.3413 9.73032 12.9297 9.30929C12.6003 8.97259 12.2953 8.61424 11.9786 8.26617C11.8487 8.12391 11.7128 7.99005 11.5505 7.88424C11.2257 7.67267 10.9438 7.73745 10.7582 8.07739C10.5692 8.42314 10.5263 8.80599 10.5078 9.19132C10.4823 9.75353 10.3129 9.90134 9.75023 9.92708C8.54764 9.984 7.40632 9.8014 6.34607 9.19255C5.41132 8.65581 4.68646 7.89808 4.05555 7.04024C2.82715 5.36986 1.88644 3.53438 1.04097 1.64748C0.850659 1.22236 0.989836 0.994157 1.45721 0.98608C2.23331 0.970949 3.0093 0.972026 3.78631 0.985003C4.10174 0.989634 4.31056 1.17121 4.43236 1.47027C4.85225 2.50645 5.36604 3.49227 6.01095 4.40605C6.1827 4.64933 6.35782 4.89261 6.6072 5.06385C6.88309 5.25344 7.09314 5.1906 7.22293 4.88217C7.30529 4.6866 7.34135 4.47595 7.35991 4.26648C7.4214 3.54585 7.4295 2.82646 7.32166 2.10836C7.25545 1.66019 7.00392 1.37006 6.55833 1.28525C6.33094 1.24201 6.3648 1.1571 6.47489 1.02684C6.66612 0.802194 6.84596 0.662354 7.20448 0.662354H9.89311C10.3164 0.746193 10.4104 0.937026 10.4683 1.36446L10.4706 4.36174C10.466 4.52721 10.553 5.01824 10.85 5.12776C11.0877 5.20573 11.2443 5.0149 11.3869 4.86364C12.0307 4.17796 12.4901 3.36762 12.9006 2.52852C13.0827 2.15956 13.2393 1.77639 13.3911 1.39354C13.5036 1.10944 13.68 0.969657 13.9989 0.975849L16.5866 0.978165C16.6633 0.978165 16.7409 0.979295 16.8152 0.992057C17.2513 1.06664 17.3708 1.25488 17.2361 1.68221C17.0239 2.35266 16.611 2.91137 16.2073 3.47267C15.7758 4.07193 15.3143 4.65068 14.8863 5.2535C14.4932 5.80397 14.5244 6.08144 15.0128 6.55955Z" fill="#1D2025"/>
</svg>
