<svg width="16" height="11" viewBox="0 0 16 11" fill="none" xmlns="http://www.w3.org/2000/svg">
<path d="M15.32 1.02593C14.886 0.278744 14.415 0.141308 13.456 0.0890433C12.498 0.0261323 10.089 0 8.002 0C5.911 0 3.501 0.0261324 2.544 0.0880755C1.587 0.141308 1.115 0.277776 0.677 1.02593C0.23 1.77216 0 3.05748 0 5.32034C0 5.32227 0 5.32324 0 5.32324C0 5.32518 0 5.32615 0 5.32615V5.32808C0 7.58126 0.23 8.87626 0.677 9.61474C1.115 10.3619 1.586 10.4974 2.543 10.5603C3.501 10.6145 5.911 10.6465 8.002 10.6465C10.089 10.6465 12.498 10.6145 13.457 10.5613C14.416 10.4984 14.887 10.3629 15.321 9.61571C15.772 8.87723 16 7.58223 16 5.32905C16 5.32905 16 5.32615 16 5.32421C16 5.32421 16 5.32227 16 5.32131C16 3.05748 15.772 1.77216 15.32 1.02593ZM6 8.22683V2.41966L11 5.32324L6 8.22683Z" fill="#1D2025"/>
</svg>
