<svg width="200" height="73" viewBox="0 0 200 73" fill="none" xmlns="http://www.w3.org/2000/svg">
<g opacity="0.8">
<path d="M43.7457 10.9838C43.542 9.68947 42.4218 8.69949 41.0702 8.69949H40.3526V5.27295L38.7647 6.97417C37.6874 8.12834 37.0499 9.57698 36.9424 11.0951C36.9306 11.1979 36.9238 11.3024 36.9238 11.4084V14.4104L36.2569 15.0781C34.7002 15.3402 33.3255 16.1221 32.3261 17.2346L27.7886 12.6971V15.3981C27.7886 17.0604 29.1362 18.408 30.7985 18.408H31.4827C30.9513 19.3498 30.6476 20.4315 30.6443 21.5824C30.6443 21.5856 30.644 21.5888 30.644 21.592V21.6012V22.4056V23.2381C29.9518 23.6153 29.486 24.3614 29.5023 25.2137L29.5359 26.9744H31.2619L33.1584 25.0554H33.3464C34.8864 25.0554 36.1554 23.898 36.3329 22.4056H38.3426C38.639 22.4056 38.9286 22.3783 39.2104 22.3287V25.8322L40.3475 26.9744H42.0554L42.0639 20.7116C42.7774 19.8838 43.208 18.8153 43.208 17.6479V16.1237L41.4947 14.4104H42.9417C43.7735 14.4104 44.5119 13.9831 44.9758 13.3227C45.2952 12.8681 45.4846 12.3029 45.4846 11.6903V10.9838H43.7457V10.9838Z" fill="#1D2025"/>
<path d="M26.051 36.0846L24.0521 34.0858H20.2646C19.9667 33.6542 19.6063 33.269 19.1962 32.9436H19.7959C21.2004 32.9436 22.3389 31.7258 22.3389 30.2236V29.5171H20.6C20.3962 28.2227 19.2761 27.2327 17.9244 27.2327H17.2068V23.8062L15.6189 25.5074C14.5416 26.6616 13.9042 28.1102 13.7967 29.6283C13.7848 29.7312 13.7781 29.8356 13.7781 29.9416V31.8014H13.7725V41.5099V43.2232V43.7943L9.7749 39.7967V42.4977C9.7749 44.16 11.1225 45.5076 12.7848 45.5076H13.7725H15.4858H21.7678V45.0591C21.7678 43.5714 20.852 42.2982 19.5537 41.7706C20.5657 40.8085 21.1967 39.4494 21.1967 37.9429V37.0817C21.1967 37.0347 21.196 36.9879 21.1948 36.9412H25.1943L26.051 36.0846Z" fill="#1D2025"/>
<path d="M27.7897 51.1103C27.9934 49.8159 29.1136 48.826 30.4652 48.826H31.1828V45.3994L32.7707 47.1006C33.8301 48.2356 34.4638 49.6553 34.5868 51.1458L34.6171 51.1103L36.3304 52.8236H37.8914C39.2256 52.8236 40.4442 53.2906 41.375 54.061L46.0389 49.397V52.098C46.0389 53.7604 44.6914 55.1079 43.029 55.1079H42.334C42.8712 55.891 43.1835 56.8249 43.1835 57.8279V58.2315C43.8104 58.0225 44.5293 58.167 45.0284 58.6661L46.0389 59.6767V61.3899H42.6124L42.4683 61.534C41.2863 62.7161 39.3698 62.7161 38.1878 61.534L36.3304 59.6767H33.4403L30.6195 62.5321H28.3351L27.4785 61.6755L31.1906 57.9634V55.679L30.0484 54.5369H28.5937C27.1893 54.5369 26.0508 53.3191 26.0508 51.8168V51.1103H27.7897Z" fill="#1D2025"/>
<path d="M49.3829 30.0954C49.5867 28.801 50.7068 27.8111 52.0585 27.8111H52.7761V24.3845L54.364 26.0857C55.4413 27.2399 56.0787 28.6885 56.1862 30.2066C56.1981 30.3095 56.2048 30.4139 56.2048 30.52V33.522V36.7913C58.617 38.4242 60.2025 41.186 60.2025 44.3182V44.3727L64.2001 40.375V43.076C64.2001 44.7383 62.8525 46.0859 61.1902 46.0859H60.2025H58.4892H50.4939H49.9628V44.3327L50.4939 43.8016V42.5741C49.4357 41.6548 48.7666 40.2993 48.7666 38.7875V38.536C48.7666 36.7085 49.7444 35.1096 51.2053 34.2333L50.4939 33.522H50.187C48.7825 33.522 47.644 32.3041 47.644 30.8019V30.0954H49.3829V30.0954Z" fill="#1D2025"/>
<path d="M52.1144 18.9016L18.9858 52.0273L19.7899 52.8315L52.9185 19.7057L52.1144 18.9016Z" fill="#1D2025"/>
<path d="M19.7904 18.9012L18.9863 19.7053L52.1135 52.8325L52.9176 52.0284L19.7904 18.9012Z" fill="#1D2025"/>
<path d="M36.0368 72.0735C26.4111 72.0735 17.3613 68.3251 10.5549 61.5186C3.74855 54.7122 0 45.6625 0 36.0368C0 26.411 3.74855 17.3614 10.5549 10.5549C17.3613 3.74849 26.4111 0 36.0368 0C45.6625 0 54.7122 3.74849 61.5187 10.5549C68.325 17.3614 72.0735 26.411 72.0735 36.0368C72.0735 45.6625 68.325 54.7122 61.5187 61.5186C54.7122 68.3251 45.6625 72.0735 36.0368 72.0735ZM36.0368 2.41667C27.0566 2.41667 18.6138 5.91377 12.2638 12.2638C5.91381 18.6138 2.41667 27.0565 2.41667 36.0368C2.41667 45.017 5.91381 53.4598 12.2638 59.8098C18.6138 66.1598 27.0566 69.6569 36.0368 69.6569C45.0169 69.6569 53.4597 66.1598 59.8097 59.8098C66.1597 53.4598 69.6569 45.017 69.6569 36.0368C69.6569 27.0565 66.1597 18.6138 59.8097 12.2638C53.4597 5.91377 45.0169 2.41667 36.0368 2.41667Z" fill="#1D2025"/>
<path d="M92.1481 8.62207H96.3277V10.1148C101.104 10.1148 104.687 12.0851 104.687 18.444V19.3993C104.687 25.7582 101.104 27.7286 96.3277 27.7286V29.2213H92.1481V27.7286C87.3716 27.7286 83.7891 25.7582 83.7891 19.3993V18.444C83.7891 12.0851 87.3716 10.1148 92.1481 10.1148V8.62207ZM92.1481 13.6375C89.4016 13.6375 87.9687 14.6526 87.9687 18.444V19.3993C87.9687 23.1908 89.4016 24.2058 92.1481 24.2058V13.6375ZM96.3277 24.2058C99.1041 24.2058 100.507 23.1908 100.507 19.3993V18.444C100.507 14.6526 99.1041 13.6375 96.3277 13.6375V24.2058Z" fill="#1D2025"/>
<path d="M112.523 20.2651H115.478V19.3993C115.478 17.7275 114.971 17.1902 112.821 17.1902C111.358 17.1902 110.642 17.3992 110.015 18.3843L107.328 16.5035C108.432 14.6824 110.104 14.0256 113.179 14.0256C117.03 14.0256 119.21 15.1601 119.21 19.4292V29.2213H115.478V27.9077C114.881 28.9228 113.985 29.49 112.254 29.49C109.149 29.49 107 27.848 107 24.8029C107 21.6384 109.388 20.2651 112.523 20.2651ZM115.478 23.0714H112.97C111.418 23.0714 110.731 23.5789 110.731 24.7432C110.731 25.8776 111.597 26.415 112.911 26.415C114.642 26.415 115.478 25.6687 115.478 23.6386V23.0714Z" fill="#1D2025"/>
<path d="M126.413 19.9667H131.1V14.2944H134.921V29.2214H131.1V23.2207H126.413V29.2214H122.591V14.2944H126.413V19.9667Z" fill="#1D2025"/>
<path d="M138.503 33.1023V25.6985H139.817C140.324 25.1313 140.802 24.2058 141.16 23.1908C141.757 21.2503 142.085 19.1605 142.085 14.1451V8.62207H155.848V25.6985H158.416V33.1023H154.654V29.2213H142.265V33.1023H138.503V33.1023ZM144.444 25.6985H151.669V12.1747H146.265V14.1451C146.265 19.9069 145.817 22.2952 145.011 24.564C144.862 24.9821 144.653 25.3403 144.444 25.6985Z" fill="#1D2025"/>
<path d="M173.408 22.6236C173.408 26.7136 171.467 29.49 166.959 29.49C162.63 29.49 160.511 26.8031 160.511 22.6236V20.8324C160.511 16.3543 162.869 14.0256 166.959 14.0256C171.109 14.0256 173.408 16.3543 173.408 20.8324V22.6236ZM169.616 22.5042V20.9518C169.616 18.5635 168.84 17.2498 166.959 17.2498C165.078 17.2498 164.302 18.5635 164.302 20.9518V22.5042C164.302 24.6537 164.839 26.2658 166.959 26.2658C169.049 26.2658 169.616 24.6537 169.616 22.5042Z" fill="#1D2025"/>
<path d="M186.265 17.5186H180.174V29.2214H176.353V14.2944H186.265V17.5186Z" fill="#1D2025"/>
<path d="M200 26.9524C198.955 28.7138 197.253 29.49 194.567 29.49C190.297 29.49 187.909 26.8031 187.909 22.743V20.7129C187.909 16.3543 190.327 14.0256 194.775 14.0256C197.074 14.0256 198.955 14.8616 200 16.5035L197.134 18.5037C196.626 17.7872 195.88 17.2498 194.686 17.2498C192.536 17.2498 191.7 18.5635 191.7 20.9518V22.5042C191.7 24.6537 192.268 26.2658 194.686 26.2658C195.82 26.2658 196.626 25.8776 197.164 24.9821L200 26.9524Z" fill="#1D2025"/>
<path d="M86.0541 47.0355H88.5411V39.989H89.5312V47.0355H92.0183V39.989H93.0085V47.9336H85.064V39.989H86.0541V47.0355Z" fill="#1D2025"/>
<path d="M98.7408 42.1768L96.8527 44.963L98.9251 47.9336H97.8082L96.0697 45.4466H95.3098V47.9336H94.3887V42.1768H95.3098V44.6407H96.0006L97.6586 42.1768H98.7408Z" fill="#1D2025"/>
<path d="M103.903 45.4235C103.903 46.9203 103.166 48.0256 101.508 48.0256C99.9763 48.0256 99.1128 47.0124 99.1128 45.4235V44.6636C99.1128 43.0286 99.9993 42.0845 101.508 42.0845C103.027 42.0845 103.903 43.0171 103.903 44.6636V45.4235ZM102.981 45.4235V44.6636C102.981 43.5698 102.452 42.9135 101.508 42.9135C100.564 42.9135 100.034 43.5813 100.034 44.6636V45.4235C100.034 46.4137 100.448 47.1966 101.508 47.1966C102.486 47.1966 102.981 46.4022 102.981 45.4235Z" fill="#1D2025"/>
<path d="M109.308 42.1768V47.9336H108.387V43.0057H106.361V44.8134C106.361 45.723 106.269 46.4253 106.062 46.9204C105.739 47.6919 105.117 48.0142 104.415 48.0718V47.1507C104.783 47.0471 105.083 46.8629 105.255 46.3562C105.428 45.8612 105.44 45.2509 105.44 44.491V42.1768H109.308Z" fill="#1D2025"/>
<path d="M112.416 44.606H113.786V43.9382C113.786 43.1207 113.406 42.9365 112.508 42.9365C111.818 42.9365 111.449 42.9941 111.127 43.5237L110.436 43.0401C110.839 42.3723 111.426 42.0845 112.52 42.0845C113.982 42.0845 114.707 42.5565 114.707 43.9382V47.9335H113.786V47.3693C113.464 47.899 113.073 48.0256 112.324 48.0256C110.989 48.0256 110.263 47.3693 110.263 46.2525C110.263 45.009 111.15 44.606 112.416 44.606ZM113.786 45.389H112.416C111.507 45.389 111.184 45.6998 111.184 46.2755C111.184 46.9203 111.645 47.1736 112.324 47.1736C113.176 47.1736 113.786 47.0124 113.786 45.7229V45.389Z" fill="#1D2025"/>
<path d="M118.531 49.2807V47.1046H118.98C119.153 46.978 119.279 46.7247 119.44 46.3447C119.682 45.7345 119.717 44.5601 119.717 43.616V42.1768H123.47V47.1046H124.276V49.2807H123.355V47.9336H119.452V49.2807H118.531ZM120.097 47.1046H122.549V43.0057H120.638V43.7771C120.638 44.9401 120.546 46.2181 120.212 46.8974C120.177 46.9779 120.131 47.0471 120.097 47.1046Z" fill="#1D2025"/>
<path d="M127.615 42.0845C129.043 42.0845 129.918 43.0171 129.918 44.6636V45.4235C129.918 46.9203 129.181 48.0256 127.615 48.0256C126.855 48.0256 126.36 47.7839 126.049 47.3578V50.1211H125.128V42.1767H126.049V42.7523C126.36 42.3263 126.855 42.0845 127.615 42.0845ZM128.997 45.4235V44.6636C128.997 43.5698 128.467 42.9135 127.523 42.9135C126.602 42.9135 126.049 43.5468 126.049 44.583V45.4235C126.049 46.4137 126.464 47.1966 127.523 47.1966C128.501 47.1966 128.997 46.4022 128.997 45.4235Z" fill="#1D2025"/>
<path d="M135.221 47.0584C134.818 47.7608 134.208 48.0256 133.206 48.0256C131.663 48.0256 130.742 47.0239 130.742 45.4235V44.6636C130.742 43.0286 131.513 42.0845 133.022 42.0845C134.542 42.0845 135.302 43.0171 135.302 44.6636V45.2623H131.663V45.4235C131.663 46.4137 132.135 47.1966 133.137 47.1966C133.885 47.1966 134.265 46.9778 134.507 46.5519L135.221 47.0584ZM131.663 44.4564H134.369C134.323 43.4892 133.897 42.9135 133.022 42.9135C132.135 42.9135 131.721 43.5007 131.663 44.4564Z" fill="#1D2025"/>
<path d="M140.667 47.0584C140.31 47.7263 139.608 48.0256 138.675 48.0256C137.098 48.0256 136.188 47.0124 136.188 45.4235V44.6636C136.188 43.0286 137.121 42.0845 138.675 42.0845C139.539 42.0845 140.253 42.3954 140.667 42.9826L139.942 43.4892C139.689 43.1207 139.205 42.9135 138.675 42.9135C137.685 42.9135 137.109 43.5813 137.109 44.6636V45.4235C137.109 46.4137 137.57 47.1966 138.675 47.1966C139.217 47.1966 139.712 47.0124 139.954 46.5519L140.667 47.0584Z" fill="#1D2025"/>
<path d="M145.652 47.0584C145.295 47.7263 144.593 48.0256 143.66 48.0256C142.083 48.0256 141.173 47.0124 141.173 45.4235V44.6636C141.173 43.0286 142.105 42.0845 143.66 42.0845C144.523 42.0845 145.237 42.3954 145.652 42.9826L144.926 43.4892C144.673 43.1207 144.19 42.9135 143.66 42.9135C142.67 42.9135 142.094 43.5813 142.094 44.6636V45.4235C142.094 46.4137 142.555 47.1966 143.66 47.1966C144.201 47.1966 144.696 47.0124 144.938 46.5519L145.652 47.0584Z" fill="#1D2025"/>
<path d="M147.398 46.3332L150.265 42.1768H151.151V47.9336H150.23V43.6965L147.34 47.9336H146.477V42.1768H147.398V46.3332Z" fill="#1D2025"/>
<path d="M154.905 42.0845C156.333 42.0845 157.208 43.0171 157.208 44.6636V45.4235C157.208 46.9203 156.471 48.0256 154.905 48.0256C154.145 48.0256 153.65 47.7839 153.339 47.3578V50.1211H152.418V42.1767H153.339V42.7523C153.65 42.3263 154.145 42.0845 154.905 42.0845ZM156.287 45.4235V44.6636C156.287 43.5698 155.757 42.9135 154.813 42.9135C153.892 42.9135 153.339 43.5468 153.339 44.583V45.4235C153.339 46.4137 153.754 47.1966 154.813 47.1966C155.792 47.1966 156.287 46.4022 156.287 45.4235Z" fill="#1D2025"/>
<path d="M162.822 45.4235C162.822 46.9203 162.086 48.0256 160.427 48.0256C158.896 48.0256 158.033 47.0124 158.033 45.4235V44.6636C158.033 43.0286 158.919 42.0845 160.427 42.0845C161.947 42.0845 162.822 43.0171 162.822 44.6636V45.4235ZM161.901 45.4235V44.6636C161.901 43.5698 161.372 42.9135 160.427 42.9135C159.483 42.9135 158.954 43.5813 158.954 44.6636V45.4235C158.954 46.4137 159.368 47.1966 160.427 47.1966C161.406 47.1966 161.901 46.4022 161.901 45.4235Z" fill="#1D2025"/>
<path d="M165.999 42.1768C167.243 42.1768 168.049 42.6833 168.049 43.6735C168.049 44.1917 167.726 44.6061 167.312 44.8019C167.899 44.9861 168.382 45.5272 168.382 46.2872C168.382 47.1162 167.784 47.9336 166.299 47.9336H163.869V42.1768H165.999ZM164.79 44.5025H165.861C166.667 44.5025 167.012 44.2146 167.012 43.7426C167.012 43.3051 166.748 43.0057 165.734 43.0057H164.79V44.5025ZM164.79 47.1046H166.08C166.897 47.1046 167.346 46.8513 167.346 46.2066C167.346 45.5503 166.932 45.3315 165.942 45.3315H164.79V47.1046Z" fill="#1D2025"/>
<path d="M173.663 42.1768L171.775 44.963L173.847 47.9336H172.731L170.992 45.4466H170.232V47.9336H169.311V42.1768H170.232V44.6407H170.923L172.581 42.1768H173.663Z" fill="#1D2025"/>
<path d="M175.568 46.3332L178.435 42.1768H179.322V47.9336H178.401V43.6965L175.51 47.9336H174.647V42.1768H175.568V46.3332Z" fill="#1D2025"/>
<path d="M88.4145 58.7576L90.7863 53.8066H91.7649V61.7512H90.7748V55.9252L88.8404 60.0932H87.9539L86.0541 55.9597V61.7512H85.064V53.8066H86.031L88.4145 58.7576Z" fill="#1D2025"/>
<path d="M94.9828 58.4236H96.3528V57.7558C96.3528 56.9384 95.9729 56.7541 95.0748 56.7541C94.384 56.7541 94.0156 56.8117 93.6932 57.3414L93.0024 56.8578C93.4053 56.19 93.9925 55.9021 95.0863 55.9021C96.5486 55.9021 97.2739 56.3742 97.2739 57.7558V61.7511H96.3528V61.187C96.0305 61.7166 95.639 61.8433 94.8906 61.8433C93.5551 61.8433 92.8296 61.187 92.8296 60.0701C92.8296 58.8267 93.7163 58.4236 94.9828 58.4236ZM96.3528 59.2066H94.9828C94.0732 59.2066 93.7508 59.5174 93.7508 60.0932C93.7508 60.7379 94.2113 60.9912 94.8906 60.9912C95.7427 60.9912 96.3528 60.83 96.3528 59.5405V59.2066Z" fill="#1D2025"/>
<path d="M101.017 55.9021C102.445 55.9021 103.32 56.8347 103.32 58.4812V59.2411C103.32 60.7379 102.583 61.8433 101.017 61.8433C100.257 61.8433 99.7622 61.6015 99.4514 61.1754V63.9388H98.5303V55.9943H99.4514V56.5699C99.7622 56.1439 100.257 55.9021 101.017 55.9021ZM102.399 59.2411V58.4812C102.399 57.3874 101.869 56.7312 100.925 56.7312C100.004 56.7312 99.4514 57.3644 99.4514 58.4006V59.2411C99.4514 60.2314 99.8659 61.0143 100.925 61.0143C101.904 61.0143 102.399 60.2198 102.399 59.2411Z" fill="#1D2025"/>
<path d="M105.288 60.1508L108.155 55.9944H109.042V61.7513H108.121V57.5142L105.231 61.7513H104.367V55.9944H105.288V60.1508Z" fill="#1D2025"/>
<path d="M111.23 60.1508L114.097 55.9944H114.983V61.7513H114.062V57.5142L111.172 61.7513H110.309V55.9944H111.23V60.1508Z" fill="#1D2025"/>
<path d="M122.41 53.8066H123.401V54.4284C125.162 54.4284 126.624 55.1423 126.624 57.5947V57.9631C126.624 60.4156 125.162 61.1295 123.401 61.1295V61.7512H122.41V61.1295C120.649 61.1295 119.187 60.4156 119.187 57.9631V57.5947C119.187 55.1423 120.649 54.4284 122.41 54.4284V53.8066ZM122.41 55.3265C121.19 55.3265 120.177 55.741 120.177 57.5947V57.9631C120.177 59.8169 121.19 60.2314 122.41 60.2314V55.3265ZM123.401 60.2314C124.621 60.2314 125.634 59.8169 125.634 57.9631V57.5947C125.634 55.741 124.621 55.3265 123.401 55.3265V60.2314Z" fill="#1D2025"/>
<path d="M129.554 58.4236H130.924V57.7558C130.924 56.9384 130.544 56.7541 129.646 56.7541C128.955 56.7541 128.587 56.8117 128.264 57.3414L127.574 56.8578C127.976 56.19 128.564 55.9021 129.657 55.9021C131.12 55.9021 131.845 56.3742 131.845 57.7558V61.7511H130.924V61.187C130.602 61.7166 130.21 61.8433 129.462 61.8433C128.126 61.8433 127.401 61.187 127.401 60.0701C127.401 58.8267 128.287 58.4236 129.554 58.4236ZM130.924 59.2066H129.554C128.644 59.2066 128.322 59.5174 128.322 60.0932C128.322 60.7379 128.782 60.9912 129.462 60.9912C130.314 60.9912 130.924 60.83 130.924 59.5405V59.2066Z" fill="#1D2025"/>
<path d="M134.028 58.4122H136.745V55.9944H137.666V61.7513H136.745V59.2412H134.028V61.7513H133.106V55.9944H134.028V58.4122Z" fill="#1D2025"/>
<path d="M138.501 63.0983V60.9223H138.95C139.123 60.7956 139.249 60.5423 139.411 60.1623C139.652 59.5521 139.687 58.3777 139.687 57.4336V55.9944H143.44V60.9223H144.246V63.0983H143.325V61.7513H139.422V63.0983H138.501ZM140.067 60.9223H142.519V56.8233H140.608V57.5948C140.608 58.7577 140.516 60.0357 140.182 60.715C140.147 60.7956 140.101 60.8647 140.067 60.9223Z" fill="#1D2025"/>
<path d="M149.256 60.8761C148.853 61.5784 148.243 61.8433 147.241 61.8433C145.698 61.8433 144.777 60.8416 144.777 59.2411V58.4812C144.777 56.8462 145.549 55.9021 147.057 55.9021C148.577 55.9021 149.337 56.8347 149.337 58.4812V59.0799H145.698V59.2411C145.698 60.2314 146.17 61.0143 147.172 61.0143C147.92 61.0143 148.3 60.7955 148.542 60.3695L149.256 60.8761ZM145.698 58.274H148.404C148.358 57.3068 147.932 56.7312 147.057 56.7312C146.17 56.7312 145.756 57.3183 145.698 58.274Z" fill="#1D2025"/>
<path d="M154.702 60.8761C154.299 61.5784 153.689 61.8433 152.688 61.8433C151.145 61.8433 150.224 60.8416 150.224 59.2411V58.4812C150.224 56.8462 150.995 55.9021 152.503 55.9021C154.023 55.9021 154.783 56.8347 154.783 58.4812V59.0799H151.145V59.2411C151.145 60.2314 151.617 61.0143 152.618 61.0143C153.367 61.0143 153.747 60.7955 153.989 60.3695L154.702 60.8761ZM151.145 58.274H153.85C153.804 57.3068 153.378 56.7312 152.503 56.7312C151.617 56.7312 151.202 57.3183 151.145 58.274Z" fill="#1D2025"/>
<path d="M157.971 55.9944C159.214 55.9944 160.02 56.501 160.02 57.4911C160.02 58.0093 159.698 58.4238 159.283 58.6195C159.871 58.8037 160.354 59.3449 160.354 60.1048C160.354 60.9338 159.756 61.7513 158.27 61.7513H155.841V55.9944H157.971ZM156.762 58.3201H157.833C158.639 58.3201 158.984 58.0323 158.984 57.5602C158.984 57.1227 158.719 56.8233 157.706 56.8233H156.762V58.3201ZM156.762 60.9223H158.051C158.869 60.9223 159.318 60.669 159.318 60.0242C159.318 59.3679 158.903 59.1491 157.913 59.1491H156.762V60.9223Z" fill="#1D2025"/>
<path d="M165.924 59.2411C165.924 60.7379 165.188 61.8433 163.529 61.8433C161.998 61.8433 161.135 60.83 161.135 59.2411V58.4812C161.135 56.8462 162.021 55.9021 163.529 55.9021C165.049 55.9021 165.924 56.8347 165.924 58.4812V59.2411ZM165.003 59.2411V58.4812C165.003 57.3874 164.474 56.7312 163.529 56.7312C162.585 56.7312 162.056 57.3989 162.056 58.4812V59.2411C162.056 60.2314 162.47 61.0143 163.529 61.0143C164.508 61.0143 165.003 60.2198 165.003 59.2411Z" fill="#1D2025"/>
<path d="M167.877 60.1507L170.744 55.9943H171.63V61.7512H170.709V57.5141L167.819 61.7512H166.956V55.9943H167.877V60.1507ZM170.859 53.8066C170.859 54.7048 170.306 55.1653 169.293 55.1653C168.28 55.1653 167.727 54.7048 167.727 53.8066H168.544C168.544 54.2557 168.74 54.5205 169.293 54.5205C169.845 54.5205 170.041 54.2557 170.041 53.8066H170.859Z" fill="#1D2025"/>
</g>
</svg>
