<?xml version="1.0" encoding="utf-8"?>
<!-- Generator: Adobe Illustrator 24.0.2, SVG Export Plug-In . SVG Version: 6.00 Build 0)  -->
<svg version="1.1" id="Слой_1" xmlns="http://www.w3.org/2000/svg" xmlns:xlink="http://www.w3.org/1999/xlink" x="0px" y="0px"
	 viewBox="0 0 742.1 261.9" style="enable-background:new 0 0 742.1 261.9;" xml:space="preserve">
<style type="text/css">
	.st0{fill:#FFFFFF;filter:url(#Adobe_OpacityMaskFilter);}
	.st1{mask:url(#mask0_1_);}
	.st2{fill:#E0D9EB;}
	.st3{fill:#56CCF2;}
	.st4{fill:#FFBD99;}
	.st5{fill:#F2C94C;}
	.st6{fill:#F78F85;}
	.st7{fill:#C2ECFF;}
	.st8{fill:#FCD2D2;}
	.st9{fill:#D08CED;}
	.st10{fill:#DD4E6A;}
	.st11{display:none;fill:#FFFFFF;}
</style>
<defs>
	<filter id="Adobe_OpacityMaskFilter" filterUnits="userSpaceOnUse" x="-52.9" y="-46.1" width="775" height="387.3">
		<feColorMatrix  type="matrix" values="1 0 0 0 0  0 1 0 0 0  0 0 1 0 0  0 0 0 1 0"/>
	</filter>
</defs>
<mask maskUnits="userSpaceOnUse" x="-52.9" y="-46.1" width="775" height="387.3" id="mask0_1_">
	<rect x="-1.9" y="-0.1" class="st0" width="744" height="262"/>
</mask>
<g class="st1">
	<path class="st2" d="M265.1,20.9l-30,30l6.4,6.4l30-30L265.1,20.9z"/>
	<path class="st3" d="M416.1,71.9c14.9,0,27-12.1,27-27s-12.1-27-27-27s-27,12.1-27,27S401.2,71.9,416.1,71.9z"/>
	<path class="st4" d="M588.1,207.9l-95,95l12,12l95-95L588.1,207.9z"/>
	<path class="st5" d="M24.1,107.9c-42.5,0-77-34.5-77-77s34.5-77,77-77s77,34.5,77,77S66.6,107.9,24.1,107.9z M24.1-32.1
		c-34.7,0-63,28.3-63,63s28.3,63,63,63s63-28.3,63-63S58.8-32.1,24.1-32.1z"/>
	<path class="st6" d="M722.1,170.9l-12-12l-65,65l12,12L722.1,170.9z"/>
	<path class="st7" d="M119.8,341.2l4.9-4.9l-15.3-15.3c-7.1-7.1-7.1-18.6,0-25.7c7.1-7.1,18.6-7.1,25.7,0c9.8,9.8,25.8,9.8,35.6,0
		c9.8-9.8,9.8-25.8,0-35.6c-7.1-7.1-7.1-18.6,0-25.7c7.1-7.1,18.6-7.1,25.7,0c9.8,9.8,25.8,9.8,35.6,0c9.8-9.8,9.8-25.8,0-35.6
		l-15.3-15.3l-4.9,4.9l15.3,15.3c7.1,7.1,7.1,18.6,0,25.7c-7.1,7.1-18.6,7.1-25.7,0c-9.8-9.8-25.8-9.8-35.6,0
		c-9.8,9.8-9.8,25.8,0,35.6c7.1,7.1,7.1,18.6,0,25.7c-7.1,7.1-18.6,7.1-25.7,0c-9.8-9.8-25.8-9.8-35.6,0c-9.8,9.8-9.8,25.8,0,35.6
		L119.8,341.2z"/>
	<path class="st6" d="M610.6,72.1l-4.9-4.9L616.7,56c2.3-2.3,3.6-5.4,3.6-8.7c0-3.3-1.3-6.3-3.6-8.6c-2.3-2.3-5.4-3.6-8.7-3.6
		c-3.3,0-6.3,1.3-8.7,3.6c-7.5,7.5-19.7,7.5-27.2,0c-7.5-7.5-7.5-19.7,0-27.2c2.3-2.3,3.6-5.4,3.6-8.6c0-3.3-1.3-6.3-3.6-8.7
		c-2.3-2.3-5.4-3.6-8.6-3.6c-3.3,0-6.3,1.3-8.6,3.6c-7.5,7.5-19.7,7.5-27.2,0c-3.6-3.6-5.6-8.5-5.6-13.6s2-10,5.6-13.6l11.1-11.1
		l4.9,4.9l-11.1,11.1c-2.3,2.3-3.6,5.4-3.6,8.6c0,3.3,1.3,6.3,3.6,8.6c4.8,4.8,12.5,4.8,17.3,0c3.6-3.6,8.5-5.6,13.6-5.6
		c5.1,0,10,2,13.6,5.6c3.6,3.6,5.6,8.5,5.6,13.6c0,5.1-2,10-5.6,13.6c-4.8,4.8-4.8,12.5,0,17.3c4.8,4.8,12.5,4.8,17.3,0
		c3.6-3.6,8.5-5.6,13.6-5.6s10,2,13.6,5.6c3.6,3.6,5.6,8.5,5.6,13.6c0,5.1-2,10-5.6,13.6L610.6,72.1z"/>
	<path class="st8" d="M376.1,189.9l-12,12l38,38l12-12L376.1,189.9z"/>
	<path class="st9" d="M715.5,90.2l-6.4-6.4l-45,45l6.4,6.4L715.5,90.2z"/>
	<path class="st10" d="M50.1,230.9c11,0,20-9,20-20s-9-20-20-20s-20,9-20,20S39.1,230.9,50.1,230.9z"/>
</g>
<path class="st11" d="M4.8-156.9c3.5,0,5.5-1.8,5.5-4.7c0-2.9-2-4.7-5.5-4.7H0v15.2h1.9v-5.8H4.8z M1.9-158.6v-6h2.9
	c2.6,0,3.6,1.1,3.6,3c0,1.9-1.1,3-3.6,3H1.9z M11.5-154.4c0,2.1,1.4,3.4,3.9,3.4c1.4,0,2.2-0.2,2.8-1.3v1.1H20v-7.6
	c0-2.6-1.4-3.5-4.2-3.5c-2.1,0-3.2,0.6-4,1.8l1.3,0.9c0.6-1,1.3-1.1,2.6-1.1c1.7,0,2.4,0.4,2.4,1.9v1.3h-2.6
	C13.2-157.5,11.5-156.7,11.5-154.4z M18.2-155.4c0,2.5-1.2,2.8-2.8,2.8c-1.3,0-2.2-0.5-2.2-1.7c0-1.1,0.6-1.7,2.4-1.7h2.6V-155.4z
	 M29.5-153.8c-0.5,0.9-1.4,1.2-2.4,1.2c-2.1,0-3-1.5-3-3.4v-1.5c0-2.1,1.1-3.3,3-3.3c1,0,1.9,0.4,2.4,1.1l1.4-1
	c-0.8-1.1-2.2-1.7-3.8-1.7c-3,0-4.8,1.8-4.8,4.9v1.5c0,3,1.7,5,4.8,5c1.8,0,3.1-0.6,3.8-1.8L29.5-153.8z M32.6-162.1v11h1.8v-9.4
	h5.2v9.4h1.8v-11H32.6z M46-162.1h-1.8v11h1.6l5.5-8.1v8.1h1.8v-11h-1.7l-5.5,7.9V-162.1z M62.6-153.8c-0.5,0.9-1.4,1.2-2.4,1.2
	c-2.1,0-3-1.5-3-3.4v-1.5c0-2.1,1.1-3.3,3-3.3c1,0,1.9,0.4,2.4,1.1l1.4-1c-0.8-1.1-2.2-1.7-3.8-1.7c-3,0-4.8,1.8-4.8,4.9v1.5
	c0,3,1.7,5,4.8,5c1.8,0,3.1-0.6,3.8-1.8L62.6-153.8z M65.2-154.4c0,2.1,1.4,3.4,3.9,3.4c1.4,0,2.2-0.2,2.8-1.3v1.1h1.8v-7.6
	c0-2.6-1.4-3.5-4.2-3.5c-2.1,0-3.2,0.6-4,1.8l1.3,0.9c0.6-1,1.3-1.1,2.6-1.1c1.7,0,2.4,0.4,2.4,1.9v1.3h-2.6
	C66.9-157.5,65.2-156.7,65.2-154.4z M72-155.4c0,2.5-1.2,2.8-2.8,2.8c-1.3,0-2.2-0.5-2.2-1.7c0-1.1,0.6-1.7,2.4-1.7H72V-155.4z
	 M78.3-162.1h-1.8v11h1.8v-4.8h5.2v4.8h1.8v-11h-1.8v4.6h-5.2V-162.1z M89.9-162.1h-1.8v11h1.7l5.5-8.1v8.1h1.8v-11h-1.7l-5.5,7.9
	V-162.1z M106.6-153.8c-0.5,0.8-1.2,1.2-2.6,1.2c-1.9,0-2.8-1.5-2.8-3.4v-0.3h7v-1.1c0-3.1-1.5-4.9-4.4-4.9c-2.9,0-4.4,1.8-4.4,4.9
	v1.5c0,3.1,1.8,5,4.7,5c1.9,0,3.1-0.5,3.9-1.8L106.6-153.8z M103.8-160.7c1.7,0,2.5,1.1,2.6,2.9h-5.2
	C101.3-159.6,102.1-160.7,103.8-160.7z"/>
<path class="st10" d="M123.6,136.4c12.2,0,19.6-6.1,19.6-17.2c0-11.2-7.5-16.8-19.6-16.8h-18.8v52.4h10.6v-18.5H123.6z M115.4,127.4
	v-16h6.6c7.4,0,10.5,2.7,10.5,7.8c0,5.6-3.1,8.2-10.5,8.2H115.4z M159.4,154.9l3.2-10h17.6l3.2,10h11.3l-18.2-52.4h-10.2L148,154.9
	H159.4z M171.4,117.5l5.9,18.5h-11.9L171.4,117.5z M243.5,118.7c-1.7-11.5-8.8-16.9-19.2-16.9c-11.8,0-20.1,7-20.1,23.2v7.4
	c0,16,8.3,23.2,20.1,23.2c10.8,0,17.4-5.2,19.2-16.9h-10.1c-1.1,5.3-3.7,8-9,8c-6.2,0-9.4-4.5-9.4-14.2v-7.4c0-10,3.3-14.2,9.4-14.2
	c5.2,0,8.1,3,9,8H243.5z M258.5,102.4v52.4h10.6v-43.4h19v43.4h10.6v-52.4H258.5z M316.7,102.4v52.4h8.7l21.7-32.5v32.5h10.6v-52.4
	h-8.5l-21.9,32.9v-32.9H316.7z M413.4,118.7c-1.7-11.5-8.8-16.9-19.2-16.9c-11.8,0-20.1,7-20.1,23.2v7.4c0,16,8.3,23.2,20.1,23.2
	c10.8,0,17.4-5.2,19.2-16.9h-10.1c-1.1,5.3-3.7,8-9,8c-6.2,0-9.4-4.5-9.4-14.2v-7.4c0-10,3.3-14.2,9.4-14.2c5.2,0,8.1,3,9,8H413.4z
	 M433.8,154.9l3.2-10h17.6l3.2,10h11.3l-18.2-52.4h-10.2l-18.2,52.4H433.8z M445.8,117.5l5.9,18.5h-11.9L445.8,117.5z M492.3,102.4
	h-10.6v52.4h10.6v-22.6h18.2v22.6h10.6v-52.4h-10.6v20.8h-18.2V102.4z M539.1,102.4v52.4h8.7l21.7-32.5v32.5h10.6v-52.4h-8.5
	l-21.9,32.9v-32.9H539.1z M598.1,102.4v52.4h32.7v-9h-22v-13.7h19.8v-9h-19.8v-11.8h22v-9H598.1z"/>
</svg>
