<svg width="170" height="160" viewBox="0 0 170 160" fill="none" xmlns="http://www.w3.org/2000/svg">
<path d="M79.9241 72.5C59.9359 72.5 43.6741 56.2382 43.6741 36.25C43.6741 16.2618 59.9359 0 79.9241 0C99.9123 0 116.174 16.2618 116.174 36.25C116.174 56.2382 99.9123 72.5 79.9241 72.5ZM79.9241 5.83333C63.1524 5.83333 49.5074 19.4784 49.5074 36.25C49.5074 53.0216 63.1524 66.6667 79.9241 66.6667C96.6957 66.6667 110.341 53.0216 110.341 36.25C110.341 19.4784 96.6957 5.83333 79.9241 5.83333Z" fill="#FFF099"/>
<path d="M140.341 107.083C148.395 107.083 154.924 100.554 154.924 92.5C154.924 84.4458 148.395 77.9166 140.341 77.9166C132.287 77.9166 125.757 84.4458 125.757 92.5C125.757 100.554 132.287 107.083 140.341 107.083Z" fill="#FFBA5F"/>
<path d="M56.5884 83.744L17.0049 123.328L22.0139 128.336L61.5974 88.7529L56.5884 83.744Z" fill="#FF9C9C"/>
<path d="M28.1586 92.8144L15.6584 105.314L19.1936 108.85L31.6938 96.3496L28.1586 92.8144Z" fill="#C2ECFF"/>
<path d="M166.101 105.756L153.601 118.256L156.252 120.907L168.752 108.407L166.101 105.756Z" fill="#7D74ED"/>
<path d="M6.31927 99.7811L2.15057 95.6124C-0.716858 92.7454 -0.716858 88.0802 2.15057 85.2132C3.53933 83.8241 5.38584 83.0591 7.34996 83.0591C9.31447 83.0591 11.161 83.8241 12.5497 85.2132C14.2803 86.943 17.0952 86.943 18.825 85.2132C20.5547 83.4831 20.5547 80.6681 18.825 78.938C15.9575 76.071 15.9575 71.4054 18.825 68.5384C20.2137 67.1493 22.0606 66.3843 24.0248 66.3843C25.9889 66.3843 27.8358 67.1493 29.2245 68.5384C30.0628 69.3762 31.1769 69.8376 32.3622 69.8376C33.5471 69.8376 34.6611 69.3762 35.4994 68.5384C36.3376 67.7002 36.799 66.5861 36.799 65.4008C36.799 64.2159 36.3376 63.1018 35.4994 62.2636L31.3311 58.0949L33.3932 56.0327L37.5615 60.2014C38.9507 61.5902 39.7157 63.4367 39.7157 65.4008C39.7157 67.3653 38.9507 69.2118 37.5615 70.601C34.6933 73.4672 30.0282 73.4676 27.1624 70.6006C26.3242 69.7628 25.2101 69.3009 24.0248 69.3009C22.8395 69.3009 21.7254 69.7628 20.8871 70.6006C20.0493 71.4388 19.5875 72.5529 19.5875 73.7382C19.5875 74.9235 20.0493 76.0376 20.8871 76.8758C23.7542 79.7428 23.7542 84.408 20.8876 87.2754C18.0197 90.1424 13.3546 90.1424 10.4876 87.2754C9.64935 86.4372 8.53525 85.9758 7.34996 85.9758C6.16506 85.9758 5.05096 86.4372 4.21275 87.2754C3.37494 88.1136 2.91311 89.2277 2.91311 90.413C2.91311 91.5979 3.37494 92.712 4.21275 93.5502L8.38145 97.7189L6.31927 99.7811Z" fill="#D08CED"/>
<path d="M169.507 159.167L94.5074 84.1667V50.8334H115.341V55.0001H152.841L140.341 42.5001L152.841 30.0001H123.674V25.8334H94.5074V21.6667H86.1741V84.1667L11.1741 159.167H169.507Z" fill="#E85869"/>
<path d="M90.3405 21.6667H86.1738V84.1667L90.3405 80.0001V21.6667Z" fill="#A31952"/>
<path d="M94.5073 25.8335V50.8335L98.674 46.6668V25.8335H94.5073Z" fill="#A31952"/>
<path d="M127.841 55L140.341 42.5L152.841 30H123.674V55H127.841Z" fill="#CE2E63"/>
<path d="M115.341 55L119.507 50.8334H115.341V55Z" fill="#A31952"/>
<path d="M152.841 55.0001L140.341 42.5001L127.841 55.0001H152.841Z" fill="#A31952"/>
<path d="M123.674 25.8335H107.007L123.674 42.5002V25.8335Z" fill="#FFBD99"/>
<path d="M57.0073 159.167H82.0073L69.5073 146.667L57.0073 159.167Z" fill="#E85869"/>
<path d="M119.507 159.167H134.091V144.583L119.507 159.167Z" fill="#E85869"/>
<path d="M90.3407 80.0001L57.0073 113.333L77.8407 134.167L98.674 113.333L107.007 121.667L119.507 109.167L90.3407 80.0001Z" fill="#FFBD99"/>
<path d="M136.176 125.832L111.176 150.832L115.343 154.998L140.343 129.998L136.176 125.832Z" fill="#F78F85"/>
<path d="M140.408 130L115.408 155L102.908 142.5L86.2415 159.167H169.44L140.408 130Z" fill="#CE2E63"/>
<path d="M36.1741 159.167L54.9241 140.417L73.6741 159.167H36.1741Z" fill="#A31952"/>
<path d="M27.8407 159.167L65.3408 121.667L57.0074 113.333L11.1741 159.167H27.8407Z" fill="#F78F85"/>
</svg>
