<svg width="179" height="170" viewBox="0 0 179 170" fill="none" xmlns="http://www.w3.org/2000/svg">
<path d="M72.6007 80.8333C50.3148 80.8333 32.1841 62.7026 32.1841 40.4167C32.1841 18.1307 50.3148 0 72.6007 0C94.8867 0 113.017 18.1307 113.017 40.4167C113.017 62.7026 94.8867 80.8333 72.6007 80.8333ZM72.6007 5.83333C53.5313 5.83333 38.0174 21.3472 38.0174 40.4167C38.0174 59.4861 53.5313 75 72.6007 75C91.6702 75 107.184 59.4861 107.184 40.4167C107.184 21.3472 91.6702 5.83333 72.6007 5.83333Z" fill="#FFF099"/>
<path d="M14.2676 94.5834C21.1711 94.5834 26.7676 88.9869 26.7676 82.0834C26.7676 75.1798 21.1711 69.5834 14.2676 69.5834C7.36402 69.5834 1.76758 75.1798 1.76758 82.0834C1.76758 88.9869 7.36402 94.5834 14.2676 94.5834Z" fill="#FFBA5F"/>
<path d="M140.93 58.7452L113.847 85.8287L118.856 90.8377L145.939 63.7542L140.93 58.7452Z" fill="#FF9C9C"/>
<path d="M12.5001 46.9825L0 59.4825L3.53518 63.0177L16.0353 50.5177L12.5001 46.9825Z" fill="#C2ECFF"/>
<path d="M71.2753 18.2575L50.4419 39.0909L53.0933 41.7423L73.9267 20.9089L71.2753 18.2575Z" fill="#7D74ED"/>
<path d="M147.919 95.6144L144.167 91.8624C142.889 90.5851 142.185 88.8863 142.185 87.0793C142.185 85.2726 142.889 83.5738 144.167 82.2961C145.444 81.0189 147.143 80.3149 148.95 80.3149C150.756 80.3149 152.455 81.0189 153.733 82.2965C155.234 83.7964 157.674 83.7968 159.174 82.2965C159.901 81.5694 160.302 80.6034 160.302 79.5756C160.302 78.5478 159.901 77.5814 159.174 76.8551C156.537 74.2171 156.537 69.9259 159.174 67.2884C161.812 64.6509 166.103 64.6513 168.741 67.288C169.467 68.0151 170.434 68.4155 171.462 68.4155C172.489 68.4155 173.455 68.0151 174.183 67.2884C174.909 66.5617 175.309 65.5953 175.309 64.5679C175.309 63.54 174.909 62.5736 174.183 61.8469L170.431 58.0949L172.493 56.0327L176.245 59.7847C177.522 61.062 178.226 62.7608 178.226 64.5679C178.226 66.3745 177.522 68.0733 176.245 69.3506C174.967 70.6283 173.268 71.3322 171.462 71.3322C169.655 71.3322 167.956 70.6283 166.678 69.3506C165.178 67.8507 162.737 67.8503 161.237 69.351C159.737 70.8508 159.737 73.2922 161.237 74.7925C162.514 76.0697 163.218 77.7686 163.218 79.5756C163.218 81.3822 162.514 83.0811 161.237 84.3587C159.959 85.6364 158.26 86.3399 156.453 86.3399C154.647 86.3399 152.948 85.6364 151.671 84.3587C150.944 83.632 149.978 83.2316 148.95 83.2316C147.922 83.2316 146.956 83.632 146.229 84.3587C145.502 85.0854 145.102 86.0518 145.102 87.0793C145.102 88.1071 145.502 89.0735 146.229 89.7998L149.981 93.5522L147.919 95.6144Z" fill="#D08CED"/>
<path d="M97.6008 77.9167L68.4341 48.75V38.1407C68.4341 30.1929 74.877 23.75 82.8248 23.75H89.0223L97.6008 32.2135L106.179 23.75H112.377C120.325 23.75 126.767 30.1929 126.767 38.1407V48.75L97.6008 77.9167ZM151.767 111.25L135.101 127.917V118.868C135.101 112.36 129.824 107.083 123.316 107.083H97.6008L97.6007 107.083C89.5971 99.0797 78.7419 94.5833 67.4231 94.5833H65.2784C53.9596 94.5833 43.1044 99.0797 35.1007 107.083L26.7674 115.417L22.6007 111.25L5.93408 127.917L47.6007 169.583H80.9341L72.6008 161.25H135.101L168.434 127.917C173.036 123.314 173.036 115.852 168.434 111.25L168.434 111.25C163.832 106.648 156.37 106.648 151.767 111.25Z" fill="#E85869"/>
<path d="M139.268 152.917L151.768 140.417H155.934L168.434 127.917C173.037 123.314 173.037 115.852 168.434 111.25L135.101 144.583H60.1011L68.4344 152.917H139.268Z" fill="#CE2E63"/>
<path d="M76.7674 165.417L72.6007 161.25L55.9341 144.583L30.9341 119.583L26.7674 115.417L22.6007 111.25L18.4341 115.417L68.4341 165.417H76.7674Z" fill="#FFBD99"/>
<path d="M10.1011 132.083L47.6011 169.583H64.2677L18.4344 123.75L10.1011 132.083Z" fill="#CE2E63"/>
<path d="M72.6007 161.25H75.577L68.4341 152.917L60.1007 144.583L35.1007 119.583H30.9341L55.9341 144.583L72.6007 161.25Z" fill="#A31952"/>
<path d="M135.101 119.583H101.052C93.5067 119.583 86.2698 122.581 80.9341 127.917H135.101V119.583Z" fill="#CE2E63"/>
<path d="M49.3124 111.25C61.5558 111.25 73.2978 106.386 81.9552 97.7289L82.3877 97.2963C77.6463 95.5209 72.5835 94.5834 67.4231 94.5834H65.2784C53.9596 94.5834 43.1043 99.0797 35.1007 107.083L30.9341 111.25H49.3124Z" fill="#F78F85"/>
<path d="M135.101 127.917H80.9342L76.7676 132.083H130.934L135.101 127.917Z" fill="#F78F85"/>
<path d="M139.267 152.917H68.4341L75.577 161.25H76.7674H135.101L155.934 140.417H151.767L139.267 152.917Z" fill="#A31952"/>
<path d="M105.934 107.083H97.6011V115.417L105.934 107.083Z" fill="#A31952"/>
<path d="M134.586 115.417C133.11 110.592 128.623 107.083 123.316 107.083H118.434L126.767 115.417H134.586Z" fill="#F78F85"/>
<path d="M147.601 115.417H160.101L166.089 109.429C161.569 106.76 155.651 107.367 151.768 111.25L147.601 115.417Z" fill="#F78F85"/>
<path d="M126.768 48.75V44.3382L106.18 23.75L97.6011 32.2135V77.9167L126.768 48.75Z" fill="#CE2E63"/>
<path d="M126.767 38.1407C126.767 30.1929 120.325 23.75 112.377 23.75H106.179L126.767 44.3382V38.1407Z" fill="#A31952"/>
<path d="M87.1841 46.6667L76.7674 36.25L70.7825 30.2651C69.2994 32.5283 68.4341 35.2328 68.4341 38.1407V48.75L87.1841 67.5V46.6667Z" fill="#F78F85"/>
<path d="M76.7676 25.0869C74.3213 26.2241 72.2492 28.0273 70.7827 30.265L76.7676 36.2499V25.0869Z" fill="#FFBD99"/>
</svg>
