<svg width="198" height="159" viewBox="0 0 198 159" fill="none" xmlns="http://www.w3.org/2000/svg">
<path d="M30 102.928C13.4578 102.928 0 89.4706 0 72.9285C0 56.3863 13.4578 42.9285 30 42.9285C46.5421 42.9285 60 56.3863 60 72.9285C60 89.4706 46.5421 102.928 30 102.928ZM30 48.7618C16.6744 48.7618 5.83333 59.6029 5.83333 72.9285C5.83333 86.2541 16.6744 97.0951 30 97.0951C43.3256 97.0951 54.1667 86.2541 54.1667 72.9285C54.1667 59.6029 43.3256 48.7618 30 48.7618Z" fill="#FFF099"/>
<path d="M67.5002 50.0118C73.2531 50.0118 77.9168 45.3481 77.9168 39.5951C77.9168 33.8422 73.2531 29.1785 67.5002 29.1785C61.7472 29.1785 57.0835 33.8422 57.0835 39.5951C57.0835 45.3481 61.7472 50.0118 67.5002 50.0118Z" fill="#FFBA5F"/>
<path d="M183.747 60.0061L162.914 80.8395L167.923 85.8484L188.756 65.0151L183.747 60.0061Z" fill="#FF9C9C"/>
<path d="M184.484 44.0763L171.984 56.5763L175.519 60.1115L188.019 47.6114L184.484 44.0763Z" fill="#C2ECFF"/>
<path d="M26.5919 57.0188L14.0918 69.5188L16.7432 72.1702L29.2433 59.6701L26.5919 57.0188Z" fill="#7D74ED"/>
<path d="M162.337 137.151L157.893 132.707C156.43 131.244 155.625 129.3 155.625 127.231C155.625 125.163 156.43 123.219 157.893 121.756C160.912 118.737 165.824 118.737 168.844 121.756C169.755 122.668 170.968 123.17 172.257 123.17C173.546 123.17 174.758 122.668 175.67 121.756C176.581 120.844 177.083 119.632 177.083 118.343C177.083 117.054 176.581 115.842 175.67 114.93C174.207 113.468 173.402 111.523 173.402 109.455C173.402 107.387 174.207 105.442 175.67 103.98C177.132 102.517 179.077 101.712 181.145 101.712C183.213 101.712 185.157 102.517 186.62 103.98C188.502 105.861 191.564 105.861 193.446 103.98C194.357 103.068 194.86 101.856 194.86 100.567C194.86 99.2777 194.357 98.0656 193.446 97.1537L189.002 92.7095L191.064 90.6473L195.508 95.0915C196.971 96.5539 197.776 98.4985 197.776 100.567C197.776 102.635 196.971 104.58 195.508 106.042C192.489 109.061 187.577 109.061 184.558 106.042C183.646 105.131 182.434 104.628 181.145 104.628C179.856 104.628 178.644 105.131 177.732 106.042C175.85 107.924 175.85 110.986 177.732 112.868C179.195 114.33 180 116.275 180 118.343C180 120.411 179.195 122.356 177.732 123.818C176.27 125.281 174.325 126.086 172.257 126.086C170.188 126.086 168.244 125.281 166.781 123.818C164.899 121.937 161.838 121.937 159.955 123.818C159.044 124.73 158.542 125.942 158.542 127.231C158.542 128.52 159.044 129.733 159.955 130.645L164.399 135.089L162.337 137.151Z" fill="#D08CED"/>
<path d="M72.996 144.333H74.3673C85.6038 144.333 94.8622 135.888 96.1571 125H110.82C112.982 125 115.096 124.801 117.151 124.438V150L125.485 158.333H137.985L137.971 112.64C143.176 106.601 146.318 98.8047 146.318 90.2879V79.1667L133.818 66.6667H144.375C154.621 66.6667 162.928 57.7816 162.928 46.8213V41.6667H150.241C148.913 33.2324 142.252 26.5712 133.818 25.2433V4.16667L125.485 13.0947V0L113.899 12.4121C106.039 20.8329 101.389 31.4022 100.604 42.478C100.518 43.2286 100.468 43.9905 100.468 44.7642V66.6667L95.6028 71.5385C84.245 73.4509 74.2154 79.1569 66.9239 87.2727L33.8179 54.1667V73.8731C33.8179 86.0014 43.6498 95.8333 55.778 95.8333H60.7707C56.8912 102.708 54.6743 110.605 54.6526 119.007C54.6526 119.026 54.6512 119.045 54.6512 119.064V119.131V125V131.074C49.6009 133.826 46.202 139.269 46.3209 145.487L46.3179 158.333H58.8179L72.996 144.333Z" fill="#E85869"/>
<path d="M100.484 72.265V54.1726L100.468 54.1867V66.6667V70.8393L92.5846 72.1541C84.369 74.0633 76.9507 77.9754 70.897 83.3393H89.4101C95.5263 83.3393 100.484 78.3812 100.484 72.265Z" fill="#F78F85"/>
<path d="M117.151 91.6726L83.8178 125.006V137.506L77.4414 144.118C87.2543 142.743 94.9823 134.877 96.157 125H104.657L117.151 112.506V91.6726Z" fill="#CE2E63"/>
<path d="M117.151 90.7946C117.151 102.529 126.462 112.083 138.098 112.487C143.225 106.468 146.318 98.7337 146.318 90.2878V87.5059L129.651 70.8392L133.818 66.6666L117.151 83.3392V90.7946Z" fill="#F78F85"/>
<path d="M129.651 120.839L137.973 120.828L137.971 112.64C138.009 112.596 138.044 112.55 138.082 112.506L129.651 120.839Z" fill="#A31952"/>
<path d="M104.657 125H110.82C112.982 125 115.096 124.801 117.151 124.438V112.506L104.657 125Z" fill="#A31952"/>
<path d="M55.778 95.8333H59.2796C59.7961 91.4977 58.35 87.0379 55.1174 83.8054L33.8179 62.5059V73.873C33.8179 86.0013 43.6498 95.8333 55.778 95.8333Z" fill="#A31952"/>
<path d="M58.8178 99.6963C56.1567 105.607 54.6703 112.138 54.6526 119.007C54.6526 119.026 54.6512 119.045 54.6512 119.064V119.131V125V131.074C49.6008 133.826 46.2019 139.269 46.3209 145.488L46.3179 158.333H46.3238L58.8178 145.839V99.6963Z" fill="#A31952"/>
<path d="M100.469 66.6666L95.603 71.5384C94.5846 71.71 93.5811 71.9225 92.585 72.154L100.469 70.8392V66.6666Z" fill="#A31952"/>
<path d="M137.984 158.333L137.98 145.843L125.49 158.333H137.984Z" fill="#F78F85"/>
<path d="M66.9589 150.294L67.151 150.006H64.3387C59.4502 150.006 55.4097 153.627 54.748 158.333H58.8177L66.9589 150.294Z" fill="#F78F85"/>
<path d="M146.318 87.5059V79.1666L133.818 66.6666L129.651 70.8392L146.318 87.5059Z" fill="#FFBD99"/>
<path d="M125.484 25.006L134.24 25.3187C134.099 25.2934 133.959 25.2657 133.818 25.2434V8.33936L125.484 16.6727V25.006Z" fill="#A31952"/>
<path d="M127.925 27.4467C131.382 30.9033 133.445 35.4893 133.768 40.3369C137.568 38.5233 141.821 37.5059 146.312 37.5059H149.103C146.626 31.2372 141.038 26.5413 134.24 25.3186L125.484 25.0059L127.925 27.4467Z" fill="#F78F85"/>
<path d="M133.768 40.3369C123.941 45.0268 117.151 55.0528 117.151 66.6666H133.818V57.4156C133.818 48.7242 140.863 41.6784 149.555 41.6784H158.818V41.6725H162.928V41.6666H150.241C150.013 40.2211 149.626 38.8293 149.103 37.5059H146.312C141.82 37.5059 137.568 38.5233 133.768 40.3369Z" fill="#CE2E63"/>
<path d="M158.818 43.0173V41.6785H149.555C140.864 41.6785 133.818 48.7243 133.818 57.4157V66.6667H144.375C154.621 66.6667 162.928 57.7816 162.928 46.8213V45.8392H161.64C160.081 45.8392 158.818 44.5758 158.818 43.0173Z" fill="#A31952"/>
<path d="M158.818 41.6784V43.0172C158.818 44.5757 160.081 45.8391 161.64 45.8391H162.928V41.6725H158.818V41.6784Z" fill="#F78F85"/>
<path d="M113.899 12.4121C110.672 15.8691 107.996 19.6923 105.897 23.7599L125.484 4.17253V0.00585938H125.479L113.899 12.4121Z" fill="#FFBD99"/>
<path d="M133.818 8.33931V4.16675L125.484 13.0948V16.6726L133.818 8.33931Z" fill="#CE2E63"/>
</svg>
