<svg width="27" height="26" fill="none" xmlns="http://www.w3.org/2000/svg"><path fill-rule="evenodd" clip-rule="evenodd" d="M13.3 0c3.419 0 6.633 1.331 9.051 3.749A12.716 12.716 0 0126.1 12.8c0 3.419-1.331 6.633-3.749 9.051A12.716 12.716 0 0113.3 25.6c-3.42 0-6.633-1.331-9.051-3.749A12.716 12.716 0 01.5 12.8c0-3.419 1.331-6.633 3.749-9.051A12.716 12.716 0 0113.3 0zM2 12.8c0 6.23 5.07 11.3 11.3 11.3s11.3-5.07 11.3-11.3S19.53 1.5 13.3 1.5 2 6.57 2 12.8z" fill="#000"/><path d="M19.415 8.693a.75.75 0 00-1.06 0l-6.623 6.623-3.487-3.487a.75.75 0 00-1.06 1.061l4.016 4.017a.748.748 0 001.06 0l7.154-7.154a.75.75 0 000-1.06z" fill="#000"/></svg>