<svg width="28" height="36" fill="none" xmlns="http://www.w3.org/2000/svg"><path d="M26.797 8.352h-9.14V3.197c0-.316-.274-.573-.61-.573H4.25v-.573c0-.947-.82-1.718-1.828-1.718S.594 1.103.594 2.05v33.224c0 .316.273.572.61.572H3.64c.336 0 .609-.256.609-.572v-22.34h6.094v5.155c0 .316.273.573.61.573h15.843c.336 0 .61-.257.61-.573V8.925c0-.316-.274-.573-.61-.573zM3.03 34.702H1.812V2.052c0-.316.274-.573.61-.573.336 0 .61.257.61.572v32.65zM4.25 3.77h12.188v8.02H4.25V3.77zm11.326 9.165l-4.014 3.772v-3.772h4.014zm10.611 4.582H12.425l5.054-4.75a.554.554 0 00.178-.405V9.498h8.532v8.02z" fill="#E14552"/></svg>