<svg width="39" height="36" fill="none" xmlns="http://www.w3.org/2000/svg"><path fill-rule="evenodd" clip-rule="evenodd" d="M17.456 20.12h14.491c.465 0 .845.354.853.786 0 3.967-1.68 7.737-4.72 10.62-3.032 2.828-7.144 4.415-11.434 4.4-8.9 0-16.146-6.74-16.146-15.02 0-3.967 1.672-7.738 4.712-10.62 3.015-2.828 7.127-4.415 11.417-4.4h.008c.465.008.828.362.82.786V20.12zm-.81 14.242c3.834.008 7.515-1.406 10.226-3.936 2.525-2.388 4.003-5.435 4.205-8.735H16.646c-.465 0-.878-.353-.878-.785V7.48c-3.53.18-6.866 1.579-9.365 3.912-2.703 2.53-4.214 5.947-4.214 9.513 0 7.415 6.485 13.448 14.457 13.456z" fill="#E14552"/><path fill-rule="evenodd" clip-rule="evenodd" d="M33.746 5.1v-.006l-.009-.009c-3.099-2.828-7.135-4.39-11.4-4.39-.456 0-.827.345-.827.777V15.72c-.017.424.338.778.794.786H37.62c.465 0 .845-.354.845-.786 0-3.967-1.672-7.745-4.72-10.62zM23.199 2.29a15.79 15.79 0 014.56.958l-4.56 4.242v-5.2zm6.164 1.673L23.2 9.712v4.061l8.731-8.13a14.396 14.396 0 00-2.567-1.681zm-5.05 10.974l8.791-8.178c.693.73 1.3 1.524 1.816 2.373l-6.24 5.805h-4.367zm11.384-4.305l-4.628 4.305h5.683a12.58 12.58 0 00-1.056-4.305z" fill="#E14552"/></svg>