<svg width="30" height="37" fill="none" xmlns="http://www.w3.org/2000/svg"><path d="M20.489.82H.5v35.89h28.983V9.545L20.49.82zm.361 2.042l6.528 6.332H20.85V2.862zM1.733 35.513V2.017h17.884v8.374h8.633v25.123H1.733z" fill="#E14552"/><path d="M22.7 13.382h-9.867a.607.607 0 00-.616.598c0 .33.276.598.616.598H22.7c.34 0 .617-.268.617-.598a.608.608 0 00-.617-.598zm-12.102-1.664l-2.652 2.058-.843-.817a.63.63 0 00-.872 0 .585.585 0 000 .845l1.233 1.197a.625.625 0 00.82.044l3.084-2.393a.586.586 0 00.096-.84.629.629 0 00-.866-.094zM22.7 19.961h-9.867a.607.607 0 00-.616.599c0 .33.276.598.616.598H22.7c.34 0 .617-.268.617-.599a.608.608 0 00-.617-.598zm-12.102-1.663l-2.652 2.058-.843-.818a.63.63 0 00-.872 0 .585.585 0 000 .846l1.233 1.197a.625.625 0 00.82.044l3.084-2.393a.586.586 0 00.096-.84.629.629 0 00-.866-.094zM22.7 26.541h-9.867a.607.607 0 00-.616.598c0 .331.276.599.616.599H22.7c.34 0 .617-.268.617-.599a.608.608 0 00-.617-.598zm-12.102-1.663l-2.652 2.058-.843-.818a.63.63 0 00-.872 0 .585.585 0 000 .846l1.233 1.197a.625.625 0 00.82.044l3.084-2.393a.586.586 0 00.096-.841.629.629 0 00-.866-.093z" fill="#E14552"/></svg>