<svg width="33" height="33" fill="none" xmlns="http://www.w3.org/2000/svg"><path d="M31.708 7.27a.799.799 0 00.792-.784V1.552a.79.79 0 00-.792-.792h-4.933a.788.788 0 00-.785.792V3.27H7.01V1.552A.799.799 0 006.225.76H1.292a.8.8 0 00-.792.792v4.934c0 .431.353.784.792.784H3.01v18.98H1.292a.799.799 0 00-.792.785v4.933a.8.8 0 00.792.792h4.933a.788.788 0 00.785-.792V30.25h18.98v1.718c0 .431.353.784.785.792h4.933a.8.8 0 00.792-.792v-4.933a.788.788 0 00-.792-.785H29.99V7.27h1.718zM2.068 5.7V2.33h3.373V5.7H2.07zm3.373 25.49H2.07v-3.37h3.37v3.373zm20.55-4.156v1.647H7.01v-1.647a.787.787 0 00-.785-.785H4.578V7.27h1.647a.787.787 0 00.785-.784V4.839h18.98v1.647c0 .431.353.784.785.784h1.647v18.98h-1.648a.787.787 0 00-.784.785zm4.94.784v3.373H27.56v-3.373h3.372zM27.56 5.701V2.33h3.372V5.7H27.56z" fill="#E14552"/></svg>