<svg width="17" height="17" fill="none" xmlns="http://www.w3.org/2000/svg"><path fill-rule="evenodd" clip-rule="evenodd" d="M8.68.022c-2.222 0-2.498.01-3.372.05C2.335.21.685 1.859.549 4.83.51 5.704.5 5.982.5 8.203c0 2.223.01 2.5.05 3.373.135 2.971 1.785 4.623 4.758 4.759.874.04 1.15.05 3.373.05 2.222 0 2.5-.01 3.374-.05 2.967-.136 4.624-1.785 4.758-4.759.04-.872.049-1.15.049-3.373 0-2.22-.01-2.499-.05-3.373C16.68 1.862 15.029.208 12.056.073c-.874-.041-1.152-.05-3.374-.05zm0 1.476c2.185 0 2.444.008 3.307.048 2.219.1 3.252 1.152 3.354 3.352.039.864.047 1.121.047 3.305 0 2.185-.008 2.444-.047 3.306-.102 2.199-1.134 3.253-3.354 3.354-.863.038-1.12.047-3.306.047-2.184 0-2.443-.008-3.305-.047-2.223-.103-3.252-1.158-3.354-3.354-.039-.862-.048-1.121-.048-3.306 0-2.184.01-2.443.048-3.305.1-2.202 1.134-3.253 3.354-3.354.862-.04 1.12-.046 3.305-.046zm-4.2 6.706a4.201 4.201 0 118.402 0 4.201 4.201 0 01-8.402 0zm4.2 2.726a2.726 2.726 0 110-5.454 2.728 2.728 0 012.73 2.727 2.728 2.728 0 01-2.73 2.727zm3.385-7.092a.982.982 0 111.964 0 .982.982 0 01-1.964 0z" fill="#B8B8B8"/></svg>