<svg width="34" height="33" fill="none" xmlns="http://www.w3.org/2000/svg"><g clip-path="url(#clip0)" fill="#E14552"><path d="M12.585 22.817v-.838a.483.483 0 10-.967 0v.838a.483.483 0 10.967 0z"/><path d="M32.514 27.443a1.819 1.819 0 00-.192-.644 1.856 1.856 0 00-.652-.715.758.758 0 01-.334-.482 2.499 2.499 0 00-1.94-1.94v-7.225a.483.483 0 10-.967 0v10.892H14.79v-9.861h.097a.483.483 0 100-.967H7.394a.483.483 0 100 .966h.097v6.429a.483.483 0 10.966 0v-6.428h5.365v9.86H8.457V26.14a.483.483 0 10-.966 0v1.19H5.57V11.903l11.327-5.676a.229.229 0 01.204 0l11.327 5.676v2.274a.483.483 0 10.967 0v-1.79l.923.463c.796.398 1.73-.18 1.73-1.069V10.66c0-.455-.252-.865-.659-1.068L17.535 2.648a1.201 1.201 0 00-1.07 0L2.61 9.592c-.407.204-.66.613-.66 1.068v1.122c0 .89.937 1.467 1.73 1.069l.924-.463v11.274a2.499 2.499 0 00-1.94 1.941.758.758 0 01-.334.482 1.857 1.857 0 00-.652.715 1.82 1.82 0 00-.192.644c-.578.234-.986.8-.986 1.46 0 .868.706 1.574 1.574 1.574h29.852c.868 0 1.574-.706 1.574-1.574 0-.66-.408-1.226-.986-1.46zm-3.118-2.78l.017.006c.502.186.867.61.976 1.131.095.451.373.852.762 1.1a.887.887 0 01.35.429h-2.105v-2.666zM3.248 11.986a.228.228 0 01-.331-.205V10.66c0-.087.048-.165.126-.204l13.855-6.942a.23.23 0 01.204 0l13.855 6.942a.227.227 0 01.126.204v1.122c0 .17-.178.28-.33.205L17.535 5.363a1.2 1.2 0 00-1.07 0L3.248 11.986zm-.711 15.256a.888.888 0 01.312-.342 1.73 1.73 0 00.762-1.1c.109-.522.474-.945.976-1.131l.017-.006v2.666H2.5a.835.835 0 01.038-.087zm29.388 2.269H2.075a.608.608 0 010-1.216h29.85a.608.608 0 010 1.216z"/><path d="M17.822 16.5c-.571 0-1.036.465-1.036 1.037v3.602c0 .571.465 1.036 1.036 1.036h7.651c.572 0 1.036-.465 1.036-1.036v-3.602c0-.572-.464-1.036-1.036-1.036h-7.651zm7.72 1.037v3.602a.07.07 0 01-.069.07h-7.651a.07.07 0 01-.07-.07v-3.602a.07.07 0 01.07-.07h7.651a.07.07 0 01.07.07z"/></g><defs><clipPath id="clip0"><path fill="#fff" transform="translate(.5)" d="M0 0h33v33H0z"/></clipPath></defs></svg>