<svg width="39" height="38" fill="none" xmlns="http://www.w3.org/2000/svg"><g clip-path="url(#clip0)" fill="#E14552"><path d="M31.219 20.142h1.116v1.116h-1.116v-1.116z"/><path d="M27.936 10.099V6.75h-11.16V5.636H8.964V6.75H6.732v3.31H4.5v3.386h2.232v15.586h1.116v-12.24h20.088v-3.346h1.115v4.463H18.703l-3.043 3.784v1.796h-2.232v3.348h1.116v1.08h1.116v-1.08h3.348v8.66l-1.385 1.386h-.646l-1.317-1.379v-6.472h-1.116v6.92L16.5 38h1.586l2.038-2.04v-9.122h1.116V23.49h-2.232v-.651l1.338-1.58h5.32v-1.117h-5.838l-1.936 2.288v1.06h-1.116v-1.403l2.462-3.06h10.93V12.33h-2.232v-1.116h3.347v8.927h-2.268v1.116h3.384v-11.16h-4.463zm-7.812 14.507v1.116h-5.58v-1.116h5.58zM10.08 6.751h5.58v5.003c0 .718-1.116.72-1.116 0v-1.097c0-2.159-3.348-2.159-3.348 0v2.232c0 .718-1.116.719-1.116 0V6.75zm-4.464 5.58v-1.153h1.116v1.153H5.616zm21.204 3.347H7.848v-7.81h1.116v5.02c0 2.16 3.348 2.16 3.348 0v-2.231c0-.718 1.116-.72 1.116 0v1.098c0 2.158 3.348 2.158 3.348 0V7.867H26.82v7.81z"/><path d="M17.5 8.958h1.116v1.116H17.5V8.958z"/><path d="M17.5 8.958h1.116v1.116H17.5V8.958z"/><path d="M24.961 36.882h-8.922V24.569h-1.116v12.313h-2.307V1.116h2.307v13.409h1.116V1.116h8.922v3.365h1.116V0H11.5v37.998h14.577V17.873h-1.116v19.009z"/><path d="M17.5 15.678h1.116v1.079H17.5v-1.079zm0 14.471h1.116v1.116H17.5v-1.116z"/></g><defs><clipPath id="clip0"><path fill="#fff" transform="translate(.5)" d="M0 0h38v38H0z"/></clipPath></defs></svg>