<svg width="34" height="35" fill="none" xmlns="http://www.w3.org/2000/svg"><path d="M8.863 31.5H7.738v1.125h1.125V31.5z" fill="#E14552"/><path d="M20.887 24.75h-9.563v-8.438a.562.562 0 00-.562-.562H.637a.563.563 0 00-.563.563v18a.563.563 0 00.563.562h20.25a.563.563 0 00.563-.563v-9a.562.562 0 00-.563-.562zm-6.188 1.125h2.25v2.25H14.7v-2.25zm-10.125-9h2.25v2.25h-2.25v-2.25zm-3.375 0h2.25v2.813a.562.562 0 00.563.562h3.375a.562.562 0 00.562-.563v-2.812h2.25v7.875h-9v-7.875zm3.375 9h2.25v2.25h-2.25v-2.25zm-3.375 0h2.25v2.813a.563.563 0 00.563.562h3.375a.563.563 0 00.562-.563v-2.812h2.25v7.875h-9v-7.875zm19.125 7.875h-9v-7.875h2.25v2.813a.563.563 0 00.563.562h3.375a.563.563 0 00.563-.563v-2.812h2.25v7.875z" fill="#E14552"/><path d="M19.2 31.5h-1.125v1.125H19.2V31.5z" fill="#E14552"/><path d="M33.13 7.86a.558.558 0 00.413-.06.564.564 0 00.282-.5V5.063a.562.562 0 00-.431-.547L17.081.578a.56.56 0 00-.263 0L.505 4.516a.562.562 0 00-.43.547v2.234a.563.563 0 00.694.563l.993-.24v7.005h1.125V7.348L16.95 3.954l14.062 3.394V33.75h-3.375V11.812a.562.562 0 00-.563-.562H6.825a.563.563 0 00-.562.563v2.25a.563.563 0 00.563.562h19.687v1.125H12.449v1.125h14.063V18H12.449v1.125h14.063v1.125H12.449v1.125h14.063V33.75h-3.938v1.125h11.25V33.75h-1.687V7.62l.993.24zM7.387 13.5v-1.125h19.125V13.5H7.387zM16.95 2.813a.558.558 0 00-.132.015L1.2 6.598V5.505l15.75-3.801L32.7 5.505v1.093l-15.62-3.77a.558.558 0 00-.131-.015z" fill="#E14552"/></svg>