<svg width="36" height="36" fill="none" xmlns="http://www.w3.org/2000/svg"><g clip-path="url(#clip0)" fill="#E14552"><path d="M34.91 32.615h-1.24l.001-.035v-2.37c0-.6-.489-1.09-1.09-1.09h-.076l.001-.034v-2.37c0-.6-.489-1.09-1.09-1.09h-1.24v-9.429h1.765l.296.256a1.11 1.11 0 001.565-.112l.763-.88c.4-.462.35-1.165-.112-1.565L18.727.27a1.115 1.115 0 00-1.454 0L4.353 11.466a.527.527 0 10.692.797L17.964 1.068a.055.055 0 01.072 0l15.725 13.625c.023.02.026.055.006.077l-.763.88a.055.055 0 01-.078.006l-14.2-12.302a1.115 1.115 0 00-1.453 0L1.91 16.667a.054.054 0 01-.04.013.054.054 0 01-.038-.019l-.763-.88a.055.055 0 01.006-.078l2.372-2.056a.527.527 0 10-.69-.797L.383 14.906a1.103 1.103 0 00-.38.76c-.021.295.074.582.268.806l.763.88a1.103 1.103 0 00.84.383c.267 0 .522-.095.726-.271l1.461-1.267h1.763v14.089H5.75c-.6 0-1.09.488-1.09 1.09v1.24H1.09c-.6 0-1.089.488-1.089 1.09v1.204C0 35.51.49 36 1.09 36h3.042a.527.527 0 100-1.055H1.09a.035.035 0 01-.035-.035v-1.205c0-.02.016-.035.035-.035h33.82c.02 0 .035.016.035.035v1.205c0 .02-.016.035-.035.035H6.242a.527.527 0 100 1.055H34.91c.601 0 1.09-.49 1.09-1.09v-1.205c0-.6-.489-1.09-1.09-1.09zm-3.46-5.899v2.37c0 .02-.015.035-.034.035h-1.24v-2.44h1.24c.019 0 .035.016.035.035zm-10.48 5.9H10.373v-1.24c0-.601-.49-1.09-1.09-1.09h-.075V24.35H26.79v1.275h-3.57c-.6 0-1.089.49-1.089 1.09v2.37l.002.035h-.077c-.601 0-1.09.489-1.09 1.09v2.37l.002.034zm-5.827-16.419v.075c0 .601.489 1.09 1.09 1.09h3.534c.601 0 1.09-.489 1.09-1.09v-.075h5.934v4.77H9.21v-4.77h5.934zm4.624-4.549h-.075V5.586l8.342 7.227h-7.177v-.075c0-.6-.489-1.09-1.09-1.09zm0 1.055c.02 0 .035.016.035.035v3.534c0 .02-.015.036-.035.036h-3.534a.035.035 0 01-.035-.036v-3.534c0-.02.016-.035.035-.035h3.534zm-3.534-1.055c-.601 0-1.09.489-1.09 1.09v.075H7.967l8.34-7.227v6.062h-.074zM29.12 29.121h-3.605v-2.44h3.605v2.44zM9.21 22.02h17.58v1.276H9.21v-1.275zm13.978 7.065v-2.37c0-.02.016-.035.035-.035h1.24v2.44h-1.24a.035.035 0 01-.035-.035zm7.099 1.09v2.44h-5.934v-2.44h5.934zm-1.165-4.55h-1.275v-9.429h1.275v9.43zm-8.264-10.483v-1.275h8.395l1.471 1.275h-9.866zM18.037 4.15l.6.52v6.977h-1.274V4.672l.601-.521a.055.055 0 01.072 0zM6.75 13.868h8.393v1.275H5.278l1.472-1.275zm.129 2.33h1.275v14.088H6.879V16.197zM5.714 32.614v-1.24c0-.019.016-.035.035-.035h3.535c.019 0 .035.016.035.036v1.24H5.714zm16.308-.035v-2.37c0-.019.016-.035.035-.035h1.24v2.44h-1.24a.035.035 0 01-.035-.035zm9.319.035v-2.44h1.24c.019 0 .035.016.035.036v2.37a.035.035 0 01-.035.034h-1.24z"/><path d="M17.855 15.032h.29a.527.527 0 100-1.055h-.29a.527.527 0 100 1.055z"/></g><defs><clipPath id="clip0"><path fill="#fff" d="M0 0h36v36H0z"/></clipPath></defs></svg>