<svg width="37" height="37" fill="none" xmlns="http://www.w3.org/2000/svg"><path d="M1.112 36.07h28.8a.6.6 0 00.6-.6v-5.4h4.2a.6.6 0 00.6-.6v-6a.6.6 0 00-.6-.6h-4.2v-5.4a.6.6 0 00-.6-.6h-1.101a1.387 1.387 0 00-.245-1.124l-2.711-3.614 1.251-.939a2.074 2.074 0 00.828-1.777l-.06-1.08a.877.877 0 01.35-.752l1.251-.939.527.702a.6.6 0 00.84.12l4.95-3.713a1.8 1.8 0 00.36-2.52L35.819.79a1.802 1.802 0 00-2.52-.36l-4.95 3.714a.6.6 0 00-.12.84l.526.702-1.252.94a2.073 2.073 0 00-.827 1.777l.06 1.08a.876.876 0 01-.35.751l-1.251.94-2.712-3.615a1.391 1.391 0 00-1.22-.56 1.33 1.33 0 00-1.077.698l-4.93 9.174H1.112a.6.6 0 00-.6.6v6a.6.6 0 00.6.6h4.2v4.8h-4.2a.6.6 0 00-.6.6v6a.6.6 0 00.6.6zM34.02 1.39a.6.6 0 01.84.12l.333.444a.6.6 0 01-.12.84l-4.47 3.354-1.054-1.405 4.47-3.353zM11.312 30.07h8.4v4.8h-8.4v-4.8zm4.8-6h8.4v4.8h-8.4v-4.8zm13.2 10.8h-8.4v-4.8h8.4v4.8zm4.8-6h-8.4v-4.8h8.4v4.8zm-4.8-6h-8.4v-3.494l6.141-1.306h2.26v4.8zM21.183 8.264a.126.126 0 01.11-.07h.012a.198.198 0 01.159.084l2.71 3.614L21.7 13.75a.6.6 0 00.72.96l2.476-1.857 2.71 3.614a.194.194 0 01.034.188.126.126 0 01-.098.086l-11.904 2.53a.195.195 0 01-.19-.08.191.191 0 01-.025-.206l5.761-10.72zM14.487 19.91c.32.44.868.649 1.4.535l3.825-.814v3.239h-8.4v-4.8h3.239l-.186.346a1.379 1.379 0 00.122 1.494zm-12.775.56h1.2a.6.6 0 100-1.2h-1.2v-1.2h8.4v4.8h-8.4v-2.4zm4.8 3.6h8.4v4.8h-8.4v-4.8zm-4.8 6h8.4v4.8h-8.4v-4.8z" fill="#E14552"/></svg>