<svg width="37" height="28" fill="none" xmlns="http://www.w3.org/2000/svg"><path d="M35.73 15.781h-4.155A1.787 1.787 0 0029.793 14h-2.375a1.786 1.786 0 00-1.781 1.781h-2.375v-2.375a1.787 1.787 0 001.781-1.781V9.25a1.786 1.786 0 00-1.781-1.781V.937a.594.594 0 00-.594-.593h-8.312a.594.594 0 00-.594.594v6.53a1.787 1.787 0 00-1.781 1.782v2.375a1.786 1.786 0 001.781 1.781v2.375h-2.375A1.787 1.787 0 009.606 14H7.23a1.786 1.786 0 00-1.782 1.781H1.293a.594.594 0 00-.594.594v8.313a.594.594 0 00.594.593H5.45a1.787 1.787 0 001.782 1.782h2.375a1.786 1.786 0 001.781-1.782h14.25a1.787 1.787 0 001.781 1.782h2.375a1.786 1.786 0 001.782-1.782h4.156a.594.594 0 00.593-.593v-8.313a.594.594 0 00-.593-.594zM5.45 24.094H1.886v-7.125h3.562v7.125zm4.75 1.187a.594.594 0 01-.594.594H7.23a.594.594 0 01-.594-.594v-9.5a.594.594 0 01.594-.594h2.375a.594.594 0 01.594.594v9.5zm4.75-23.75h7.125V7.47H14.95V1.53zm-1.782 10.094V9.25a.594.594 0 01.594-.594h9.5a.594.594 0 01.594.594v2.375a.593.593 0 01-.594.594h-9.5a.594.594 0 01-.594-.594zm12.469 12.469h-14.25v-7.125h2.969a.594.594 0 00.594-.594v-2.969h7.125v2.969a.593.593 0 00.593.594h2.969v7.125zm4.75 1.187a.594.594 0 01-.594.594h-2.375a.594.594 0 01-.593-.594v-9.5a.594.594 0 01.593-.594h2.375a.594.594 0 01.594.594v9.5zm4.75-1.187h-3.563v-7.125h3.563v7.125z" fill="#E14552"/></svg>