<svg width="36" height="35" fill="none" xmlns="http://www.w3.org/2000/svg"><g clip-path="url(#clip0)" fill="#E14552"><path d="M31.47 24.7a.514.514 0 00-.56.111l-5.615 5.614a.514.514 0 00.364.877h5.614c.283 0 .513-.23.513-.514v-5.614a.514.514 0 00-.317-.474zm-4.571 5.575l3.86-3.86v3.86h-3.86z"/><path d="M33.183 16.465a.514.514 0 00-.56.112l-1.538 1.538V7.655a.514.514 0 00-.514-.514h-3.947l1.433-1.433v-.001l1.38-1.38c.296-.296.46-.69.46-1.108 0-.419-.163-.812-.46-1.108L27.842.515a1.556 1.556 0 00-1.107-.459c-.419 0-.812.163-1.108.459l-1.381 1.381-1.67 1.67L19 7.14H3.054V2.058a.514.514 0 00-.514-.513 4.045 4.045 0 00-4.04 4.04v21.82c0 .037.004.074.012.11a3.87 3.87 0 001.164 2.49 3.87 3.87 0 002.716 1.105h15.697l-2.956 2.957a.514.514 0 00.363.877h17.49c.284 0 .514-.23.514-.514V16.94a.514.514 0 00-.317-.475zm-6.83-15.224a.54.54 0 01.762 0l1.596 1.597a.54.54 0 010 .762l-1.018 1.018-2.359-2.359 1.019-1.018zm-1.745 1.745l2.359 2.359-.943.942-2.358-2.359.942-.942zm7.865 19.727h-.948a.514.514 0 100 1.027h.948v1.548h-.948a.514.514 0 100 1.027h.948v1.548h-.948a.514.514 0 100 1.028h.948v1.548h-.948a.514.514 0 000 1.027h.948v2.45H16.736l5.19-5.188a.514.514 0 10-.727-.727l-2.082 2.082H2.392A2.848 2.848 0 01-.47 27.311a2.81 2.81 0 01.023-.29v-.001c.006-.046.012-.091.02-.136l.003-.015a2.984 2.984 0 01.122-.462l.019-.054.04-.1.011-.028.055-.122.003-.005a3.024 3.024 0 012.238-1.669l.022-.003c.039-.006.078-.01.118-.015l.033-.004.115-.01.036-.002c.05-.002.101-.004.152-.004.284 0 .514-.23.514-.513v-3.725a.514.514 0 00-1.027 0v3.243a4.012 4.012 0 00-2.5 1.319V5.585a3.018 3.018 0 012.5-2.97v15.483a.514.514 0 001.027 0v-9.93h14.919l-2.84 2.84a.514.514 0 00.726.726l3.717-3.716 3.363-3.363 2.358 2.359-.276.276v.001L14.66 17.649l-2.358-2.358 2.042-2.042a.514.514 0 00-.727-.726l-2.405 2.405a.491.491 0 00-.036.04l-.01.014a.559.559 0 00-.058.097.506.506 0 00-.012.03l-.005.01-1 2.836-.683 1.933a.52.52 0 00-.02.078H7.68a.514.514 0 000 1.028h14.227a.514.514 0 100-1.028H11.7l3.133-1.106.007-.003a.536.536 0 00.036-.015l.014-.006a.497.497 0 00.037-.02l.011-.007a.52.52 0 00.036-.026l.01-.007a.534.534 0 00.04-.037L25.597 8.168h4.461v10.975l-7.348 7.348a.514.514 0 00.726.727l9.038-9.038v4.533zm-18.75-4.55l-1.472.52-.98-.981.519-1.472 1.932 1.933z"/></g><defs><clipPath id="clip0"><path fill="#fff" transform="translate(.5)" d="M0 0h35v35H0z"/></clipPath></defs></svg>