<svg width="31" height="30" fill="none" xmlns="http://www.w3.org/2000/svg"><path d="M26.233 24.124c-.855 0-1.551.696-1.551 1.551 0 .856.696 1.552 1.55 1.552.856 0 1.552-.696 1.552-1.552 0-.855-.696-1.551-1.551-1.551zm0 2.183a.633.633 0 11.001-1.265.633.633 0 01-.001 1.265z" fill="#E14552"/><path d="M30.413 25.595a4.066 4.066 0 00-1.354-2.941l-9.255-8.348 8.183-8.183a.87.87 0 00.158-.063l1.772-.935a.855.855 0 00.45-.635.855.855 0 00-.242-.739L28.13 1.756a.855.855 0 00-.74-.243.855.855 0 00-.634.45l-.935 1.773a.872.872 0 00-.064.16l-3.863 3.862a.46.46 0 10.65.65l3.545-3.545.929.93-9.065 9.064-.929-.93 3.957-3.956a.46.46 0 00-.65-.65l-2.871 2.87-3.124-2.817a7.054 7.054 0 00-1.678-7.308A7.069 7.069 0 005.136.468a.46.46 0 00-.16.754l3.609 3.61a.562.562 0 010 .799L6.24 7.974a.561.561 0 01-.8 0L1.832 4.365a.46.46 0 00-.754.16 7.069 7.069 0 001.598 7.523 7.08 7.08 0 007.166 1.724l2.415 2.641a2.477 2.477 0 01-3.112 1.184.46.46 0 00-.491.103l-5.629 5.63a3.912 3.912 0 000 5.526A3.882 3.882 0 005.79 30a3.882 3.882 0 002.763-1.145l5.629-5.628a.46.46 0 00.103-.491 2.488 2.488 0 01.559-2.66 2.488 2.488 0 012.66-.559.46.46 0 00.49-.103l1.062-1.062c.32-.32.496-.744.496-1.196 0-.453-.176-.878-.496-1.197l-.452-.452.55-.55 9.29 8.38a3.155 3.155 0 011.05 2.282 3.155 3.155 0 01-.93 2.333 3.17 3.17 0 01-2.323.932 3.156 3.156 0 01-2.279-1.035l-6.907-7.553a.46.46 0 00-.679.62l6.908 7.554a4.068 4.068 0 003.03 1.334 4.066 4.066 0 002.9-1.202 4.066 4.066 0 001.2-3.007zm-3.76-21.467l.88-1.667 1.887 1.886-1.667.88-1.1-1.1zm-16.337 8.8a.46.46 0 00-.5-.12 6.157 6.157 0 01-6.49-1.41 6.149 6.149 0 01-1.61-5.848l3.075 3.075c.28.28.653.434 1.05.434s.77-.154 1.05-.434L9.235 6.28c.28-.28.434-.653.434-1.05s-.154-.77-.434-1.05L6.16 1.106a6.148 6.148 0 015.848 1.61 6.136 6.136 0 011.36 6.62.46.46 0 00.12.511l3.321 2.996-.435.435-.452-.452a1.682 1.682 0 00-1.197-.496c-.452 0-.877.176-1.196.496l-1.062 1.061a.46.46 0 00-.104.492c.123.315.176.644.167.97l-2.214-2.42zm8.09 4.774l-.861.86a3.408 3.408 0 00-3.352.864 3.408 3.408 0 00-.864 3.352l-5.427 5.427a2.969 2.969 0 01-2.113.876 2.967 2.967 0 01-2.113-.876 2.992 2.992 0 010-4.226l5.427-5.427a3.408 3.408 0 003.352-.864 3.408 3.408 0 00.863-3.352l.86-.86a.774.774 0 011.094 0l.777.777 1.58 1.579.776.777a.774.774 0 010 1.093z" fill="#E14552"/><path d="M9.811 20.288a.46.46 0 00-.65 0l-4.354 4.354a.46.46 0 00.65.65l4.354-4.354a.46.46 0 000-.65zm1.609 1.609a.46.46 0 00-.65 0L6.416 26.25a.46.46 0 00.65.65l4.354-4.354a.46.46 0 000-.65z" fill="#E14552"/></svg>