<svg width="39" height="20" fill="none" xmlns="http://www.w3.org/2000/svg"><path d="M38.955 16.52v-.002l-.002-.002-6.252-14.23a3.387 3.387 0 00-.995-1.3A4.638 4.638 0 0028.848 0H13.611a.57.57 0 00-.044 0h-2.725a.566.566 0 00-.572.561c0 .31.256.561.572.561h2.04l-1.03 4.688A5.37 5.37 0 008.52 4.668c-.783 0-1.543.167-2.233.477l1.06-2.414a2.28 2.28 0 01.667-.875s.488-.333.755-.45a.557.557 0 00.293-.739.576.576 0 00-.754-.287 4.575 4.575 0 00-1.007.6 3.395 3.395 0 00-1.002 1.307l-4.025 9.16a.508.508 0 00-.015.035L.047 16.517l-.001.002-.001.002a.549.549 0 00-.045.224v2.031a.89.89 0 00.548.818c.332.14.717.074.98-.17a5.534 5.534 0 013.775-1.471c1.542 0 3.023.64 4.064 1.758a.916.916 0 001.338 0 5.563 5.563 0 014.063-1.758c1.541 0 3.023.64 4.063 1.758a.916.916 0 001.338 0 5.563 5.563 0 014.063-1.758 5.56 5.56 0 014.063 1.758.915.915 0 001.339 0 5.497 5.497 0 012.8-1.616.56.56 0 00.425-.674.572.572 0 00-.687-.418 6.64 6.64 0 00-3.207 1.77 6.728 6.728 0 00-4.733-1.942 6.725 6.725 0 00-4.732 1.943 6.726 6.726 0 00-4.732-1.943 6.726 6.726 0 00-4.732 1.943 6.725 6.725 0 00-4.733-1.943 6.694 6.694 0 00-4.16 1.436v-1.325c2.255-2.56 6.31-2.457 8.448.148.008.007.124.17.361.204a.575.575 0 00.534-.21 5.52 5.52 0 014.282-2.008c1.58 0 3.07.593 4.298 2.028l.023.024a.579.579 0 00.856-.037 5.52 5.52 0 014.287-2.015c2.866 0 4.362 2.09 4.354 2.083.459.396.908-.14.814-.057 2.448-2.818 6.36-2.54 8.458-.16v1.325a6.655 6.655 0 00-3.177-1.365.57.57 0 00-.649.472.563.563 0 00.481.638 5.505 5.505 0 012.96 1.412c.262.244.647.31.98.17a.89.89 0 00.547-.818v-2.031a.544.544 0 00-.045-.224zm-29.25-.932c-2.108-1.834-5.198-2.157-7.653-.804l1.227-2.791a4.917 4.917 0 013.605-1.55 4.9 4.9 0 013.61 1.554l-.79 3.59zm1.071-4.879a6.077 6.077 0 00-3.892-1.388 6.15 6.15 0 00-2.706.624L5.406 7.15A4.192 4.192 0 018.52 5.79a4.19 4.19 0 013.053 1.293l-.797 3.626zm8.153 4.68a6.692 6.692 0 00-4.162-1.435 6.704 6.704 0 00-3.79 1.162l.677-3.085a4.894 4.894 0 013.64-1.588 4.9 4.9 0 013.635 1.58v3.366zm0-4.882a6.092 6.092 0 00-3.635-1.186 6.111 6.111 0 00-3.247.922l.68-3.095A4.185 4.185 0 0115.84 5.79a4.19 4.19 0 013.089 1.331v3.386zm0-4.878a5.386 5.386 0 00-3.09-.96c-.978 0-1.916.256-2.728.73l.94-4.277h4.878V5.63zm9.92-4.507c.788 0 1.53.256 2.143.739.278.219.506.52.66.87l1.061 2.414a5.435 5.435 0 00-2.233-.477c-1.232 0-2.4.408-3.332 1.142l-1.03-4.688h2.73zm-8.778 0h4.878l.94 4.277a5.406 5.406 0 00-2.73-.73c-1.126 0-2.2.34-3.088.96V1.122zm0 6A4.186 4.186 0 0123.16 5.79c1.203 0 2.328.493 3.113 1.358l.68 3.095a6.115 6.115 0 00-3.248-.922 6.089 6.089 0 00-3.634 1.186V7.12zm4.16 6.832a6.69 6.69 0 00-4.16 1.434v-3.364a4.894 4.894 0 013.634-1.581c1.407 0 2.723.576 3.64 1.588l.679 3.086a6.705 6.705 0 00-3.792-1.164zm3.196-6.871A4.19 4.19 0 0130.48 5.79c1.2 0 2.33.495 3.114 1.36l1.228 2.795a6.154 6.154 0 00-2.706-.624 6.075 6.075 0 00-3.892 1.388l-.797-3.626zm1.869 8.505l-.789-3.591a4.896 4.896 0 013.609-1.554c1.38 0 2.69.564 3.605 1.55l1.227 2.791c-2.41-1.328-5.502-1.067-7.652.803z" fill="#E14552"/></svg>