<svg width="38" height="37" fill="none" xmlns="http://www.w3.org/2000/svg"><path d="M36.08 14.265a1.805 1.805 0 001.128-.939l.128-.25a1.842 1.842 0 00-.695-2.382L34.856 9.62V3.765a1.828 1.828 0 00-.61-3.546h-4.875a1.834 1.834 0 00-1.828 1.828 1.815 1.815 0 001.213 1.712v2.206L19.95.682a1.821 1.821 0 00-1.877 0L1.383 10.694a1.842 1.842 0 00-.695 2.383l.128.25a1.806 1.806 0 001.127.938c.164.048.335.073.506.073.248-.006.493-.062.72-.165v18.952h-.61a1.828 1.828 0 000 3.656h32.906a1.828 1.828 0 000-3.656h-.61V14.18c.386.173.82.204 1.225.085zM29.371 1.437h4.875a.61.61 0 010 1.22h-4.875a.61.61 0 010-1.22zm4.266 2.438V8.89l-3.663-2.194V3.875h3.663zm-9.75 31.688H2.559a.61.61 0 110-1.22h21.328v1.22zm3.656 0h-2.437v-6.094h2.437v6.093zm.61-7.313h-1.22v-3.638a.627.627 0 01.257-.5l3.241-2.315a1.822 1.822 0 00.768-1.487V18.5a1.833 1.833 0 00-1.828-1.828h-.61v-.61a.61.61 0 00-.608-.609h-1.829a1.834 1.834 0 00-1.828-1.828H11.09a1.834 1.834 0 00-1.828 1.828H7.434a.61.61 0 00-.61.61V18.5a.61.61 0 00.61.61h1.828a1.834 1.834 0 001.828 1.828h.61v4.875a2.438 2.438 0 004.874 0v-4.875h1.22a2.438 2.438 0 104.874 0h1.828a1.833 1.833 0 001.828-1.829h1.828a.61.61 0 00.61-.609v-.61h.61a.61.61 0 01.609.61v1.81a.627.627 0 01-.256.5l-3.242 2.315a1.822 1.822 0 00-.768 1.487v3.638h-1.219a.61.61 0 00-.61.61v4.265h-19.5V13.479l14.309-8.617a.621.621 0 01.634 0l14.308 8.617v19.646h-4.875v-4.266a.61.61 0 00-.61-.609zm-.61-11.578v1.219h-1.219v-1.22h1.22zm-2.437-1.219v3.656a.61.61 0 01-.61.61h-1.828v-4.875h1.828a.61.61 0 01.61.61zm-7.922 1.828a1.834 1.834 0 00-1.828 1.828v6.703a1.219 1.219 0 01-2.438 0V14.845h8.531v6.094a1.22 1.22 0 01-2.437 0V19.11a1.833 1.833 0 00-1.828-1.828zm.61 1.828v.61h-1.22v-.61a.61.61 0 011.22 0zm-6.095-4.265v4.875h-.609a.61.61 0 01-.61-.61v-3.656a.61.61 0 01.61-.61h.61zm-2.437 1.828v1.219H8.043v-1.22h1.219zm26.203 17.672a.61.61 0 010 1.218h-6.703v-1.218h6.703zM19.956 3.82a1.815 1.815 0 00-1.889 0L2.766 13.034a.621.621 0 01-.707-.055.593.593 0 01-.152-.195l-.128-.25a.622.622 0 01.231-.798L18.701 1.724a.609.609 0 01.622 0l16.69 10.012a.623.623 0 01.232.798l-.128.25a.593.593 0 01-.372.31.62.62 0 01-.487-.06L19.956 3.82z" fill="#E14552"/></svg>