<svg width="38" height="37" fill="none" xmlns="http://www.w3.org/2000/svg"><g clip-path="url(#clip0)"><path d="M36.825 32.009h-.616v-4.317a.617.617 0 00-.617-.616h-1.85v-3.084a.617.617 0 00-.617-.617h-1.85v-3.083a.617.617 0 00-.617-.617h-4.316V.56a.616.616 0 10-1.234 0v10.483h-1.233V.56a.617.617 0 10-1.233 0v10.483h-1.234V.56a.616.616 0 10-1.233 0v31.45H10.31V.559a.617.617 0 00-1.234 0v10.483H7.842V.56a.616.616 0 10-1.233 0v10.483H5.375V.56a.617.617 0 10-1.233 0v31.45H1.06a.617.617 0 00-.617.617v3.7c0 .34.276.616.617.616h35.767c.34 0 .616-.276.616-.616v-3.7a.617.617 0 00-.617-.617zm-1.85 0h-8.633v-3.7h8.633v3.7zm-2.466-4.933h-6.167v-2.467h6.167v2.466zm-2.467-6.167v2.466h-3.7V20.91h3.7zm-8.633-8.633h3.7v19.733h-3.7V12.276zm-16.034 0h3.7v19.733h-3.7V12.276zM36.21 35.709H1.675v-2.467H36.21v2.467z" fill="#E14552"/></g><defs><clipPath id="clip0"><path fill="#fff" transform="translate(.5)" d="M0 0h37v37H0z"/></clipPath></defs></svg>