<svg width="34" height="33" fill="none" xmlns="http://www.w3.org/2000/svg"><path d="M30.847 2.77A9.21 9.21 0 0024.403.001c-2.433-.042-4.756.903-6.54 2.658a9.66 9.66 0 00-2.884 6.84v1.867h-1.583c-.836 0-1.517.68-1.517 1.517v7.233c0 .836.68 1.517 1.517 1.517h1.583v2.1a5.21 5.21 0 01-1.703 3.845 5.155 5.155 0 01-4 1.33c-2.633-.247-4.697-2.594-4.697-5.342a.483.483 0 10-.966 0c0 1.56.562 3.063 1.582 4.235A6.033 6.033 0 009.788 29.9c1.537 0 2.988-.56 4.139-1.607a6.181 6.181 0 002.019-4.56v-2.1h2.133V23.5c0 2.288-.945 4.53-2.594 6.15-1.598 1.572-3.674 2.418-5.847 2.381a8.248 8.248 0 01-5.77-2.479 8.249 8.249 0 01-2.388-5.82v-6.716c0-.018.014-.033.033-.033h2.066c.019 0 .034.015.034.033v4.456a.483.483 0 10.967 0v-4.456c0-.551-.45-1-1-1h-.55V13.4a.483.483 0 10-.967 0v2.617h-.55c-.552 0-1 .449-1 1v6.717a9.21 9.21 0 002.665 6.497 9.21 9.21 0 006.595 2.77c2.379 0 4.642-.942 6.39-2.66a9.66 9.66 0 002.883-6.84v-1.867h1.583c.836 0 1.517-.68 1.517-1.517v-7.233c0-.837-.68-1.517-1.517-1.517h-1.583v-2.1c0-1.458.62-2.86 1.703-3.845a5.156 5.156 0 014-1.331c2.634.248 4.697 2.595 4.697 5.343a.483.483 0 10.967 0 6.446 6.446 0 00-1.583-4.235 6.033 6.033 0 00-3.991-2.07 6.11 6.11 0 00-4.74 1.578 6.181 6.181 0 00-2.02 4.56v2.1h-2.133V9.5a8.69 8.69 0 012.594-6.151c1.598-1.571 3.674-2.416 5.847-2.38a8.249 8.249 0 015.77 2.479 8.249 8.249 0 012.388 5.82v6.716a.033.033 0 01-.033.033h-2.066a.033.033 0 01-.034-.033v-4.457a.483.483 0 00-.966 0v4.457c0 .551.448 1 1 1h.55V19.6a.483.483 0 00.966 0v-2.616h.55c.552 0 1-.449 1-1V9.267a9.209 9.209 0 00-2.665-6.498zm-10.218 9.564a.55.55 0 01.55.55v7.233a.55.55 0 01-.55.55h-7.233a.55.55 0 01-.55-.55v-7.233a.55.55 0 01.55-.55h7.233zm12.831 9.633l-.516-1.033a.483.483 0 10-.864.432l.516 1.034a.483.483 0 10.865-.433z" fill="#E14552"/><path d="M30.661 20.718a.483.483 0 00-.648.216l-.517 1.033a.483.483 0 10.865.433l.516-1.034a.483.483 0 00-.216-.648zM18.233 16.23a.483.483 0 00-.4-.213h-1.352l.768-1.92a.483.483 0 00-.898-.36l-1.033 2.584a.483.483 0 00.449.662h1.352l-.768 1.92a.483.483 0 10.898.36l1.033-2.583a.483.483 0 00-.049-.45z" fill="#E14552"/><g clip-path="url(#clip0)" fill="#E14552"><path d="M1.933 11.634L1.416 10.6a.483.483 0 10-.865.432l.517 1.033a.483.483 0 10.865-.432zm2.367-1.25a.483.483 0 00-.649.217l-.517 1.033a.483.483 0 00.865.432l.517-1.033a.483.483 0 00-.216-.649z"/></g><defs><clipPath id="clip0"><path fill="#fff" transform="translate(.5)" d="M0 0h33v33H0z"/></clipPath></defs></svg>