<svg width="32" height="31" fill="none" xmlns="http://www.w3.org/2000/svg"><g clip-path="url(#clip0)" fill="#E14552"><path d="M30.946 0H1.054C.72 0 .5.221.5.554v29.892c0 .332.221.554.554.554h29.892c.332 0 .554-.222.554-.554V.554C31.5.22 31.279 0 30.946 0zM1.607 11.071h8.857v8.857H1.607v-8.857zm9.964 0h8.857v8.857h-8.857v-8.857zm9.965 0h8.857v8.857h-8.857v-8.857zm8.857-1.107h-8.857V1.107h8.857v8.857zm-9.965 0h-8.857V1.107h8.857v8.857zM1.608 1.107h8.856v8.857H1.607V1.107zm0 19.929h8.856v8.857H1.607v-8.857zm9.963 0h8.857v8.857h-8.857v-8.857zm18.822 8.857h-8.857v-8.857h8.857v8.857z"/><path d="M3.434 1.827L2.327 2.934a.535.535 0 000 .775c.11.11.276.166.387.166a.503.503 0 00.388-.166l1.107-1.107a.535.535 0 000-.775.535.535 0 00-.775 0zm0 2.768L2.327 5.702a.535.535 0 000 .775c.11.11.221.166.387.166a.503.503 0 00.388-.166L4.209 5.37a.535.535 0 000-.775.535.535 0 00-.775 0zm2.768-2.768L5.095 2.934a.535.535 0 000 .775c.11.11.276.166.387.166a.503.503 0 00.388-.166l1.107-1.107a.535.535 0 000-.775.535.535 0 00-.775 0zm6.477 2.048a.503.503 0 00.387-.166l1.107-1.107a.535.535 0 000-.775.535.535 0 00-.775 0l-1.107 1.107a.535.535 0 000 .775c.11.11.222.166.388.166zm0 2.768a.503.503 0 00.387-.166l1.107-1.107a.535.535 0 000-.775.535.535 0 00-.775 0l-1.107 1.107a.535.535 0 000 .775c.11.11.222.166.388.166zm2.768-2.768a.503.503 0 00.387-.166l1.107-1.107a.535.535 0 000-.775.535.535 0 00-.775 0L15.06 2.934a.535.535 0 000 .775c.11.11.221.166.388.166zm7.196 0a.502.502 0 00.387-.166l1.107-1.107a.535.535 0 000-.775.535.535 0 00-.774 0l-1.108 1.107a.535.535 0 000 .775c.111.11.222.166.388.166zm0 2.768a.502.502 0 00.387-.166l1.107-1.107a.535.535 0 000-.775.535.535 0 00-.774 0l-1.108 1.107a.535.535 0 000 .775c.111.11.222.166.388.166zm2.767-2.768a.503.503 0 00.388-.166l1.107-1.107a.535.535 0 000-.775.535.535 0 00-.775 0l-1.107 1.107a.535.535 0 000 .775c.11.11.222.166.388.166zM3.434 11.791l-1.107 1.107a.535.535 0 000 .775c.11.11.221.166.387.166a.503.503 0 00.388-.166l1.107-1.107a.535.535 0 000-.775.535.535 0 00-.775 0zm0 2.768l-1.107 1.107a.535.535 0 000 .775c.11.11.221.166.387.166a.503.503 0 00.388-.166l1.107-1.107a.535.535 0 000-.775.535.535 0 00-.775 0zm2.768-2.768l-1.107 1.107a.535.535 0 000 .775c.11.11.221.166.387.166a.503.503 0 00.388-.166l1.107-1.107a.535.535 0 000-.775.535.535 0 00-.775 0zm7.196 0l-1.107 1.107a.535.535 0 000 .775c.11.11.221.166.388.166a.503.503 0 00.387-.166l1.107-1.107a.535.535 0 000-.775.535.535 0 00-.775 0zm0 2.768l-1.107 1.107a.535.535 0 000 .775c.11.11.221.166.388.166a.503.503 0 00.387-.166l1.107-1.107a.535.535 0 000-.775.535.535 0 00-.775 0zm2.768-2.768l-1.107 1.107a.535.535 0 000 .775c.11.11.221.166.387.166a.503.503 0 00.388-.166l1.107-1.107a.535.535 0 000-.775.535.535 0 00-.775 0zm7.197 0l-1.108 1.107a.535.535 0 000 .775c.111.11.222.166.388.166a.503.503 0 00.387-.166l1.107-1.107a.535.535 0 000-.775.535.535 0 00-.774 0zm0 2.768l-1.108 1.107a.535.535 0 000 .775c.111.11.222.166.388.166a.503.503 0 00.387-.166l1.107-1.107a.535.535 0 000-.775.535.535 0 00-.774 0zm2.767-2.768l-1.107 1.107a.535.535 0 000 .775c.11.11.222.166.388.166a.503.503 0 00.387-.166l1.107-1.107a.535.535 0 000-.775.535.535 0 00-.775 0zM3.434 21.755l-1.107 1.108a.535.535 0 000 .774.5.5 0 00.387.167.502.502 0 00.388-.166l1.107-1.108a.535.535 0 000-.775.535.535 0 00-.775 0zm0 2.768L2.327 25.63a.535.535 0 000 .775.5.5 0 00.387.166.502.502 0 00.388-.166l1.107-1.107a.535.535 0 000-.775.535.535 0 00-.775 0zm2.768-2.768l-1.107 1.108a.535.535 0 000 .774.5.5 0 00.387.167.502.502 0 00.388-.166l1.107-1.108a.535.535 0 000-.775.535.535 0 00-.775 0zm7.196 0l-1.107 1.108a.535.535 0 000 .774c.11.111.221.167.388.167a.502.502 0 00.387-.166l1.107-1.108a.535.535 0 000-.775.535.535 0 00-.775 0zm0 2.768l-1.107 1.107a.535.535 0 000 .775.5.5 0 00.388.166.502.502 0 00.387-.166l1.107-1.107a.535.535 0 000-.775.535.535 0 00-.775 0zm2.768-2.768l-1.107 1.108a.535.535 0 000 .774.5.5 0 00.387.167.502.502 0 00.388-.166l1.107-1.108a.535.535 0 000-.775.535.535 0 00-.775 0zm6.477 2.049a.502.502 0 00.387-.166l1.108-1.108a.535.535 0 000-.775.535.535 0 00-.775 0l-1.108 1.108a.535.535 0 000 .774.504.504 0 00.388.167zm0 2.767a.503.503 0 00.387-.166l1.108-1.107a.535.535 0 000-.775.535.535 0 00-.775 0l-1.108 1.107a.535.535 0 000 .775.503.503 0 00.388.166zm2.767-2.767a.503.503 0 00.388-.166l1.107-1.108a.535.535 0 000-.775.535.535 0 00-.775 0l-1.107 1.108a.535.535 0 000 .774c.11.111.222.167.388.167z"/></g><defs><clipPath id="clip0"><path fill="#fff" transform="translate(.5)" d="M0 0h31v31H0z"/></clipPath></defs></svg>