<svg width="27" height="26" viewBox="0 0 27 26" fill="none" xmlns="http://www.w3.org/2000/svg">
<path fill-rule="evenodd" clip-rule="evenodd" d="M13.3 0C16.719 0 19.9333 1.33145 22.351 3.749C24.7686 6.16665 26.1 9.381 26.1 12.8C26.1 16.219 24.7686 19.4333 22.351 21.851C19.9333 24.2686 16.719 25.6 13.3 25.6C9.88095 25.6 6.6666 24.2686 4.249 21.851C1.8314 19.4333 0.5 16.219 0.5 12.8C0.5 9.381 1.8314 6.1666 4.249 3.749C6.66655 1.33145 9.88095 0 13.3 0ZM2 12.8C2 19.0308 7.06915 24.1 13.3 24.1C19.5308 24.1 24.6 19.0308 24.6 12.8C24.6 6.56915 19.5308 1.5 13.3 1.5C7.06915 1.5 2 6.56915 2 12.8Z" fill="black"/>
<path d="M19.4152 8.69274C19.1223 8.39994 18.6474 8.39994 18.3546 8.69279L11.7316 15.3157L8.24529 11.8294C7.95244 11.5365 7.47754 11.5365 7.18464 11.8294C6.89174 12.1222 6.89174 12.5971 7.18464 12.89L11.2013 16.9067C11.3477 17.0531 11.5397 17.1263 11.7316 17.1263C11.9235 17.1263 12.1155 17.0531 12.2619 16.9067L19.4152 9.75339C19.7081 9.46054 19.7081 8.98564 19.4152 8.69274Z" fill="black"/>
</svg>
