<svg width="30" height="37" viewBox="0 0 30 37" fill="none" xmlns="http://www.w3.org/2000/svg">
<path d="M20.4886 0.819824H0.5V36.7098H29.4833V9.54468L20.4886 0.819824ZM20.85 2.86197L27.378 9.19416H20.85V2.86197ZM1.73333 35.5135V2.01616H19.6167V10.3905H28.25V35.5135H1.73333Z" fill="#E14552"/>
<path d="M22.7 13.3816H12.8333C12.4929 13.3816 12.2167 13.649 12.2167 13.9798C12.2167 14.3105 12.4929 14.5779 12.8333 14.5779H22.7C23.0404 14.5779 23.3167 14.3105 23.3167 13.9798C23.3167 13.649 23.0404 13.3816 22.7 13.3816Z" fill="#E14552"/>
<path d="M10.5979 11.7179L7.94559 13.7762L7.10261 12.9585C6.86149 12.7247 6.47176 12.7247 6.23064 12.9585C5.98953 13.1924 5.98953 13.5705 6.23064 13.8044L7.46398 15.0007C7.58361 15.1167 7.74148 15.1759 7.89996 15.1759C8.03563 15.1759 8.17191 15.1329 8.28476 15.045L11.3681 12.6523C11.6345 12.4453 11.677 12.0691 11.4643 11.8113C11.2522 11.5529 10.8637 11.5116 10.5979 11.7179Z" fill="#E14552"/>
<path d="M22.7 19.9613H12.8333C12.4929 19.9613 12.2167 20.2287 12.2167 20.5595C12.2167 20.8903 12.4929 21.1576 12.8333 21.1576H22.7C23.0404 21.1576 23.3167 20.8903 23.3167 20.5595C23.3167 20.2287 23.0404 19.9613 22.7 19.9613Z" fill="#E14552"/>
<path d="M10.5979 18.2979L7.94559 20.3562L7.10261 19.5385C6.86149 19.3046 6.47176 19.3046 6.23064 19.5385C5.98953 19.7724 5.98953 20.1504 6.23064 20.3843L7.46398 21.5806C7.58361 21.6967 7.74148 21.7559 7.89996 21.7559C8.03563 21.7559 8.17191 21.7128 8.28476 21.6249L11.3681 19.2322C11.6345 19.0253 11.677 18.649 11.4643 18.3912C11.2522 18.1328 10.8637 18.0915 10.5979 18.2979Z" fill="#E14552"/>
<path d="M22.7 26.5411H12.8333C12.4929 26.5411 12.2167 26.8085 12.2167 27.1393C12.2167 27.4701 12.4929 27.7375 12.8333 27.7375H22.7C23.0404 27.7375 23.3167 27.4701 23.3167 27.1393C23.3167 26.8085 23.0404 26.5411 22.7 26.5411Z" fill="#E14552"/>
<path d="M10.5979 24.8777L7.94559 26.936L7.10261 26.1183C6.86149 25.8845 6.47176 25.8845 6.23064 26.1183C5.98953 26.3522 5.98953 26.7303 6.23064 26.9641L7.46398 28.1605C7.58361 28.2765 7.74148 28.3357 7.89996 28.3357C8.03563 28.3357 8.17191 28.2927 8.28476 28.2047L11.3681 25.8121C11.6345 25.6051 11.677 25.2289 11.4643 24.971C11.2522 24.7126 10.8637 24.6714 10.5979 24.8777Z" fill="#E14552"/>
</svg>
