<svg width="39" height="36" viewBox="0 0 39 36" fill="none" xmlns="http://www.w3.org/2000/svg">
<path fill-rule="evenodd" clip-rule="evenodd" d="M17.4564 20.1203H31.9471C32.4116 20.1203 32.7916 20.4738 32.8 20.9058C32.8 24.8727 31.1196 28.6433 28.0796 31.5262C25.048 34.3541 20.9356 35.9408 16.6458 35.9251C7.74533 35.9251 0.5 29.1853 0.5 20.9058C0.5 16.9389 2.172 13.1683 5.212 10.2854C8.22667 7.45753 12.3391 5.87076 16.6289 5.88647H16.6373C17.1018 5.89432 17.4649 6.24781 17.4564 6.672V20.1203ZM16.6458 34.3619C20.4796 34.3698 24.1613 32.9558 26.872 30.4264C29.3969 28.0384 30.8747 24.9905 31.0773 21.6913H16.6458C16.1813 21.6913 15.7676 21.3378 15.7676 20.9058V7.48107C12.2378 7.66174 8.90222 9.05998 6.40267 11.393C3.70044 13.9224 2.18889 17.3395 2.18889 20.9058C2.18889 28.3212 8.67422 34.354 16.6458 34.3619Z" fill="#E14552"/>
<path fill-rule="evenodd" clip-rule="evenodd" d="M33.7459 5.10091C33.7459 5.09763 33.7459 5.09572 33.7452 5.09403C33.7444 5.09169 33.7423 5.08978 33.7374 5.0852C30.6383 2.2573 26.6019 0.694092 22.3374 0.694092C21.8814 0.694092 21.5099 1.03972 21.5099 1.47177V1.47962V15.7213C21.493 16.1455 21.8476 16.4989 22.3036 16.5068H22.3205H37.6219C38.0863 16.5068 38.4663 16.1533 38.4663 15.7213C38.4663 11.7543 36.7943 7.97595 33.7459 5.10091ZM23.1988 2.28872C24.761 2.38298 26.3063 2.70505 27.7588 3.24706L23.1988 7.48892V2.28872ZM29.3632 3.96189L23.1988 9.71197V13.7732L31.9303 5.64293C31.145 4.99879 30.2837 4.43321 29.3632 3.96189ZM24.3134 14.9357L33.1041 6.75838C33.7965 7.48892 34.4045 8.2823 34.9196 9.13068L28.6792 14.9357H24.3134ZM35.6965 10.631L31.069 14.9357H36.7521C36.6592 13.4589 36.3045 12.0057 35.6965 10.631Z" fill="#E14552"/>
</svg>
