<svg width="24" height="16" viewBox="0 0 24 16" fill="none" xmlns="http://www.w3.org/2000/svg">
<path d="M1.04225 7.22233H20.3187L15.719 2.45612C15.3161 2.03885 15.3161 1.36195 15.719 0.944734C16.122 0.527211 16.7753 0.527211 17.1777 0.944734L23.5382 7.53535C23.9412 7.95262 23.9412 8.62959 23.5382 9.04674L17.1777 15.6377C16.9762 15.8465 16.7123 15.9507 16.4483 15.9507C16.1844 15.9507 15.9205 15.8465 15.719 15.6377C15.3161 15.2204 15.3161 14.5435 15.719 14.1263L20.3187 9.35988H1.04225C0.472603 9.35988 0.0106659 8.88131 0.0106659 8.29107C0.0106659 7.70084 0.472544 7.22233 1.04225 7.22233Z" fill="black"/>
</svg>
