<svg width="28" height="36" viewBox="0 0 28 36" fill="none" xmlns="http://www.w3.org/2000/svg">
<path d="M26.7969 8.35226H17.6562V3.19695C17.6562 2.88076 17.3832 2.62414 17.0469 2.62414H4.25V2.05132C4.25 1.10389 3.42978 0.332886 2.42188 0.332886C1.41397 0.332886 0.59375 1.10389 0.59375 2.05132V35.2745C0.59375 35.5906 0.86675 35.8473 1.20312 35.8473H3.64062C3.977 35.8473 4.25 35.5906 4.25 35.2745V12.9348H10.3438V18.0901C10.3438 18.4063 10.6167 18.6629 10.9531 18.6629H26.7969C27.1332 18.6629 27.4062 18.4063 27.4062 18.0901V8.92507C27.4062 8.60888 27.1332 8.35226 26.7969 8.35226ZM3.03125 34.7016H1.8125V2.05132C1.8125 1.7357 2.08611 1.47851 2.42188 1.47851C2.75764 1.47851 3.03125 1.7357 3.03125 2.05132V34.7016ZM4.25 3.76976H16.4375V11.7891H4.25V3.76976ZM15.5758 12.9348L11.5625 16.7073V12.9348H15.5758ZM26.1875 17.5173H12.4242L17.4777 12.7669C17.588 12.6632 17.6562 12.52 17.6562 12.3619V9.49789H26.1875V17.5173Z" fill="#E14552"/>
</svg>
