<svg width="33" height="33" viewBox="0 0 33 33" fill="none" xmlns="http://www.w3.org/2000/svg">
<path d="M31.7078 7.26994C32.1392 7.26994 32.4922 6.91699 32.5 6.48562V1.55229C32.5 1.11307 32.1471 0.760132 31.7078 0.760132H26.7745C26.3431 0.760132 25.9902 1.11307 25.9902 1.55229V3.26994H7.0098V1.55229C7.0098 1.12092 6.65686 0.767975 6.22549 0.760132H1.29216C0.860784 0.760132 0.507843 1.11307 0.5 1.55229V6.48562C0.5 6.91699 0.852941 7.26994 1.29216 7.26994H3.0098V26.2503H1.29216C0.860784 26.2503 0.507843 26.6033 0.5 27.0346V31.968C0.5 32.3993 0.852941 32.7523 1.29216 32.7601H6.22549C6.65686 32.7601 7.0098 32.4072 7.0098 31.968V30.2503H25.9902V31.968C25.9902 32.3993 26.3431 32.7523 26.7745 32.7601H31.7078C32.1392 32.7601 32.4922 32.4072 32.5 31.968V27.0346C32.5 26.6033 32.1471 26.2503 31.7078 26.2503H29.9902V7.26994H31.7078ZM2.06863 5.70131V2.32876H5.44118V5.70131H2.06863ZM5.44118 31.1915H2.06863V27.819H5.44118V31.1915ZM25.9902 27.0346V28.6817H7.0098V27.0346C7.0098 26.6033 6.65686 26.2503 6.22549 26.2503H4.57843V7.26994H6.22549C6.65686 7.26994 7.0098 6.91699 7.0098 6.48562V4.83856H25.9902V6.48562C25.9902 6.91699 26.3431 7.26994 26.7745 7.26994H28.4216V26.2503H26.7745C26.3431 26.2503 25.9902 26.6033 25.9902 27.0346ZM30.9314 27.819V31.1915H27.5588V27.819H30.9314ZM27.5588 5.70131V2.32876H30.9314V5.70131H27.5588Z" fill="#E14552"/>
</svg>
