<svg width="17" height="17" viewBox="0 0 17 17" fill="none" xmlns="http://www.w3.org/2000/svg">
<path fill-rule="evenodd" clip-rule="evenodd" d="M8.68084 0.0224609C6.45838 0.0224609 6.18159 0.0320052 5.30761 0.0729094C2.33523 0.209257 0.685432 1.8577 0.549085 4.83007C0.509544 5.70405 0.5 5.9822 0.5 8.2033C0.5 10.4258 0.509544 10.7039 0.549085 11.5765C0.685432 14.5475 2.33523 16.1987 5.30761 16.335C6.18159 16.3746 6.45838 16.3841 8.68084 16.3841C10.9033 16.3841 11.1814 16.3746 12.0554 16.335C15.0223 16.1987 16.679 14.5503 16.8126 11.5765C16.8521 10.7039 16.8617 10.4258 16.8617 8.2033C16.8617 5.9822 16.8521 5.70405 16.8126 4.83007C16.679 1.86179 15.0278 0.207893 12.0554 0.0729094C11.1814 0.0320052 10.9033 0.0224609 8.68084 0.0224609ZM8.68087 1.49792C10.8652 1.49792 11.1242 1.5061 11.9873 1.54564C14.2057 1.64654 15.2392 2.69777 15.3414 4.89842C15.3796 5.7615 15.3878 6.01919 15.3878 8.20348C15.3878 10.3878 15.3796 10.6468 15.3414 11.5085C15.2392 13.7078 14.207 14.7618 11.9873 14.8627C11.1242 14.9009 10.8665 14.9104 8.68087 14.9104C6.49658 14.9104 6.23752 14.9022 5.37581 14.8627C3.15335 14.7604 2.12393 13.7051 2.02167 11.5085C1.98349 10.6468 1.97395 10.3878 1.97395 8.20348C1.97395 6.01919 1.98349 5.76013 2.02167 4.89842C2.12256 2.69641 3.15608 1.64517 5.37581 1.54427C6.23752 1.50473 6.49658 1.49792 8.68087 1.49792ZM4.48005 8.20387C4.48005 5.88323 6.36164 4.00301 8.68091 4.00301C11.0002 4.00301 12.8818 5.8846 12.8818 8.20387C12.8818 10.5245 11.0002 12.4047 8.68091 12.4047C6.36164 12.4047 4.48005 10.5245 4.48005 8.20387ZM8.68094 10.9304C7.1743 10.9304 5.954 9.71007 5.954 8.20343C5.954 6.69816 7.1743 5.47648 8.68094 5.47648C10.1862 5.47648 11.4093 6.69679 11.4093 8.20343C11.4093 9.71007 10.1862 10.9304 8.68094 10.9304ZM12.0651 3.83785C12.0651 3.29519 12.5055 2.85615 13.0468 2.85615C13.5908 2.85615 14.0298 3.29519 14.0298 3.83785C14.0298 4.38051 13.5894 4.81955 13.0468 4.81955C12.5041 4.81955 12.0651 4.37915 12.0651 3.83785Z" fill="#B8B8B8"/>
</svg>
