<svg width="34" height="35" viewBox="0 0 34 35" fill="none" xmlns="http://www.w3.org/2000/svg">
<path d="M8.86255 31.5H7.73755V32.625H8.86255V31.5Z" fill="#E14552"/>
<path d="M20.887 24.75H11.3245V16.3125C11.3245 16.1633 11.2652 16.0202 11.1597 15.9148C11.0542 15.8093 10.9111 15.75 10.762 15.75H0.636963C0.487779 15.75 0.344705 15.8093 0.239215 15.9148C0.133726 16.0202 0.0744629 16.1633 0.0744629 16.3125V34.3125C0.0744629 34.4617 0.133726 34.6048 0.239215 34.7103C0.344705 34.8157 0.487779 34.875 0.636963 34.875H20.887C21.0361 34.875 21.1792 34.8157 21.2847 34.7103C21.3902 34.6048 21.4495 34.4617 21.4495 34.3125V25.3125C21.4495 25.1633 21.3902 25.0202 21.2847 24.9148C21.1792 24.8093 21.0361 24.75 20.887 24.75ZM14.6995 25.875H16.9495V28.125H14.6995V25.875ZM4.57446 16.875H6.82446V19.125H4.57446V16.875ZM1.19946 16.875H3.44946V19.6875C3.44946 19.8367 3.50873 19.9798 3.61422 20.0852C3.7197 20.1907 3.86278 20.25 4.01196 20.25H7.38696C7.53615 20.25 7.67922 20.1907 7.78471 20.0852C7.8902 19.9798 7.94946 19.8367 7.94946 19.6875V16.875H10.1995V24.75H1.19946V16.875ZM4.57446 25.875H6.82446V28.125H4.57446V25.875ZM1.19946 25.875H3.44946V28.6875C3.44946 28.8367 3.50873 28.9798 3.61422 29.0853C3.7197 29.1907 3.86278 29.25 4.01196 29.25H7.38696C7.53615 29.25 7.67922 29.1907 7.78471 29.0853C7.8902 28.9798 7.94946 28.8367 7.94946 28.6875V25.875H10.1995V33.75H1.19946V25.875ZM20.3245 33.75H11.3245V25.875H13.5745V28.6875C13.5745 28.8367 13.6337 28.9798 13.7392 29.0853C13.8447 29.1907 13.9878 29.25 14.137 29.25H17.512C17.6611 29.25 17.8042 29.1907 17.9097 29.0853C18.0152 28.9798 18.0745 28.8367 18.0745 28.6875V25.875H20.3245V33.75Z" fill="#E14552"/>
<path d="M19.1995 31.5H18.0745V32.625H19.1995V31.5Z" fill="#E14552"/>
<path d="M33.1301 7.85927C33.1733 7.86976 33.2176 7.87504 33.262 7.87502C33.3606 7.87494 33.4574 7.84904 33.5429 7.79989C33.6283 7.75074 33.6994 7.68006 33.749 7.59489C33.8001 7.50497 33.8262 7.403 33.8245 7.29958V5.06252C33.8245 4.9363 33.7821 4.81375 33.704 4.71458C33.6259 4.61541 33.5167 4.54538 33.394 4.51577L17.0815 0.578269C16.9948 0.557244 16.9043 0.557244 16.8176 0.578269L0.505064 4.51577C0.382365 4.54538 0.273192 4.61541 0.195104 4.71458C0.117016 4.81375 0.0745517 4.9363 0.0745409 5.06252V7.29656C0.0726183 7.41434 0.10629 7.52996 0.17115 7.62829C0.235514 7.72294 0.327181 7.79575 0.433948 7.83701C0.540715 7.87827 0.657517 7.88604 0.768807 7.85927L1.76204 7.61957V14.625H2.88704V7.34803L16.9495 3.95362L31.012 7.34803V33.75H27.637V11.8125C27.637 11.6633 27.5778 11.5203 27.4723 11.4148C27.3668 11.3093 27.2237 11.25 27.0745 11.25H6.82454C6.67536 11.25 6.53228 11.3093 6.42679 11.4148C6.3213 11.5203 6.26204 11.6633 6.26204 11.8125V14.0625C6.26204 14.2117 6.3213 14.3548 6.42679 14.4603C6.53228 14.5658 6.67536 14.625 6.82454 14.625H26.512V15.75H12.4495V16.875H26.512V18H12.4495V19.125H26.512V20.25H12.4495V21.375H26.512V33.75H22.5745V34.875H33.8245V33.75H32.137V7.61957L33.1301 7.85927ZM7.38704 13.5V12.375H26.512V13.5H7.38704ZM16.9495 2.81252C16.9051 2.8125 16.8608 2.81778 16.8176 2.82827L1.19954 6.59807V5.50549L16.9495 1.70369L32.6995 5.50549V6.59814L17.0815 2.82827C17.0383 2.81778 16.994 2.8125 16.9495 2.81252Z" fill="#E14552"/>
</svg>
