<svg width="39" height="38" viewBox="0 0 39 38" fill="none" xmlns="http://www.w3.org/2000/svg">
<g clip-path="url(#clip0)">
<path d="M31.219 20.1421H32.335V21.2581H31.219V20.1421Z" fill="#E14552"/>
<path d="M27.9358 10.0988V6.75149H16.7758V5.6355H8.96389V6.75149H6.73198V10.0616H4.5V13.4468H6.73198V29.0327H7.84798V16.7935H27.9358V13.4468H29.0512V17.9102H18.7033L15.6598 21.6939V23.49H13.4278V26.8382H14.5438V27.9173H15.6598V26.8381H19.0077V35.4982L17.6233 36.8839H16.9771L15.6597 35.5054V29.0334H14.5437V35.953L16.4999 38H18.0859L20.1238 35.9602V26.8381H21.2399V23.4899H19.0078V22.8387L20.3455 21.2581H25.6666V20.1421H19.8278L17.8918 22.43V23.4899H16.7758V22.0869L19.2379 19.0261H30.1671V12.3307H27.9358V11.2148H31.283V20.1421H29.0146V21.2581H32.399V10.0988H27.9358ZM20.1239 24.606V25.7222H14.5438V24.606H20.1239ZM10.0799 6.75149H15.6598V11.7545C15.6598 12.4724 14.5438 12.4736 14.5438 11.7545V10.6567C14.5438 8.49839 11.1958 8.49839 11.1958 10.6567V12.8888C11.1958 13.6067 10.0798 13.6079 10.0798 12.8888V6.75149H10.0799ZM5.61599 12.3308V11.1776H6.73198V12.3308H5.61599ZM26.8198 15.6775H7.8479V7.86748H8.96382V12.8888C8.96382 15.0472 12.3118 15.0472 12.3118 12.8888V10.6567C12.3118 9.93884 13.4278 9.93772 13.4278 10.6567V11.7545C13.4278 13.9129 16.7758 13.9129 16.7758 11.7545V7.86748H26.8198V15.6775Z" fill="#E14552"/>
<path d="M17.4999 8.95807H18.6159V10.0741H17.4999V8.95807Z" fill="#E14552"/>
<path d="M17.5 8.95807H18.616V10.0741H17.5V8.95807Z" fill="#E14552"/>
<path d="M24.961 36.882H16.039V24.5689H14.923V36.882H12.616V1.11599H14.923V14.5249H16.039V1.11599H24.961V4.48101H26.077V0H11.5V37.998H26.077V17.8729H24.961V36.882Z" fill="#E14552"/>
<path d="M17.4999 15.6784H18.6159V16.7568H17.4999V15.6784Z" fill="#E14552"/>
<path d="M17.4999 30.1488H18.6159V31.2648H17.4999V30.1488Z" fill="#E14552"/>
</g>
<defs>
<clipPath id="clip0">
<rect width="38" height="38" fill="white" transform="translate(0.5)"/>
</clipPath>
</defs>
</svg>
