<svg width="36" height="35" viewBox="0 0 36 35" fill="none" xmlns="http://www.w3.org/2000/svg">
<g clip-path="url(#clip0)">
<path d="M31.4692 24.6998C31.2772 24.6202 31.0563 24.6642 30.9093 24.8111L25.2952 30.4252C25.1483 30.5722 25.1044 30.7931 25.1839 30.9851C25.2634 31.1771 25.4508 31.3022 25.6586 31.3022H31.2726C31.5564 31.3022 31.7864 31.0722 31.7864 30.7885V25.1744C31.7863 24.9666 31.6611 24.7793 31.4692 24.6998ZM26.8986 30.2748L30.7588 26.4146V30.2748H26.8986Z" fill="#E14552"/>
<path d="M33.183 16.4655C32.991 16.386 32.7701 16.4299 32.6231 16.5768L31.0845 18.1154V7.65426C31.0845 7.3705 30.8545 7.14054 30.5708 7.14054H26.6237L28.0565 5.70772C28.0567 5.70752 28.0569 5.70724 28.0571 5.70704L29.4377 4.32645C29.7335 4.03066 29.8964 3.63718 29.8964 3.21882C29.8964 2.80046 29.7335 2.40712 29.4377 2.11119L27.8412 0.514723C27.5454 0.218931 27.1519 0.0560303 26.7336 0.0560303C26.3152 0.0560303 25.9218 0.218931 25.6259 0.514723L24.2447 1.896L22.5756 3.56506L19.0002 7.14047H3.05411V2.05828C3.05411 1.77452 2.82408 1.54456 2.54039 1.54456C0.312553 1.5447 -1.5 3.35711 -1.5 5.58508V27.4045C-1.5 27.4424 -1.49562 27.4793 -1.48783 27.5149C-1.41687 28.4602 -1.00788 29.3386 -0.324353 30.0054C0.406273 30.7179 1.37076 31.1104 2.3915 31.1104H18.0894L15.133 34.0669C14.9861 34.2138 14.9421 34.4347 15.0216 34.6267C15.1011 34.8187 15.2885 34.9439 15.4962 34.9439H32.9864C33.27 34.9439 33.5001 34.7139 33.5001 34.4301V16.9401C33.5001 16.7324 33.3748 16.545 33.183 16.4655ZM26.3526 1.24132C26.5626 1.03118 26.9047 1.03118 27.1147 1.24132L28.7113 2.83785C28.9214 3.04792 28.9214 3.38992 28.7113 3.60006L27.6933 4.61807L25.3345 2.25933L26.3526 1.24132ZM24.608 2.98585L26.9667 5.34453L26.0241 6.28714L23.6655 3.92846L24.608 2.98585ZM32.4728 22.7126H31.525C31.2412 22.7126 31.0112 22.9425 31.0112 23.2263C31.0112 23.51 31.2412 23.74 31.525 23.74H32.4728V25.2881H31.525C31.2412 25.2881 31.0112 25.518 31.0112 25.8018C31.0112 26.0856 31.2412 26.3155 31.525 26.3155H32.4728V27.8635H31.525C31.2412 27.8635 31.0112 28.0935 31.0112 28.3772C31.0112 28.661 31.2412 28.891 31.525 28.891H32.4728V30.439H31.525C31.2412 30.439 31.0112 30.6691 31.0112 30.9528C31.0112 31.2365 31.2412 31.4665 31.525 31.4665H32.4728V33.9166H16.7364L21.9254 28.7277C22.1261 28.5269 22.1261 28.2018 21.9254 28.0011C21.9024 27.9781 21.8777 27.9581 21.8517 27.9404C21.6517 27.8034 21.3765 27.8235 21.1988 28.0011L19.1169 30.0831H2.39157C0.833521 30.0831 -0.42074 28.8667 -0.470096 27.3114C-0.467156 27.2138 -0.459568 27.117 -0.4474 27.0213C-0.447332 27.0208 -0.447263 27.0202 -0.447195 27.0197C-0.441453 26.9742 -0.434549 26.929 -0.426687 26.884C-0.425799 26.8789 -0.424842 26.8737 -0.423953 26.8686C-0.416775 26.8285 -0.408709 26.7886 -0.39989 26.7488C-0.397429 26.7377 -0.394832 26.7266 -0.392234 26.7156C-0.384441 26.682 -0.376033 26.6486 -0.367009 26.6153C-0.362087 26.5972 -0.356961 26.5794 -0.351697 26.5614C-0.344177 26.5353 -0.336384 26.5092 -0.328113 26.4835C-0.319841 26.4577 -0.311023 26.4322 -0.302068 26.4067C-0.295847 26.3889 -0.289695 26.371 -0.282996 26.3533C-0.270486 26.3197 -0.257224 26.2864 -0.243552 26.2534C-0.239656 26.2439 -0.235827 26.2342 -0.231794 26.2247C-0.214226 26.1837 -0.195974 26.1432 -0.176697 26.1031C-0.175876 26.1014 -0.175124 26.0997 -0.174304 26.098C0.227513 25.2665 1.00032 24.6465 1.92775 24.4542C1.93035 24.4536 1.93295 24.453 1.93554 24.4524C1.97806 24.4438 2.02099 24.4363 2.0642 24.4294C2.07137 24.4282 2.07855 24.4268 2.08587 24.4257C2.1249 24.4198 2.16434 24.4151 2.20379 24.4107C2.21486 24.4094 2.22587 24.4077 2.23701 24.4066C2.27509 24.4028 2.3135 24.4003 2.35192 24.3979C2.36409 24.3971 2.37626 24.3958 2.38843 24.3952C2.43874 24.3927 2.48946 24.3914 2.54039 24.3914C2.82408 24.3914 3.05411 24.1614 3.05411 23.8777V20.1528C3.05411 19.8691 2.82408 19.6391 2.54039 19.6391C2.2567 19.6391 2.02667 19.8691 2.02667 20.1528V23.3963C1.15919 23.506 0.353979 23.8929 -0.280945 24.5129C-0.347732 24.5782 -0.411033 24.646 -0.472693 24.7149V5.58508C-0.472693 4.09888 0.609164 2.86041 2.0266 2.61582V7.65426V18.098V18.0981C2.0266 18.3818 2.25663 18.6118 2.54032 18.6118C2.82401 18.6118 3.05404 18.3818 3.05404 18.0981V18.098V8.16798H17.9728L15.1329 11.0079C14.9323 11.2086 14.9323 11.5338 15.1329 11.7344C15.3335 11.935 15.6588 11.935 15.8594 11.7344L19.5763 8.01752C19.5764 8.01739 19.5765 8.01725 19.5766 8.01718L22.9389 4.65492L25.2975 7.01366L25.0208 7.29038C25.0206 7.29059 25.0203 7.29079 25.0201 7.291L14.6617 17.6495L12.303 15.2908L14.3448 13.2491C14.5454 13.0484 14.5454 12.7232 14.3448 12.5225C14.1441 12.322 13.8189 12.322 13.6183 12.5225L11.2132 14.9276C11.2004 14.9404 11.1883 14.954 11.1771 14.968C11.1733 14.9726 11.17 14.9776 11.1664 14.9825C11.1592 14.9921 11.152 15.0018 11.1454 15.0119C11.1417 15.0178 11.1382 15.0238 11.1347 15.0299C11.129 15.0395 11.1235 15.0492 11.1186 15.0591C11.1153 15.0655 11.1123 15.072 11.1093 15.0787C11.1047 15.0888 11.1005 15.099 11.0966 15.1093C11.0952 15.1129 11.0935 15.1163 11.0922 15.1199L10.0913 17.9551L9.40895 19.8883C9.39993 19.914 9.39343 19.9401 9.38858 19.9664H7.68014C7.39644 19.9664 7.16641 20.1964 7.16641 20.4801C7.16641 20.7639 7.39644 20.9939 7.68014 20.9939H21.9067C22.1905 20.9939 22.4204 20.7639 22.4204 20.4801C22.4204 20.1964 22.1905 19.9664 21.9067 19.9664H11.6997L14.8327 18.8605C14.8353 18.8595 14.8377 18.8582 14.8403 18.8573C14.8525 18.8528 14.8644 18.8477 14.8763 18.8423C14.881 18.8401 14.8857 18.8381 14.8903 18.8358C14.9026 18.8297 14.9147 18.8229 14.9266 18.8157C14.9304 18.8133 14.9344 18.8112 14.9381 18.8088C14.9505 18.8009 14.9625 18.7922 14.9744 18.7831C14.9773 18.7808 14.9804 18.7788 14.9833 18.7765C14.9975 18.765 15.0116 18.7526 15.0248 18.7394L25.5962 8.16805H30.057V19.1429L22.7086 26.4913C22.508 26.692 22.508 27.0172 22.7086 27.2179C22.7211 27.2304 22.7342 27.2421 22.7477 27.2531C22.8419 27.3299 22.9569 27.3683 23.0719 27.3683C23.1869 27.3683 23.302 27.3299 23.3961 27.2531C23.4096 27.2422 23.4226 27.2304 23.4352 27.2179C23.4354 27.2177 23.4352 27.2179 23.4354 27.2177L32.4728 18.1802V22.7126ZM13.7221 18.1628L12.2506 18.6823L11.2702 17.7019L11.7896 16.2304L13.7221 18.1628Z" fill="#E14552"/>
</g>
<defs>
<clipPath id="clip0">
<rect width="35" height="35" fill="white" transform="translate(0.5)"/>
</clipPath>
</defs>
</svg>
