<svg width="39" height="20" viewBox="0 0 39 20" fill="none" xmlns="http://www.w3.org/2000/svg">
<path d="M38.9553 16.5209C38.955 16.52 38.9547 16.5194 38.9544 16.5185C38.9541 16.5179 38.9538 16.5171 38.9535 16.5165L32.7014 2.28646C32.4738 1.76849 32.1299 1.31859 31.7064 0.985546C30.8998 0.350426 29.8846 0.000438187 28.8482 0.000438187H25.4329C25.4184 0.000146062 25.4041 0.000146062 25.3895 0.000438187H19.5177C19.512 0.000438187 19.5061 0.000146062 19.5001 0.000146062C19.4942 0.000146062 19.4882 0.000438187 19.4826 0.000438187H13.6114C13.5965 -0.000146062 13.5813 -0.000146062 13.5667 0.000438187H10.8418C10.5264 0.000438187 10.2705 0.251682 10.2705 0.561354C10.2705 0.871318 10.5264 1.12227 10.8418 1.12227H12.8824L11.8523 5.8103C10.9206 5.07585 9.75157 4.66831 8.51973 4.66831C7.73688 4.66831 6.97694 4.83454 6.28722 5.14538L7.34768 2.7314C7.50241 2.37936 7.73271 2.07699 8.0136 1.85643C8.0136 1.85643 8.50158 1.52251 8.76937 1.40682C9.05799 1.28178 9.18891 0.950781 9.06156 0.66711C8.93421 0.38373 8.59679 0.255479 8.30817 0.380225C7.95111 0.534769 7.61488 0.734303 7.30871 0.973568C7.30811 0.97386 7.30097 0.979703 7.30067 0.979995C6.87369 1.31479 6.52705 1.76674 6.29853 2.28705L2.2736 11.4478C2.26825 11.4592 2.26319 11.4706 2.25872 11.4823L0.0467536 16.5165C0.0464561 16.5171 0.0461585 16.5179 0.0458609 16.5185C0.0455634 16.5194 0.0452659 16.52 0.0449683 16.5209C0.0137258 16.5936 -0.000854052 16.6696 3.85957e-05 16.7446V18.7765C3.85957e-05 19.1323 0.215166 19.4531 0.547824 19.5942C0.879888 19.7347 1.26491 19.6684 1.52795 19.4245C2.5524 18.4753 3.89315 17.9527 5.30323 17.9527C6.84513 17.9527 8.32632 18.5936 9.36655 19.7108C9.53734 19.8945 9.78133 20 10.0357 20C10.2901 20 10.5341 19.8945 10.7049 19.7111C11.7451 18.5936 13.226 17.9527 14.7676 17.9527C16.3095 17.9527 17.7907 18.5936 18.8309 19.7108C19.0017 19.8945 19.2457 20 19.5001 20C19.7545 20 19.9985 19.8945 20.1693 19.7111C21.2095 18.5936 22.6904 17.9527 24.2317 17.9527C25.7739 17.9527 27.2551 18.5936 28.2954 19.7108C28.4661 19.8945 28.7101 20 28.9645 20C29.2189 20 29.4629 19.8945 29.6337 19.7111C30.3862 18.9027 31.3541 18.3441 32.4336 18.0952C32.7407 18.0245 32.9311 17.7227 32.8591 17.421C32.7871 17.1195 32.4798 16.9325 32.1724 17.0032C30.9501 17.2848 29.8462 17.8951 28.9645 18.7739C27.7199 17.5361 26.0093 16.8308 24.2317 16.8308C22.4548 16.8308 20.7448 17.5361 19.5001 18.7742C18.2555 17.5361 16.5452 16.8308 14.7676 16.8308C12.9907 16.8308 11.2804 17.5361 10.0357 18.7742C8.79139 17.5361 7.08078 16.8308 5.30323 16.8308C3.778 16.8308 2.31972 17.3374 1.14262 18.267V16.9418C3.39833 14.3818 7.45242 14.4846 9.5909 17.0905C9.59893 17.097 9.71498 17.26 9.95212 17.2936C10.1664 17.3231 10.3636 17.2378 10.4862 17.0838C11.5369 15.8074 13.0969 15.0756 14.7676 15.0756C16.3488 15.0756 17.8377 15.6693 19.0663 17.1037C19.0743 17.113 19.0812 17.1203 19.0886 17.1276C19.1023 17.142 19.1208 17.1586 19.1347 17.1697C19.2347 17.2515 19.3695 17.3035 19.5159 17.2994C19.6543 17.295 19.7792 17.2445 19.8768 17.1604C19.884 17.1542 19.8923 17.1469 19.8991 17.1402C19.9087 17.1309 19.9152 17.1244 19.9238 17.1148C19.9316 17.1063 19.936 17.1014 19.9441 17.0914C19.9444 17.0911 19.9447 17.0908 19.945 17.0905C20.9959 15.8101 22.5583 15.0756 24.2317 15.0756C27.098 15.0756 28.5941 17.1659 28.5864 17.1592C29.0449 17.555 29.4939 17.0181 29.3998 17.1019C31.8478 14.2836 35.7602 14.5629 37.8576 16.9418V18.2667C36.94 17.5416 35.8519 17.0727 34.681 16.9018C34.3695 16.8571 34.0785 17.0678 34.0321 17.3742C33.9857 17.6807 34.2011 17.9661 34.5132 18.0117C35.6263 18.1738 36.6496 18.6626 37.4723 19.4242C37.7354 19.6681 38.1201 19.7347 38.4521 19.5942C38.7851 19.4531 38.9999 19.1323 38.9999 18.7765V16.7446C39.0011 16.6696 38.9865 16.5936 38.9553 16.5209ZM9.70426 15.5875C7.59673 13.7543 4.507 13.4309 2.05223 14.7844L3.27872 11.9929C4.19487 11.0067 5.50378 10.4425 6.88381 10.4425C8.27425 10.4425 9.57632 11.0061 10.4931 11.9967L9.70426 15.5875ZM10.776 10.709C9.70218 9.81734 8.33108 9.32069 6.88381 9.32069C5.93195 9.32069 5.00688 9.53892 4.1785 9.94471L5.40648 7.14977C6.19082 6.28474 7.32061 5.79014 8.51973 5.79014C9.69206 5.79014 10.7909 6.25844 11.5726 7.08287L10.776 10.709ZM18.9288 15.3885C17.7604 14.465 16.3027 13.9535 14.7673 13.9535C13.3906 13.9535 12.0757 14.3651 10.9763 15.1165L11.6544 12.0312C12.5726 11.0192 13.8884 10.4425 15.2943 10.4425C16.6975 10.4425 18.0109 11.0166 18.9288 12.0239V15.3885ZM18.9288 10.5068C17.8975 9.74255 16.6282 9.32069 15.2943 9.32069C14.1228 9.32069 13.0014 9.64614 12.0472 10.2433L12.7271 7.14773C13.512 6.28298 14.637 5.78985 15.8397 5.78985C17.0302 5.78985 18.1448 6.27276 18.9288 7.12144V10.5068ZM18.9288 5.62946C18.0407 5.00924 16.9662 4.66831 15.8397 4.66831C14.8614 4.66831 13.9229 4.92539 13.1115 5.39925L14.0511 1.12227H18.9288V5.62946ZM28.8482 1.12227C29.637 1.12227 30.3782 1.3776 30.9917 1.86052C31.2699 2.07962 31.4985 2.38053 31.6523 2.73081L32.713 5.14538C32.023 4.83454 31.2628 4.66831 30.4797 4.66831C29.2484 4.66831 28.0793 5.07585 27.148 5.8103L26.1179 1.12227H28.8482ZM20.0714 1.12227H24.9491L25.8888 5.39925C25.0771 4.92539 24.138 4.66831 23.1597 4.66831C22.0332 4.66831 20.9593 5.00924 20.0714 5.62946V1.12227ZM20.0714 7.12144C20.8552 6.27276 21.9695 5.79014 23.1597 5.79014C24.3627 5.79014 25.488 6.28298 26.2729 7.14773L26.9531 10.2433C25.9986 9.64614 24.8768 9.32069 23.7048 9.32069C22.3712 9.32069 21.1024 9.74255 20.0714 10.5068V7.12144ZM24.2317 13.9535C22.697 13.9535 21.2396 14.465 20.0714 15.3885V12.0242C20.9894 11.0166 22.3021 10.4425 23.7051 10.4425C25.1116 10.4425 26.4276 11.0192 27.3459 12.0312L28.0237 15.1168C26.9243 14.3654 25.6094 13.9535 24.2317 13.9535ZM27.4274 7.08287C28.2094 6.25844 29.3076 5.79014 30.4797 5.79014C31.6794 5.79014 32.8094 6.28474 33.5938 7.14977L34.8218 9.94471C33.9931 9.53892 33.068 9.32069 32.1156 9.32069C30.6686 9.32069 29.2978 9.81734 28.2242 10.709L27.4274 7.08287ZM29.296 15.5875L28.5072 11.9967C29.4237 11.0061 30.7257 10.4425 32.1156 10.4425C33.4962 10.4425 34.8051 11.0067 35.7215 11.9929L36.9483 14.7844C34.5385 13.4563 31.4461 13.7169 29.296 15.5875Z" fill="#E14552"/>
</svg>
