<svg width="37" height="37" viewBox="0 0 37 37" fill="none" xmlns="http://www.w3.org/2000/svg">
<path d="M1.11209 36.0696H29.912C30.2435 36.0696 30.5121 35.801 30.5121 35.4698V30.0697H34.712C35.0435 30.0697 35.3121 29.8011 35.3121 29.4699V23.4697C35.3121 23.1384 35.0435 22.8698 34.712 22.8698H30.5121V17.4697C30.5121 17.1382 30.2435 16.8696 29.912 16.8696H28.8109C28.8955 16.4774 28.806 16.0676 28.5656 15.7462L25.8545 12.1323L27.1064 11.1932C27.6626 10.7768 27.9732 10.1094 27.9339 9.41563L27.8738 8.33512C27.8573 8.04206 27.9886 7.76026 28.2234 7.58421L29.475 6.64542L30.0018 7.34745C30.0971 7.47462 30.2391 7.55894 30.3968 7.58146C30.4248 7.5853 30.4531 7.5875 30.4817 7.58723C30.6116 7.5875 30.7379 7.5452 30.8417 7.4672L35.7922 3.75354C36.587 3.15725 36.7483 2.02923 36.152 1.23409L35.8186 0.789142C35.2214 -0.0048974 34.094 -0.165573 33.2986 0.429888L28.3487 4.14328C28.0836 4.34213 28.0298 4.71841 28.2286 4.98346L28.7551 5.68549L27.5035 6.62455C26.9473 7.04093 26.6364 7.70808 26.676 8.40187L26.7359 9.48237C26.7526 9.77544 26.6213 10.0575 26.3865 10.2333L25.1349 11.1724L22.4234 7.55839C22.1397 7.17414 21.6788 6.96238 21.2023 6.99726C20.7477 7.03022 20.3415 7.29389 20.1259 7.69572L15.1958 16.8696H1.11209C0.780579 16.8696 0.511963 17.1382 0.511963 17.4697V23.4697C0.511963 23.8012 0.780579 24.0698 1.11209 24.0698H5.3119V28.8697H1.11209C0.780579 28.8697 0.511963 29.1383 0.511963 29.4699V35.4698C0.511963 35.801 0.780579 36.0696 1.11209 36.0696ZM34.0187 1.38955C34.2835 1.19069 34.6595 1.24425 34.8586 1.5093L35.1921 1.95425C35.3906 2.21929 35.3368 2.59502 35.072 2.79388L30.6014 6.14774L29.5481 4.74313L34.0187 1.38955ZM11.3121 30.0697H19.712V34.8697H11.3121V30.0697ZM16.112 24.0698H24.5119V28.8697H16.112V24.0698ZM29.3122 34.8697H20.912V30.0697H29.3122V34.8697ZM34.1121 28.8697H25.7119V24.0698H34.1121V28.8697ZM29.3122 22.8698H20.912V19.3759L27.0534 18.0696H29.3122V22.8698ZM21.1833 8.26426C21.2037 8.22224 21.246 8.19532 21.2927 8.19395L21.3045 8.1934C21.3682 8.1945 21.4272 8.22608 21.4635 8.27827L24.1744 11.8922L21.6992 13.7492C21.4341 13.9481 21.3803 14.3241 21.5791 14.5894C21.778 14.8544 22.154 14.908 22.4193 14.7094L24.8945 12.8524L27.6057 16.4664C27.6488 16.5191 27.6615 16.5903 27.6387 16.6543C27.6244 16.6988 27.5867 16.7314 27.5406 16.7397L15.6372 19.2709C15.5633 19.2825 15.4891 19.2509 15.4465 19.1894C15.3988 19.1317 15.3891 19.0515 15.4218 18.9839L21.1833 8.26426ZM14.4869 19.9095C14.8066 20.3493 15.3554 20.5588 15.8868 20.4446L19.712 19.631V22.8698H11.3121V18.0696H14.5506L14.3647 18.4157C14.1076 18.8944 14.1556 19.4791 14.4869 19.9095ZM1.71195 20.4698H2.91193C3.24345 20.4698 3.51206 20.2012 3.51206 19.8697C3.51206 19.5385 3.24345 19.2698 2.91193 19.2698H1.71195V18.0696H10.1121V22.8698H1.71195V20.4698ZM6.51189 24.0698H14.9121V28.8697H6.51189V24.0698ZM1.71195 30.0697H10.1121V34.8697H1.71195V30.0697Z" fill="#E14552"/>
</svg>
