<svg width="31" height="30" viewBox="0 0 31 30" fill="none" xmlns="http://www.w3.org/2000/svg">
<path d="M26.2329 24.124C25.3776 24.124 24.6816 24.8199 24.6816 25.6753C24.6816 26.5306 25.3775 27.2265 26.2329 27.2265C27.0883 27.2265 27.7841 26.5306 27.7841 25.6753C27.7841 24.8199 27.0883 24.124 26.2329 24.124ZM26.2329 26.3072C25.8845 26.3072 25.601 26.0237 25.601 25.6753C25.601 25.3269 25.8845 25.0434 26.2329 25.0434C26.5813 25.0434 26.8647 25.3269 26.8647 25.6753C26.8647 26.0237 26.5813 26.3072 26.2329 26.3072Z" fill="#E14552"/>
<path d="M30.4126 25.5949C30.3833 24.4592 29.9026 23.4146 29.059 22.6537L19.804 14.3061L27.9871 6.12299C28.0409 6.10693 28.094 6.08695 28.1453 6.05988L29.9174 5.12461C30.1622 4.99535 30.3263 4.76414 30.3676 4.49045C30.409 4.2167 30.3205 3.9474 30.1247 3.75146L28.1295 1.75628C27.9337 1.56052 27.6645 1.47199 27.3906 1.51335C27.1169 1.55466 26.8857 1.71884 26.7564 1.96371L25.8211 3.73564C25.7938 3.78738 25.7728 3.84088 25.7567 3.89519L21.8942 7.7577C21.7146 7.93729 21.7146 8.22826 21.8942 8.40785C22.0738 8.58727 22.3647 8.58727 22.5443 8.40785L26.0888 4.86334L27.0177 5.79223L17.9532 14.8567L17.0243 13.9278L20.9809 9.97131C21.1604 9.79172 21.1604 9.50074 20.9809 9.32116C20.8013 9.14174 20.5103 9.14174 20.3307 9.32116L17.46 12.1919L14.3356 9.37389C15.2214 6.82412 14.58 3.9873 12.6584 2.06578C10.6902 0.0975527 7.7375 -0.529694 5.13606 0.467983C4.99069 0.523764 4.8834 0.649272 4.85106 0.801557C4.81871 0.953843 4.86553 1.11216 4.97563 1.22226L8.58453 4.83123C8.69129 4.93799 8.75018 5.07996 8.75018 5.23096C8.75018 5.38195 8.69135 5.52393 8.58453 5.63074L6.24084 7.97444C6.13408 8.08125 5.99211 8.14008 5.84112 8.14008C5.69012 8.14008 5.54815 8.08131 5.44133 7.97444L1.83237 4.36547C1.72221 4.25537 1.56401 4.20855 1.41166 4.2409C1.25938 4.2733 1.13387 4.38053 1.07809 4.5259C0.0804119 7.12723 0.707658 10.0799 2.67594 12.0482C4.55041 13.9226 7.33227 14.5826 9.8419 13.7717L12.2575 16.4133C12.1415 16.6401 11.9905 16.8516 11.8044 17.0378C11.108 17.7341 10.0644 17.9535 9.14539 17.5968C8.97553 17.5307 8.78281 17.5713 8.65391 17.7002L3.02545 23.3287C1.50178 24.8524 1.50178 27.3316 3.02545 28.8552C3.76367 29.5936 4.74506 30 5.78891 30C6.8327 30 7.81414 29.5936 8.55225 28.8555L14.1807 23.227C14.3095 23.0982 14.3501 22.9054 14.2841 22.7356C13.9273 21.8166 14.1467 20.7728 14.843 20.0765C15.5394 19.3802 16.5831 19.1608 17.5021 19.5175C17.6721 19.5836 17.8647 19.5428 17.9936 19.4141L19.0553 18.3524C19.375 18.0327 19.551 17.6076 19.551 17.1556C19.551 16.7035 19.375 16.2784 19.0553 15.9587L18.6034 15.5068L19.1531 14.957L28.4433 23.3363C29.0979 23.9268 29.471 24.7374 29.4937 25.6186C29.5163 26.4999 29.1855 27.3286 28.5621 27.9519C27.9417 28.5724 27.1152 28.9026 26.2397 28.8837C25.3625 28.8641 24.5533 28.4967 23.9612 27.8492L17.0537 20.2956C16.8822 20.1082 16.5915 20.0953 16.4042 20.2666C16.2169 20.438 16.2039 20.7287 16.3752 20.9161L23.2827 28.4697C24.0458 29.3041 25.0887 29.7775 26.2191 29.8028C26.2508 29.8035 26.2824 29.8039 26.3139 29.8039C27.409 29.8039 28.435 29.3791 29.2122 28.602C30.0156 27.7986 30.4418 26.7307 30.4126 25.5949ZM26.6536 4.12793L27.5336 2.4607L29.4203 4.34736L27.7531 5.22738L26.6536 4.12793ZM10.3162 12.9281C10.1897 12.7898 9.99196 12.7421 9.81629 12.8076C7.56846 13.6461 5.02069 13.0928 3.32598 11.3983C1.78719 9.85946 1.19094 7.62856 1.71635 5.54977L4.79117 8.62459C5.07166 8.90502 5.44449 9.05942 5.84106 9.05942C6.23762 9.05942 6.61045 8.90502 6.89088 8.62459L9.23457 6.2809C9.515 6.00041 9.6694 5.62758 9.6694 5.23101C9.6694 4.83445 9.515 4.46162 9.23457 4.18119L6.15981 1.10625C8.23842 0.5806 10.4696 1.17703 12.0083 2.71588C13.7461 4.45359 14.2801 7.05199 13.3689 9.33569C13.2976 9.51434 13.3451 9.71854 13.488 9.84739L16.809 12.8428L16.3742 13.2777L15.9222 12.8258C15.6025 12.5061 15.1774 12.3301 14.7254 12.3301C14.2733 12.3301 13.8482 12.5061 13.5286 12.8258L12.4668 13.8875C12.338 14.0163 12.2974 14.2091 12.3634 14.379C12.4857 14.6939 12.5387 15.0233 12.5297 15.3486L10.3162 12.9281ZM18.4051 17.7023L17.5448 18.5626C16.3617 18.2216 15.0743 18.5451 14.193 19.4264H14.1929C13.3116 20.3077 12.988 21.5949 13.3292 22.7783L7.90215 28.2052C7.33766 28.7697 6.58719 29.0806 5.78897 29.0806C4.99074 29.0806 4.24016 28.7697 3.67578 28.2052C2.51053 27.04 2.51053 25.1441 3.67578 23.9788L9.1028 18.5518C10.286 18.893 11.5733 18.5693 12.4547 17.688C13.3359 16.8067 13.6596 15.5194 13.3184 14.3361L14.1787 13.4759C14.4801 13.1743 14.9707 13.1743 15.2721 13.4759L16.0491 14.2529L17.6281 15.8318L18.4051 16.6088C18.7066 16.9103 18.7066 17.4009 18.4051 17.7023Z" fill="#E14552"/>
<path d="M9.81126 20.2879C9.63167 20.1085 9.34069 20.1085 9.1611 20.2879L4.80652 24.6425C4.62699 24.8221 4.62699 25.1131 4.80652 25.2927C4.89629 25.3824 5.014 25.4272 5.1316 25.4272C5.2492 25.4272 5.36692 25.3824 5.45668 25.2927L9.81126 20.9381C9.99073 20.7585 9.99073 20.4675 9.81126 20.2879Z" fill="#E14552"/>
<path d="M11.4204 21.8968C11.2408 21.7173 10.9498 21.7173 10.7702 21.8968L6.41565 26.2513C6.23612 26.4309 6.23612 26.7219 6.41565 26.9015C6.50542 26.9912 6.62308 27.0361 6.74073 27.0361C6.85833 27.0361 6.97604 26.9912 7.06581 26.9015L11.4204 22.547C11.5999 22.3674 11.5999 22.0764 11.4204 21.8968Z" fill="#E14552"/>
</svg>
