<svg width="34" height="33" viewBox="0 0 34 33" fill="none" xmlns="http://www.w3.org/2000/svg">
<path d="M30.847 2.76949C29.1302 1.02558 26.8417 0.0426636 24.4031 0.00180019C21.9698 -0.0397077 19.6468 0.904984 17.8625 2.65959C16.0301 4.46158 14.9792 6.95476 14.9792 9.4997V11.367H13.3959C12.5596 11.367 11.8792 12.0475 11.8792 12.8837V20.117C11.8792 20.9534 12.5597 21.6337 13.3959 21.6337H14.9792V23.7337C14.9792 25.192 14.3584 26.5935 13.276 27.5788C12.1797 28.5768 10.7592 29.0495 9.27673 28.9099C6.64265 28.662 4.57937 26.3152 4.57937 23.5672C4.57937 23.3002 4.36294 23.0838 4.09597 23.0838C3.82901 23.0838 3.61257 23.3002 3.61257 23.5672C3.61257 25.1262 4.17454 26.6301 5.1949 27.8018C6.2317 28.9924 7.64915 29.7278 9.1861 29.8724C9.38797 29.8914 9.58868 29.9008 9.7881 29.9008C11.3247 29.9008 12.7761 29.3412 13.9268 28.2937C15.21 27.1256 15.946 25.4635 15.946 23.7337V21.6337H18.0792V23.5011C18.0792 25.7886 17.1336 28.0305 15.4847 29.6518C13.8867 31.2233 11.8114 32.0687 9.63824 32.0323C7.45463 31.9958 5.40502 31.1153 3.86716 29.553C2.32744 27.989 1.47956 25.9223 1.47956 23.7336V17.0171C1.47956 16.9987 1.49445 16.9838 1.51282 16.9838H3.57945C3.59781 16.9838 3.6127 16.9987 3.6127 17.0171V21.4733C3.6127 21.7403 3.82914 21.9567 4.0961 21.9567C4.36307 21.9567 4.5795 21.7403 4.5795 21.4733V17.0171C4.5795 16.4656 4.13091 16.017 3.57945 16.017H3.02947V13.4004C3.02947 13.1334 2.81303 12.917 2.54607 12.917C2.2791 12.917 2.06267 13.1334 2.06267 13.4004V16.017H1.51275C0.96129 16.017 0.512695 16.4656 0.512695 17.0171V23.7336C0.512695 26.1777 1.45932 28.4854 3.17816 30.2313C4.895 31.9752 7.18348 32.9582 9.62207 32.999C9.6726 32.9998 9.72281 33.0003 9.77321 33.0003C12.1515 33.0003 14.4154 32.0594 16.1626 30.3412C17.9951 28.5392 19.046 26.046 19.046 23.5011V21.6337H20.6292C21.4655 21.6337 22.1459 20.9533 22.1459 20.117V12.8838C22.1459 12.0475 21.4655 11.3671 20.6292 11.3671H19.046V9.26715C19.046 7.80883 19.6667 6.40729 20.7491 5.422C21.8454 4.42407 23.2659 3.9515 24.7484 4.09091C27.3825 4.33886 29.4458 6.68567 29.4458 9.43363C29.4458 9.7006 29.6622 9.91703 29.9292 9.91703C30.1961 9.91703 30.4126 9.7006 30.4126 9.43363C30.4126 7.87464 29.8506 6.37075 28.8302 5.19899C27.7934 4.00841 26.376 3.27306 24.839 3.12843C23.0817 2.96304 21.3984 3.52365 20.0983 4.70708C18.8151 5.87523 18.0791 7.53729 18.0791 9.26715V11.3671H15.9458V9.49976C15.9458 7.21225 16.8915 4.97037 18.5403 3.34899C20.1383 1.77755 22.2139 0.932634 24.3868 0.968534C26.5704 1.00508 28.6201 1.88558 30.1579 3.44779C31.6976 5.01182 32.5455 7.07851 32.5455 9.26721V15.9838C32.5455 16.0021 32.5306 16.017 32.5123 16.017H30.4456C30.4273 16.017 30.4124 16.0021 30.4124 15.9838V11.5275C30.4124 11.2606 30.1959 11.0441 29.929 11.0441C29.662 11.0441 29.4456 11.2606 29.4456 11.5275V15.9838C29.4456 16.5352 29.8942 16.9838 30.4456 16.9838H30.9955V19.6004C30.9955 19.8674 31.212 20.0838 31.4789 20.0838C31.7459 20.0838 31.9623 19.8674 31.9623 19.6004V16.9838H32.5123C33.0637 16.9838 33.5123 16.5352 33.5123 15.9838V9.26715C33.5125 6.82302 32.5659 4.51553 30.847 2.76949ZM20.6292 12.3339C20.9324 12.3339 21.1791 12.5806 21.1791 12.8838V20.1171C21.1791 20.4203 20.9324 20.667 20.6292 20.667H13.3959C13.0927 20.667 12.846 20.4203 12.846 20.1171V12.8838C12.846 12.5806 13.0927 12.3339 13.3959 12.3339H20.6292Z" fill="#E14552"/>
<path d="M33.4608 21.9672L32.9442 20.9339C32.8248 20.6951 32.5345 20.5982 32.2957 20.7177C32.0569 20.8371 31.96 21.1274 32.0795 21.3662L32.5961 22.3995C32.6808 22.5689 32.8515 22.6668 33.0289 22.6668C33.1015 22.6668 33.1752 22.6504 33.2447 22.6157C33.4835 22.4963 33.5803 22.206 33.4608 21.9672Z" fill="#E14552"/>
<path d="M30.6612 20.7177C30.4224 20.5982 30.1321 20.6951 30.0126 20.9339L29.496 21.9672C29.3766 22.206 29.4734 22.4963 29.7122 22.6157C29.7816 22.6504 29.8553 22.6668 29.9279 22.6668C30.1053 22.6668 30.276 22.5688 30.3607 22.3995L30.8773 21.3662C30.9968 21.1274 30.9 20.837 30.6612 20.7177Z" fill="#E14552"/>
<path d="M18.2335 16.2291C18.1436 16.0962 17.9937 16.0167 17.8333 16.0167H16.4806L17.2488 14.0963C17.3479 13.8484 17.2274 13.567 16.9795 13.4679C16.7315 13.3685 16.4502 13.4893 16.3511 13.7372L15.3178 16.3206C15.2582 16.4695 15.2763 16.6383 15.3663 16.7711C15.4562 16.9039 15.6062 16.9835 15.7666 16.9835H17.1193L16.3511 18.9039C16.2519 19.1517 16.3725 19.4331 16.6204 19.5322C16.6793 19.5558 16.74 19.567 16.7998 19.567C16.9916 19.567 17.1731 19.452 17.2488 19.263L18.2821 16.6796C18.3416 16.5307 18.3235 16.3619 18.2335 16.2291Z" fill="#E14552"/>
<g clip-path="url(#clip0)">
<path d="M1.93252 11.6339L1.41586 10.6006C1.2965 10.3618 1.00613 10.2649 0.767336 10.3844C0.528536 10.5038 0.431727 10.7942 0.551159 11.033L1.06782 12.0663C1.15251 12.2357 1.32318 12.3336 1.50056 12.3336C1.57319 12.3336 1.64693 12.3171 1.71635 12.2825C1.95514 12.1631 2.05195 11.8727 1.93252 11.6339Z" fill="#E14552"/>
<path d="M4.29957 10.3844C4.06077 10.2649 3.77041 10.3619 3.65104 10.6006L3.13438 11.6339C3.01502 11.8727 3.11176 12.1631 3.35056 12.2825C3.41998 12.3172 3.49371 12.3336 3.56635 12.3336C3.74366 12.3336 3.9144 12.2356 3.99909 12.0663L4.51575 11.033C4.63518 10.7942 4.53837 10.5038 4.29957 10.3844Z" fill="#E14552"/>
</g>
<defs>
<clipPath id="clip0">
<rect width="33" height="33" fill="white" transform="translate(0.5)"/>
</clipPath>
</defs>
</svg>
