<svg width="37" height="28" viewBox="0 0 37 28" fill="none" xmlns="http://www.w3.org/2000/svg">
<path d="M35.7307 15.7812H31.5745C31.5731 15.3093 31.3849 14.857 31.0512 14.5233C30.7174 14.1895 30.2652 14.0014 29.7932 14H27.4182C26.9462 14.0014 26.494 14.1895 26.1602 14.5233C25.8265 14.857 25.6384 15.3093 25.637 15.7812H23.262V13.4062C23.7339 13.4048 24.1862 13.2167 24.5199 12.883C24.8537 12.5492 25.0418 12.097 25.0432 11.625V9.25C25.0418 8.77802 24.8537 8.32577 24.5199 7.99202C24.1862 7.65828 23.7339 7.47016 23.262 7.46875V0.9375C23.262 0.780028 23.1994 0.629005 23.0881 0.517655C22.9767 0.406306 22.8257 0.34375 22.6682 0.34375H14.3557C14.1982 0.34375 14.0472 0.406306 13.9359 0.517655C13.8245 0.629005 13.762 0.780028 13.762 0.9375V7.46875C13.29 7.47016 12.8377 7.65828 12.504 7.99202C12.1702 8.32577 11.9821 8.77802 11.9807 9.25V11.625C11.9821 12.097 12.1702 12.5492 12.504 12.883C12.8377 13.2167 13.29 13.4048 13.762 13.4062V15.7812H11.387C11.3856 15.3093 11.1974 14.857 10.8637 14.5233C10.5299 14.1895 10.0777 14.0014 9.60571 14H7.23071C6.75873 14.0014 6.30648 14.1895 5.97274 14.5233C5.63899 14.857 5.45087 15.3093 5.44946 15.7812H1.29321C1.13574 15.7812 0.984718 15.8438 0.873368 15.9552C0.762018 16.0665 0.699463 16.2175 0.699463 16.375V24.6875C0.699463 24.845 0.762018 24.996 0.873368 25.1073C0.984718 25.2187 1.13574 25.2812 1.29321 25.2812H5.44946C5.45087 25.7532 5.63899 26.2055 5.97274 26.5392C6.30648 26.873 6.75873 27.0611 7.23071 27.0625H9.60571C10.0777 27.0611 10.5299 26.873 10.8637 26.5392C11.1974 26.2055 11.3856 25.7532 11.387 25.2812H25.637C25.6384 25.7532 25.8265 26.2055 26.1602 26.5392C26.494 26.873 26.9462 27.0611 27.4182 27.0625H29.7932C30.2652 27.0611 30.7174 26.873 31.0512 26.5392C31.3849 26.2055 31.5731 25.7532 31.5745 25.2812H35.7307C35.8882 25.2812 36.0392 25.2187 36.1506 25.1073C36.2619 24.996 36.3245 24.845 36.3245 24.6875V16.375C36.3245 16.2175 36.2619 16.0665 36.1506 15.9552C36.0392 15.8438 35.8882 15.7812 35.7307 15.7812ZM5.44946 24.0938H1.88696V16.9688H5.44946V24.0938ZM10.1995 25.2812C10.1995 25.4387 10.1369 25.5897 10.0256 25.7011C9.91421 25.8124 9.76319 25.875 9.60571 25.875H7.23071C7.07324 25.875 6.92222 25.8124 6.81087 25.7011C6.69952 25.5897 6.63696 25.4387 6.63696 25.2812V15.7812C6.63696 15.6238 6.69952 15.4728 6.81087 15.3614C6.92222 15.2501 7.07324 15.1875 7.23071 15.1875H9.60571C9.76319 15.1875 9.91421 15.2501 10.0256 15.3614C10.1369 15.4728 10.1995 15.6238 10.1995 15.7812V25.2812ZM14.9495 1.53125H22.0745V7.46875H14.9495V1.53125ZM13.1682 11.625V9.25C13.1682 9.09253 13.2308 8.9415 13.3421 8.83015C13.4535 8.71881 13.6045 8.65625 13.762 8.65625H23.262C23.4194 8.65625 23.5705 8.71881 23.6818 8.83015C23.7932 8.9415 23.8557 9.09253 23.8557 9.25V11.625C23.8557 11.7825 23.7932 11.9335 23.6818 12.0448C23.5705 12.1562 23.4194 12.2188 23.262 12.2188H13.762C13.6045 12.2188 13.4535 12.1562 13.3421 12.0448C13.2308 11.9335 13.1682 11.7825 13.1682 11.625ZM25.637 24.0938H11.387V16.9688H14.3557C14.5132 16.9688 14.6642 16.9062 14.7756 16.7948C14.8869 16.6835 14.9495 16.5325 14.9495 16.375V13.4062H22.0745V16.375C22.0745 16.5325 22.137 16.6835 22.2484 16.7948C22.3597 16.9062 22.5107 16.9688 22.6682 16.9688H25.637V24.0938ZM30.387 25.2812C30.387 25.4387 30.3244 25.5897 30.2131 25.7011C30.1017 25.8124 29.9507 25.875 29.7932 25.875H27.4182C27.2607 25.875 27.1097 25.8124 26.9984 25.7011C26.887 25.5897 26.8245 25.4387 26.8245 25.2812V15.7812C26.8245 15.6238 26.887 15.4728 26.9984 15.3614C27.1097 15.2501 27.2607 15.1875 27.4182 15.1875H29.7932C29.9507 15.1875 30.1017 15.2501 30.2131 15.3614C30.3244 15.4728 30.387 15.6238 30.387 15.7812V25.2812ZM35.137 24.0938H31.5745V16.9688H35.137V24.0938Z" fill="#E14552"/>
</svg>
