<svg width="38" height="37" viewBox="0 0 38 37" fill="none" xmlns="http://www.w3.org/2000/svg">
<path d="M36.0804 14.2648C36.3236 14.196 36.5495 14.0769 36.7437 13.9153C36.9379 13.7536 37.096 13.553 37.2078 13.3264L37.3358 13.0766C37.5378 12.6643 37.5786 12.1914 37.4501 11.7506C37.3216 11.3099 37.033 10.933 36.6411 10.6939L34.8556 9.62141V3.76531C35.2586 3.61908 35.5974 3.33584 35.8128 2.96512C36.0281 2.5944 36.1064 2.15979 36.0338 1.73725C35.9612 1.3147 35.7424 0.93112 35.4156 0.653549C35.0889 0.375977 34.6749 0.222076 34.2462 0.21875H29.3712C28.8868 0.220197 28.4227 0.413267 28.0801 0.755794C27.7376 1.09832 27.5445 1.56247 27.5431 2.04688C27.5431 2.42271 27.6598 2.78928 27.877 3.096C28.0942 3.40271 28.4012 3.63444 28.7558 3.75922V5.96516L19.9503 0.681875C19.6669 0.511455 19.3425 0.421413 19.0118 0.421413C18.6812 0.421413 18.3568 0.511455 18.0734 0.681875L1.38263 10.6939C0.990656 10.933 0.702125 11.3099 0.573612 11.7506C0.4451 12.1914 0.485875 12.6643 0.687943 13.0766L0.815911 13.3264C0.9277 13.553 1.0858 13.7536 1.27999 13.9153C1.47419 14.0769 1.70014 14.196 1.94325 14.2648C2.10746 14.3134 2.2778 14.338 2.44904 14.338C2.69734 14.332 2.9419 14.276 3.1681 14.1734V33.125H2.55872C2.07387 33.125 1.60888 33.3176 1.26604 33.6604C0.923204 34.0033 0.730599 34.4683 0.730599 34.9531C0.730599 35.438 0.923204 35.903 1.26604 36.2458C1.60888 36.5886 2.07387 36.7812 2.55872 36.7812H35.465C35.9498 36.7812 36.4148 36.5886 36.7577 36.2458C37.1005 35.903 37.2931 35.438 37.2931 34.9531C37.2931 34.4683 37.1005 34.0033 36.7577 33.6604C36.4148 33.3176 35.9498 33.125 35.465 33.125H34.8556V14.1795C35.2406 14.3534 35.6751 14.3837 36.0804 14.2648ZM29.3712 1.4375H34.2462C34.4078 1.4375 34.5628 1.5017 34.6771 1.61598C34.7914 1.73026 34.8556 1.88526 34.8556 2.04688C34.8556 2.20849 34.7914 2.36349 34.6771 2.47777C34.5628 2.59205 34.4078 2.65625 34.2462 2.65625H29.3712C29.2096 2.65625 29.0546 2.59205 28.9403 2.47777C28.826 2.36349 28.7618 2.20849 28.7618 2.04688C28.7618 1.88526 28.826 1.73026 28.9403 1.61598C29.0546 1.5017 29.2096 1.4375 29.3712 1.4375ZM33.6368 3.875V8.89016L29.9745 6.69641V3.875H33.6368ZM23.8868 35.5625H2.55872C2.39711 35.5625 2.24211 35.4983 2.12783 35.384C2.01355 35.2697 1.94935 35.1147 1.94935 34.9531C1.94935 34.7915 2.01355 34.6365 2.12783 34.5222C2.24211 34.408 2.39711 34.3438 2.55872 34.3438H23.8868V35.5625ZM27.5431 35.5625H25.1056V29.4688H27.5431V35.5625ZM28.1525 28.25H26.9337V24.612C26.9346 24.5146 26.9581 24.4187 27.0026 24.3319C27.047 24.2452 27.1111 24.17 27.1897 24.1123L30.4315 21.7967C30.669 21.6282 30.8626 21.4053 30.9962 21.1466C31.1298 20.8879 31.1994 20.601 31.1993 20.3098V18.5C31.1979 18.0156 31.0048 17.5514 30.6623 17.2089C30.3198 16.8664 29.8556 16.6733 29.3712 16.6719H28.7618V16.0625C28.7618 15.9009 28.6976 15.7459 28.5834 15.6316C28.4691 15.5173 28.3141 15.4531 28.1525 15.4531H26.3243C26.3229 14.9687 26.1298 14.5046 25.7873 14.162C25.4448 13.8195 24.9806 13.6264 24.4962 13.625H11.09C10.6056 13.6264 10.1414 13.8195 9.79889 14.162C9.45637 14.5046 9.2633 14.9687 9.26185 15.4531H7.43372C7.27211 15.4531 7.11711 15.5173 7.00283 15.6316C6.88855 15.7459 6.82435 15.9009 6.82435 16.0625V18.5C6.82435 18.6616 6.88855 18.8166 7.00283 18.9309C7.11711 19.0452 7.27211 19.1094 7.43372 19.1094H9.26185C9.2633 19.5938 9.45637 20.0579 9.79889 20.4005C10.1414 20.743 10.6056 20.9361 11.09 20.9375H11.6993V25.8125C11.6993 26.459 11.9562 27.079 12.4133 27.5361C12.8704 27.9932 13.4904 28.25 14.1368 28.25C14.7833 28.25 15.4033 27.9932 15.8604 27.5361C16.3175 27.079 16.5743 26.459 16.5743 25.8125V20.9375H17.7931C17.7931 21.584 18.0499 22.204 18.507 22.6611C18.9641 23.1182 19.5841 23.375 20.2306 23.375C20.8771 23.375 21.4971 23.1182 21.9542 22.6611C22.4113 22.204 22.6681 21.584 22.6681 20.9375H24.4962C24.9806 20.9361 25.4448 20.743 25.7873 20.4005C26.1298 20.0579 26.3229 19.5938 26.3243 19.1094H28.1525C28.3141 19.1094 28.4691 19.0452 28.5834 18.9309C28.6976 18.8166 28.7618 18.6616 28.7618 18.5V17.8906H29.3712C29.5328 17.8906 29.6878 17.9548 29.8021 18.0691C29.9164 18.1834 29.9806 18.3384 29.9806 18.5V20.3098C29.9797 20.4073 29.9562 20.5032 29.9117 20.59C29.8673 20.6767 29.8033 20.7519 29.7247 20.8095L26.4828 23.1252C26.2454 23.2937 26.0517 23.5166 25.9182 23.7753C25.7846 24.034 25.7149 24.3209 25.715 24.612V28.25H24.4962C24.3346 28.25 24.1796 28.3142 24.0653 28.4285C23.951 28.5428 23.8868 28.6978 23.8868 28.8594V33.125H4.38685V13.4788L18.695 4.86219C18.7909 4.80534 18.9003 4.77535 19.0118 4.77535C19.1234 4.77535 19.2328 4.80534 19.3287 4.86219L33.6368 13.4788V33.125H28.7618V28.8594C28.7618 28.6978 28.6976 28.5428 28.5834 28.4285C28.4691 28.3142 28.3141 28.25 28.1525 28.25ZM27.5431 16.6719V17.8906H26.3243V16.6719H27.5431ZM25.1056 15.4531V19.1094C25.1056 19.271 25.0414 19.426 24.9271 19.5403C24.8128 19.6545 24.6578 19.7188 24.4962 19.7188H22.6681V14.8438H24.4962C24.6578 14.8438 24.8128 14.908 24.9271 15.0222C25.0414 15.1365 25.1056 15.2915 25.1056 15.4531ZM17.1837 17.2812C16.6993 17.2827 16.2352 17.4758 15.8926 17.8183C15.5501 18.1608 15.357 18.625 15.3556 19.1094V25.8125C15.3556 26.1357 15.2272 26.4457 14.9986 26.6743C14.7701 26.9028 14.4601 27.0312 14.1368 27.0312C13.8136 27.0312 13.5036 26.9028 13.2751 26.6743C13.0465 26.4457 12.9181 26.1357 12.9181 25.8125V14.8438H21.4493V20.9375C21.4493 21.2607 21.3209 21.5707 21.0924 21.7993C20.8638 22.0278 20.5538 22.1562 20.2306 22.1562C19.9074 22.1562 19.5974 22.0278 19.3688 21.7993C19.1403 21.5707 19.0118 21.2607 19.0118 20.9375V19.1094C19.0104 18.625 18.8173 18.1608 18.4748 17.8183C18.1323 17.4758 17.6681 17.2827 17.1837 17.2812ZM17.7931 19.1094V19.7188H16.5743V19.1094C16.5743 18.9478 16.6385 18.7928 16.7528 18.6785C16.8671 18.5642 17.0221 18.5 17.1837 18.5C17.3453 18.5 17.5003 18.5642 17.6146 18.6785C17.7289 18.7928 17.7931 18.9478 17.7931 19.1094ZM11.6993 14.8438V19.7188H11.09C10.9284 19.7188 10.7734 19.6545 10.6591 19.5403C10.5448 19.426 10.4806 19.271 10.4806 19.1094V15.4531C10.4806 15.2915 10.5448 15.1365 10.6591 15.0222C10.7734 14.908 10.9284 14.8438 11.09 14.8438H11.6993ZM9.26185 16.6719V17.8906H8.0431V16.6719H9.26185ZM35.465 34.3438C35.6266 34.3438 35.7816 34.408 35.8959 34.5222C36.0101 34.6365 36.0743 34.7915 36.0743 34.9531C36.0743 35.1147 36.0101 35.2697 35.8959 35.384C35.7816 35.4983 35.6266 35.5625 35.465 35.5625H28.7618V34.3438H35.465ZM19.9564 3.82016C19.6718 3.64679 19.3451 3.55508 19.0118 3.55508C18.6786 3.55508 18.3519 3.64679 18.0673 3.82016L2.76591 13.0339C2.69308 13.0767 2.61228 13.1042 2.52845 13.1147C2.44462 13.1252 2.35954 13.1184 2.27841 13.0948C2.19805 13.0722 2.12338 13.0328 2.05932 12.9792C1.99526 12.9256 1.94324 12.8591 1.90669 12.7841L1.77872 12.5342C1.71211 12.396 1.6989 12.2381 1.74165 12.0907C1.78439 11.9434 1.88006 11.817 2.01029 11.7359L18.7011 1.72391C18.7951 1.66813 18.9025 1.6387 19.0118 1.6387C19.1212 1.6387 19.2286 1.66813 19.3226 1.72391L36.0134 11.7359C36.1436 11.817 36.2393 11.9434 36.2821 12.0907C36.3248 12.2381 36.3116 12.396 36.245 12.5342L36.117 12.7841C36.0805 12.8591 36.0284 12.9256 35.9644 12.9792C35.9003 13.0328 35.8256 13.0722 35.7453 13.0948C35.6642 13.1184 35.5791 13.1252 35.4952 13.1147C35.4114 13.1042 35.3306 13.0767 35.2578 13.0339L19.9564 3.82016Z" fill="#E14552"/>
</svg>
