<svg width="34" height="33" viewBox="0 0 34 33" fill="none" xmlns="http://www.w3.org/2000/svg">
<g clip-path="url(#clip0)">
<path d="M12.585 22.8171V21.9792C12.585 21.7122 12.3686 21.4958 12.1016 21.4958C11.8345 21.4958 11.6182 21.7122 11.6182 21.9792V22.8171C11.6182 23.0841 11.8345 23.3005 12.1016 23.3005C12.3686 23.3005 12.585 23.084 12.585 22.8171Z" fill="#E14552"/>
<path d="M32.5143 27.4433C32.4906 27.2189 32.4265 27.001 32.3224 26.7992C32.1715 26.5066 31.9458 26.2592 31.6696 26.0837C31.4987 25.9751 31.3769 25.7997 31.3356 25.6025C31.1578 24.7529 30.565 24.0651 29.7497 23.7625C29.6342 23.7196 29.516 23.6861 29.3959 23.6611V16.437C29.3959 16.1699 29.1795 15.9536 28.9125 15.9536C28.6455 15.9536 28.4291 16.1699 28.4291 16.437V27.3286H14.7891V17.4675H14.8857C15.1528 17.4675 15.3691 17.2511 15.3691 16.9841C15.3691 16.7171 15.1528 16.5007 14.8857 16.5007H7.39391C7.12688 16.5007 6.91051 16.7171 6.91051 16.9841C6.91051 17.2511 7.12688 17.4675 7.39391 17.4675H7.49059V23.8957C7.49059 24.1627 7.70695 24.3791 7.97398 24.3791C8.24101 24.3791 8.45738 24.1627 8.45738 23.8957V17.4675H13.8223V27.3287H8.45738V26.1392C8.45738 25.8722 8.24101 25.6558 7.97398 25.6558C7.70695 25.6558 7.49059 25.8722 7.49059 26.1392V27.3287H5.57091V11.9027L16.8978 6.22728C16.9618 6.19518 17.0382 6.19518 17.1022 6.22728H17.1023L28.4291 11.9027V14.1771C28.4291 14.4441 28.6455 14.6605 28.9125 14.6605C29.1795 14.6605 29.3959 14.4441 29.3959 14.1771V12.3871L30.3194 12.8499C31.1145 13.2483 32.0498 12.6693 32.0498 11.7815V10.659C32.0498 10.2038 31.797 9.7945 31.3901 9.59063L17.5353 2.64845C17.2001 2.48062 16.7999 2.48062 16.4647 2.64852L2.60994 9.59063C2.20298 9.7945 1.9502 10.2039 1.9502 10.659V11.7815C1.9502 12.6712 2.88676 13.2478 3.68057 12.8499L4.60412 12.3871V23.6611C4.48398 23.6861 4.36571 23.7196 4.25021 23.7625C3.435 24.0651 2.8421 24.7529 2.6644 25.6025C2.62309 25.7997 2.5014 25.9751 2.33034 26.0837C2.05429 26.2592 1.82857 26.5066 1.67762 26.7992C1.57353 27.0011 1.5094 27.2189 1.48568 27.4433C0.908439 27.677 0.5 28.243 0.5 28.903C0.5 29.7712 1.20628 30.4774 2.07446 30.4774H31.9256C32.7938 30.4774 33.5001 29.7712 33.5001 28.903C33.5 28.243 33.0916 27.677 32.5143 27.4433ZM29.3959 24.6633C29.4016 24.6653 29.4076 24.6667 29.4133 24.6689C29.9152 24.8551 30.2801 25.2782 30.3894 25.8005C30.4838 26.2515 30.7615 26.6522 31.1512 26.8998C31.2829 26.9834 31.3908 27.1019 31.4632 27.2422C31.4777 27.2703 31.4899 27.2993 31.5011 27.3287H29.3959V24.6633H29.3959ZM3.24751 11.9856C3.09488 12.0618 2.91699 11.9516 2.91699 11.7815V10.659C2.91699 10.5721 2.96527 10.4939 3.043 10.455L16.8977 3.5129C16.9618 3.4808 17.0382 3.48086 17.1023 3.51283L30.957 10.455C31.0347 10.4939 31.083 10.5721 31.083 10.659V11.7815C31.083 11.9518 30.9048 12.0618 30.7525 11.9856L17.5353 5.36296H17.5355C17.2001 5.19493 16.7998 5.19487 16.4647 5.36296L3.24751 11.9856ZM2.53685 27.2423C2.60936 27.1018 2.71725 26.9834 2.8488 26.8998C3.23868 26.6521 3.51628 26.2514 3.61064 25.8005C3.71995 25.2782 4.08475 24.8551 4.58665 24.6689C4.59239 24.6667 4.59838 24.6653 4.60412 24.6632V27.3286H2.49895C2.5101 27.2993 2.52235 27.2704 2.53685 27.2423ZM31.9255 29.5106H2.07446C1.73943 29.5106 1.4668 29.2381 1.4668 28.903C1.4668 28.568 1.73937 28.2954 2.07446 28.2954H31.9256C32.2606 28.2954 32.5333 28.568 32.5333 28.903C32.5333 29.2381 32.2606 29.5106 31.9255 29.5106Z" fill="#E14552"/>
<path d="M17.822 16.5007C17.2507 16.5007 16.786 16.9655 16.786 17.5368V21.1391C16.786 21.7103 17.2507 22.1751 17.822 22.1751H25.4734C26.0446 22.1751 26.5093 21.7103 26.5093 21.1391V17.5368C26.5093 16.9655 26.0446 16.5007 25.4734 16.5007H17.822ZM25.5425 17.5368V21.1391C25.5425 21.1773 25.5115 21.2083 25.4734 21.2083H17.822C17.7838 21.2083 17.7528 21.1773 17.7528 21.1391V17.5368C17.7528 17.4985 17.7838 17.4675 17.822 17.4675H25.4734C25.5115 17.4675 25.5425 17.4985 25.5425 17.5368Z" fill="#E14552"/>
</g>
<defs>
<clipPath id="clip0">
<rect width="33" height="33" fill="white" transform="translate(0.5)"/>
</clipPath>
</defs>
</svg>
