<svg width="38" height="37" viewBox="0 0 38 37" fill="none" xmlns="http://www.w3.org/2000/svg">
<g clip-path="url(#clip0)">
<path d="M36.8254 32.0089H36.2089V27.6922C36.2089 27.3517 35.9327 27.0755 35.5919 27.0755H33.7419V23.9922C33.7419 23.6514 33.4657 23.3755 33.1254 23.3755H31.2752V20.292C31.2752 19.9517 30.9992 19.6755 30.6584 19.6755H26.3419V0.558942C26.3419 0.218164 26.066 -0.0578003 25.7252 -0.0578003C25.3848 -0.0578003 25.1084 0.218164 25.1084 0.558942V11.0422H23.8752V0.558942C23.8752 0.218164 23.599 -0.0578003 23.2587 -0.0578003C22.9179 -0.0578003 22.6417 0.218164 22.6417 0.558942V11.0422H21.4084V0.558942C21.4084 0.218164 21.1325 -0.0578003 20.7917 -0.0578003C20.4511 -0.0578003 20.1752 0.218164 20.1752 0.558942V32.0089H10.3089V0.558942C10.3089 0.218164 10.0325 -0.0578003 9.69214 -0.0578003C9.35136 -0.0578003 9.0754 0.218164 9.0754 0.558942V11.0422H7.84191V0.558942C7.84191 0.218164 7.56595 -0.0578003 7.2254 -0.0578003C6.88485 -0.0578003 6.60866 0.218164 6.60866 0.558942V11.0422H5.3754V0.558942C5.3754 0.218164 5.09921 -0.0578003 4.75888 -0.0578003C4.4181 -0.0578003 4.14214 0.218164 4.14214 0.558942V32.0089H1.05888C0.718103 32.0089 0.442139 32.2849 0.442139 32.6255V36.3257C0.442139 36.666 0.718103 36.9422 1.05888 36.9422H36.8256C37.166 36.9422 37.4421 36.666 37.4421 36.3257V32.6255C37.4421 32.2849 37.166 32.0089 36.8254 32.0089ZM34.9754 32.0089H26.3419V28.3089H34.9754V32.0089ZM32.5089 27.0755H26.3419V24.6087H32.5089V27.0755ZM30.0421 20.9087V23.3755H26.3419V20.9087H30.0421ZM21.4087 12.2757H25.1087V32.0089H21.4087V12.2757ZM5.3754 12.2757H9.0754V32.0089H5.3754V12.2757ZM36.2089 35.709H1.6754V33.2422H36.2089V35.709Z" fill="#E14552"/>
</g>
<defs>
<clipPath id="clip0">
<rect width="37" height="37" fill="white" transform="translate(0.5)"/>
</clipPath>
</defs>
</svg>
