<svg width="36" height="36" viewBox="0 0 36 36" fill="none" xmlns="http://www.w3.org/2000/svg">
<g clip-path="url(#clip0)">
<path d="M34.9102 32.6154H33.6686C33.669 32.6036 33.6704 32.5921 33.6704 32.5802V30.2107C33.6704 29.6097 33.1815 29.1208 32.5805 29.1208H32.5037C32.504 29.1091 32.5054 29.0976 32.5054 29.0857V26.7162C32.5054 26.1152 32.0165 25.6263 31.4156 25.6263H30.1758V16.1974H31.9404L32.2356 16.4532C32.698 16.8541 33.4002 16.8038 33.8011 16.3414L34.564 15.4611C34.9647 14.9987 34.9146 14.2964 34.4522 13.8956L18.7269 0.270989C18.3125 -0.0882371 17.6875 -0.0881668 17.2733 0.270918L4.3539 11.4656C4.13375 11.6562 4.10991 11.9893 4.30067 12.2095C4.4915 12.4296 4.82457 12.4533 5.04451 12.2626L17.964 1.06791C17.9846 1.05005 18.0155 1.05012 18.0361 1.06805L33.7614 14.6927C33.7843 14.7126 33.7868 14.7475 33.7669 14.7704L33.0041 15.6505C32.984 15.6735 32.9492 15.6759 32.9262 15.6561L18.7269 3.35383C18.3124 2.99468 17.6875 2.99482 17.2733 3.35376L1.90885 16.6667C1.89746 16.6766 1.88375 16.681 1.86892 16.68C1.8538 16.6789 1.84107 16.6725 1.83116 16.6611L1.06827 15.7808C1.04837 15.7579 1.0509 15.723 1.07375 15.7031L3.4463 13.6473C3.66645 13.4567 3.69029 13.1236 3.49953 12.9034C3.3087 12.6833 2.97563 12.6595 2.7557 12.8503L0.383005 14.9062C0.15899 15.1004 0.0240608 15.3701 0.00289681 15.6657C-0.0182672 15.9614 0.0770764 16.2476 0.271209 16.4717L1.03417 17.3519C1.22837 17.5759 1.49809 17.7108 1.79375 17.732C1.82082 17.734 1.84775 17.735 1.87447 17.735C2.14117 17.7349 2.39612 17.6401 2.59953 17.4638L4.06105 16.1974H5.82427V30.2856H5.74932C5.14836 30.2856 4.65947 30.7745 4.65947 31.3755V32.6153H1.08993C0.488966 32.6153 8.43111e-05 33.1042 8.43111e-05 33.7051V34.9098C8.43111e-05 35.5108 0.488966 35.9996 1.08993 35.9996H4.1322C4.42351 35.9996 4.65954 35.7635 4.65954 35.4723C4.65954 35.1811 4.42351 34.945 4.1322 34.945H1.08993C1.07059 34.945 1.05477 34.9292 1.05477 34.9098V33.7051C1.05477 33.6857 1.07059 33.67 1.08993 33.67H34.9102C34.9295 33.67 34.9453 33.6857 34.9453 33.7051V34.9098C34.9453 34.9292 34.9295 34.945 34.9102 34.945H6.2415C5.9502 34.945 5.71416 35.1811 5.71416 35.4723C5.71416 35.7635 5.9502 35.9996 6.2415 35.9996H34.9102C35.5111 35.9996 36 35.5108 36 34.9098V33.7051C36 33.1043 35.5111 32.6154 34.9102 32.6154ZM31.4508 26.7162V29.0857C31.4508 29.1051 31.435 29.1208 31.4157 29.1208H30.1758V26.681H31.4157C31.435 26.681 31.4508 26.6968 31.4508 26.7162ZM20.9691 32.6154H10.3735V31.3756C10.3735 30.7746 9.8846 30.2857 9.28364 30.2857H9.20868V24.3513H26.7914V25.6263H23.2219C22.6209 25.6263 22.132 26.1152 22.132 26.7162V29.0857C22.132 29.0976 22.1334 29.1091 22.1338 29.1208H22.057C21.456 29.1208 20.9672 29.6097 20.9672 30.2107V32.5802C20.9672 32.592 20.9686 32.6036 20.9691 32.6154ZM15.143 16.1974V16.2724C15.143 16.8734 15.6319 17.3622 16.2329 17.3622H19.7672C20.3682 17.3622 20.8571 16.8734 20.8571 16.2724V16.1974H26.7914V20.967H9.20868V16.1974H15.143ZM19.7672 11.6482H19.6923V5.58562L28.0343 12.813H20.8571V12.738C20.8571 12.1371 20.3682 11.6482 19.7672 11.6482ZM19.7672 12.7028C19.7866 12.7028 19.8024 12.7186 19.8024 12.738V16.2724C19.8024 16.2918 19.7866 16.3075 19.7672 16.3075H16.2329C16.2136 16.3075 16.1977 16.2918 16.1977 16.2724V12.738C16.1977 12.7186 16.2136 12.7028 16.2329 12.7028H19.7672ZM16.2329 11.6482C15.6319 11.6482 15.143 12.137 15.143 12.738V12.813H7.9669L16.3079 5.58576V11.6482H16.2329ZM29.1211 29.1208H25.5164V26.6809H29.1211V29.1208ZM9.20868 22.0216H26.7914V23.2966H9.20868V22.0216ZM23.1868 29.0856V26.7161C23.1868 26.6967 23.2026 26.6809 23.2219 26.6809H24.4618V29.1208H23.2219C23.2025 29.1208 23.1868 29.105 23.1868 29.0856ZM30.286 30.1755V32.6153H24.3517V30.1755H30.286ZM29.1211 25.6263H27.8461V16.1974H29.1211V25.6263ZM20.8571 15.1428V13.8678H29.2515L30.7231 15.1428H20.8571ZM18.0362 4.15089L18.6376 4.67191V11.6482H17.3626V4.67191L17.9641 4.15075C17.9846 4.13303 18.0156 4.13296 18.0362 4.15089ZM6.74972 13.8677H15.143V15.1427H5.27822L6.74972 13.8677ZM6.87895 16.1974H8.154V30.2857H6.87895V16.1974ZM5.71416 32.6154V31.3756C5.71416 31.3561 5.72998 31.3404 5.74932 31.3404H6.35161H8.68134H9.28364C9.30297 31.3404 9.31879 31.3561 9.31879 31.3756V32.6154H5.71416ZM22.0219 32.5802V30.2107C22.0219 30.1913 22.0377 30.1755 22.0571 30.1755H23.2219H23.2968V32.6154H22.057C22.0377 32.6154 22.0219 32.5996 22.0219 32.5802ZM31.3407 32.6154V30.1755H31.4157H32.5805C32.5999 30.1755 32.6157 30.1913 32.6157 30.2107V32.5802C32.6157 32.5996 32.5999 32.6154 32.5805 32.6154H31.3407Z" fill="#E14552"/>
<path d="M17.8545 15.0319H18.1457C18.437 15.0319 18.673 14.7958 18.673 14.5046C18.673 14.2133 18.437 13.9772 18.1457 13.9772H17.8545C17.5632 13.9772 17.3271 14.2133 17.3271 14.5046C17.3271 14.7958 17.5632 15.0319 17.8545 15.0319Z" fill="#E14552"/>
</g>
<defs>
<clipPath id="clip0">
<rect width="36" height="36" fill="white"/>
</clipPath>
</defs>
</svg>
