<svg width="32" height="31" viewBox="0 0 32 31" fill="none" xmlns="http://www.w3.org/2000/svg">
<g clip-path="url(#clip0)">
<path d="M30.9464 0H20.9821H11.0179H1.05354C0.721429 0 0.5 0.221429 0.5 0.553543V10.5178V20.4821V30.4463C0.5 30.7784 0.721429 30.9999 1.05354 30.9999H11.0178H20.9821H30.9463C31.2784 30.9999 31.4999 30.7784 31.4999 30.4463V20.4821V10.5179V0.553543C31.5 0.221429 31.2786 0 30.9464 0ZM1.60715 11.0714H10.4643V19.9285H1.60715V11.0714ZM11.5714 11.0714H20.4285V19.9285H11.5714V11.0714ZM21.5357 11.0714H30.3928V19.9285H21.5357V11.0714ZM30.3929 9.96426H21.5357V1.10715H30.3928V9.96426H30.3929ZM20.4285 9.96426H11.5714V1.10715H20.4285V9.96426ZM1.60715 1.10715H10.4643V9.96426H1.60715V1.10715ZM1.60715 21.0357H10.4643V29.8928H1.60715V21.0357ZM11.5714 21.0357H20.4285V29.8928H11.5714V21.0357ZM30.3929 29.8929H21.5357V21.0357H30.3928V29.8929H30.3929Z" fill="#E14552"/>
<path d="M3.43386 1.82678L2.32672 2.93392C2.10529 3.15535 2.10529 3.48747 2.32672 3.7089C2.43746 3.81958 2.60349 3.87498 2.71423 3.87498C2.88032 3.87498 2.991 3.81964 3.10175 3.7089L4.20889 2.60175C4.43032 2.38032 4.43032 2.04821 4.20889 1.82678C3.9874 1.60535 3.65529 1.60535 3.43386 1.82678Z" fill="#E14552"/>
<path d="M3.43386 4.59459L2.32672 5.70174C2.10529 5.92317 2.10529 6.25528 2.32672 6.47671C2.43746 6.58746 2.54815 6.6428 2.71423 6.6428C2.88032 6.6428 2.991 6.58746 3.10175 6.47671L4.20884 5.36963C4.43027 5.1482 4.43027 4.81608 4.20884 4.59465C3.98741 4.37316 3.65529 4.37316 3.43386 4.59459Z" fill="#E14552"/>
<path d="M6.20181 1.82678L5.09466 2.93392C4.87323 3.15535 4.87323 3.48747 5.09466 3.7089C5.20541 3.81958 5.37143 3.87498 5.48218 3.87498C5.64826 3.87498 5.75895 3.81964 5.86969 3.7089L6.97684 2.60175C7.19827 2.38032 7.19827 2.04821 6.97684 1.82678C6.75541 1.60535 6.42323 1.60535 6.20181 1.82678Z" fill="#E14552"/>
<path d="M12.6787 3.87498C12.8447 3.87498 12.9554 3.81964 13.0662 3.7089L14.1733 2.60175C14.3947 2.38032 14.3947 2.04821 14.1733 1.82678C13.9519 1.60535 13.6198 1.60535 13.3983 1.82678L12.2912 2.93392C12.0698 3.15535 12.0698 3.48747 12.2912 3.7089C12.4019 3.81964 12.5126 3.87498 12.6787 3.87498Z" fill="#E14552"/>
<path d="M12.6787 6.64281C12.8447 6.64281 12.9554 6.58747 13.0662 6.47672L14.1733 5.36957C14.3947 5.14814 14.3947 4.81603 14.1733 4.5946C13.9519 4.37317 13.6198 4.37317 13.3983 4.5946L12.2912 5.70175C12.0698 5.92318 12.0698 6.25529 12.2912 6.47672C12.4019 6.58747 12.5126 6.64281 12.6787 6.64281Z" fill="#E14552"/>
<path d="M15.4465 3.87498C15.6126 3.87498 15.7232 3.81964 15.834 3.7089L16.9411 2.60175C17.1626 2.38032 17.1626 2.04821 16.9411 1.82678C16.7197 1.60535 16.3876 1.60535 16.1662 1.82678L15.059 2.93392C14.8376 3.15535 14.8376 3.48747 15.059 3.7089C15.1697 3.81964 15.2804 3.87498 15.4465 3.87498Z" fill="#E14552"/>
<path d="M22.6428 3.87498C22.8089 3.87498 22.9196 3.81964 23.0303 3.7089L24.1375 2.60175C24.3589 2.38032 24.3589 2.04821 24.1375 1.82678C23.9161 1.60535 23.5839 1.60535 23.3625 1.82678L22.2553 2.93392C22.0339 3.15535 22.0339 3.48747 22.2553 3.7089C22.3661 3.81964 22.4768 3.87498 22.6428 3.87498Z" fill="#E14552"/>
<path d="M22.6428 6.64281C22.8089 6.64281 22.9196 6.58747 23.0303 6.47672L24.1375 5.36957C24.3589 5.14814 24.3589 4.81603 24.1375 4.5946C23.9161 4.37317 23.5839 4.37317 23.3625 4.5946L22.2553 5.70175C22.0339 5.92318 22.0339 6.25529 22.2553 6.47672C22.3661 6.58747 22.4768 6.64281 22.6428 6.64281Z" fill="#E14552"/>
<path d="M25.4106 3.87498C25.5767 3.87498 25.6874 3.81964 25.7982 3.7089L26.9053 2.60175C27.1267 2.38032 27.1267 2.04821 26.9053 1.82678C26.6839 1.60535 26.3518 1.60535 26.1303 1.82678L25.0231 2.93392C24.8017 3.15535 24.8017 3.48747 25.0231 3.7089C25.1338 3.81964 25.2446 3.87498 25.4106 3.87498Z" fill="#E14552"/>
<path d="M3.43386 11.7911L2.32672 12.8982C2.10529 13.1197 2.10529 13.4518 2.32672 13.6732C2.43746 13.7839 2.54815 13.8393 2.71423 13.8393C2.88032 13.8393 2.991 13.7839 3.10175 13.6732L4.20889 12.566C4.43032 12.3446 4.43032 12.0125 4.20889 11.7911C3.9874 11.5696 3.65529 11.5696 3.43386 11.7911Z" fill="#E14552"/>
<path d="M3.43386 14.559L2.32672 15.6661C2.10529 15.8875 2.10529 16.2196 2.32672 16.4411C2.43746 16.5518 2.54815 16.6072 2.71423 16.6072C2.88032 16.6072 2.991 16.5518 3.10175 16.4411L4.20889 15.3339C4.43032 15.1125 4.43032 14.7804 4.20889 14.559C3.9874 14.3375 3.65529 14.3375 3.43386 14.559Z" fill="#E14552"/>
<path d="M6.20181 11.7911L5.09466 12.8982C4.87323 13.1197 4.87323 13.4518 5.09466 13.6732C5.20541 13.7839 5.31609 13.8393 5.48218 13.8393C5.64826 13.8393 5.75895 13.7839 5.86969 13.6732L6.97684 12.566C7.19827 12.3446 7.19827 12.0125 6.97684 11.7911C6.75541 11.5696 6.42323 11.5696 6.20181 11.7911Z" fill="#E14552"/>
<path d="M13.3982 11.7911L12.2911 12.8982C12.0696 13.1197 12.0696 13.4518 12.2911 13.6732C12.4018 13.7839 12.5125 13.8393 12.6786 13.8393C12.8447 13.8393 12.9554 13.7839 13.0661 13.6732L14.1733 12.566C14.3947 12.3446 14.3947 12.0125 14.1733 11.7911C13.9518 11.5696 13.6197 11.5696 13.3982 11.7911Z" fill="#E14552"/>
<path d="M13.3982 14.559L12.2911 15.6661C12.0696 15.8875 12.0696 16.2196 12.2911 16.4411C12.4018 16.5518 12.5125 16.6072 12.6786 16.6072C12.8447 16.6072 12.9554 16.5518 13.0661 16.4411L14.1733 15.3339C14.3947 15.1125 14.3947 14.7804 14.1733 14.559C13.9518 14.3375 13.6197 14.3375 13.3982 14.559Z" fill="#E14552"/>
<path d="M16.166 11.7911L15.0589 12.8982C14.8375 13.1197 14.8375 13.4518 15.0589 13.6732C15.1696 13.7839 15.2803 13.8393 15.4464 13.8393C15.6125 13.8393 15.7232 13.7839 15.8339 13.6732L16.9411 12.566C17.1625 12.3446 17.1625 12.0125 16.9411 11.7911C16.7196 11.5696 16.3875 11.5696 16.166 11.7911Z" fill="#E14552"/>
<path d="M23.3625 11.7911L22.2553 12.8982C22.0339 13.1197 22.0339 13.4518 22.2553 13.6732C22.3661 13.7839 22.4767 13.8393 22.6428 13.8393C22.8089 13.8393 22.9196 13.7839 23.0303 13.6732L24.1375 12.566C24.3589 12.3446 24.3589 12.0125 24.1375 11.7911C23.9161 11.5696 23.5839 11.5696 23.3625 11.7911Z" fill="#E14552"/>
<path d="M23.3625 14.559L22.2553 15.6661C22.0339 15.8875 22.0339 16.2196 22.2553 16.4411C22.3661 16.5518 22.4767 16.6072 22.6428 16.6072C22.8089 16.6072 22.9196 16.5518 23.0303 16.4411L24.1375 15.3339C24.3589 15.1125 24.3589 14.7804 24.1375 14.559C23.9161 14.3375 23.5839 14.3375 23.3625 14.559Z" fill="#E14552"/>
<path d="M26.1303 11.7911L25.0231 12.8982C24.8017 13.1197 24.8017 13.4518 25.0231 13.6732C25.1339 13.7839 25.2446 13.8393 25.4106 13.8393C25.5767 13.8393 25.6874 13.7839 25.7982 13.6732L26.9053 12.566C27.1267 12.3446 27.1267 12.0125 26.9053 11.7911C26.6838 11.5696 26.3517 11.5696 26.1303 11.7911Z" fill="#E14552"/>
<path d="M3.43386 21.7554L2.32672 22.8626C2.10529 23.084 2.10529 23.4161 2.32672 23.6375C2.43746 23.7483 2.54815 23.8036 2.71423 23.8036C2.88032 23.8036 2.991 23.7483 3.10175 23.6375L4.20889 22.5304C4.43032 22.309 4.43032 21.9769 4.20889 21.7554C3.9874 21.534 3.65529 21.534 3.43386 21.7554Z" fill="#E14552"/>
<path d="M3.43386 24.5232L2.32672 25.6303C2.10529 25.8518 2.10529 26.1839 2.32672 26.4053C2.43746 26.5161 2.54815 26.5714 2.71423 26.5714C2.88032 26.5714 2.991 26.5161 3.10175 26.4053L4.20889 25.2982C4.43032 25.0767 4.43032 24.7446 4.20889 24.5231C3.9874 24.3018 3.65529 24.3018 3.43386 24.5232Z" fill="#E14552"/>
<path d="M6.20181 21.7554L5.09466 22.8626C4.87323 23.084 4.87323 23.4161 5.09466 23.6375C5.20541 23.7483 5.31609 23.8036 5.48218 23.8036C5.64826 23.8036 5.75895 23.7483 5.86969 23.6375L6.97684 22.5304C7.19827 22.309 7.19827 21.9769 6.97684 21.7554C6.75541 21.534 6.42323 21.534 6.20181 21.7554Z" fill="#E14552"/>
<path d="M13.3982 21.7554L12.2911 22.8626C12.0696 23.084 12.0696 23.4161 12.2911 23.6375C12.4018 23.7483 12.5125 23.8036 12.6786 23.8036C12.8447 23.8036 12.9554 23.7483 13.0661 23.6375L14.1733 22.5304C14.3947 22.309 14.3947 21.9769 14.1733 21.7554C13.9518 21.534 13.6197 21.534 13.3982 21.7554Z" fill="#E14552"/>
<path d="M13.3982 24.5232L12.2911 25.6303C12.0696 25.8518 12.0696 26.1839 12.2911 26.4053C12.4018 26.5161 12.5125 26.5714 12.6786 26.5714C12.8447 26.5714 12.9554 26.5161 13.0661 26.4053L14.1733 25.2982C14.3947 25.0767 14.3947 24.7446 14.1733 24.5231C13.9518 24.3018 13.6197 24.3018 13.3982 24.5232Z" fill="#E14552"/>
<path d="M16.166 21.7554L15.0589 22.8626C14.8375 23.084 14.8375 23.4161 15.0589 23.6375C15.1696 23.7483 15.2803 23.8036 15.4464 23.8036C15.6125 23.8036 15.7232 23.7483 15.8339 23.6375L16.9411 22.5304C17.1625 22.309 17.1625 21.9769 16.9411 21.7554C16.7196 21.534 16.3875 21.534 16.166 21.7554Z" fill="#E14552"/>
<path d="M22.6429 23.8036C22.809 23.8036 22.9197 23.7483 23.0304 23.6375L24.1376 22.5304C24.359 22.309 24.359 21.9769 24.1376 21.7554C23.9161 21.534 23.584 21.534 23.3626 21.7554L22.2554 22.8626C22.034 23.084 22.034 23.4161 22.2554 23.6375C22.3661 23.7482 22.4769 23.8036 22.6429 23.8036Z" fill="#E14552"/>
<path d="M22.6429 26.5714C22.809 26.5714 22.9197 26.516 23.0304 26.4053L24.1376 25.2981C24.359 25.0767 24.359 24.7446 24.1376 24.5231C23.9161 24.3016 23.584 24.3016 23.3626 24.5231L22.2554 25.6302C22.034 25.8517 22.034 26.1838 22.2554 26.4052C22.3661 26.516 22.4769 26.5714 22.6429 26.5714Z" fill="#E14552"/>
<path d="M25.4106 23.8036C25.5767 23.8036 25.6874 23.7483 25.7982 23.6375L26.9053 22.5304C27.1267 22.309 27.1267 21.9769 26.9053 21.7554C26.6839 21.534 26.3518 21.534 26.1303 21.7554L25.0231 22.8626C24.8017 23.084 24.8017 23.4161 25.0231 23.6375C25.1338 23.7482 25.2446 23.8036 25.4106 23.8036Z" fill="#E14552"/>
</g>
<defs>
<clipPath id="clip0">
<rect width="31" height="31" fill="white" transform="translate(0.5)"/>
</clipPath>
</defs>
</svg>
